ISO-10303-21;
HEADER;
/* Generated by software containing ST-Developer
 * from STEP Tools, Inc. (www.steptools.com) 
 */

FILE_DESCRIPTION(
/* description */ (''),
/* implementation_level */ '2;1');

FILE_NAME(
/* name */ 'SuperThick 2020.step',
/* time_stamp */ '2026-07-25T11:07:08+10:00',
/* author */ (''),
/* organization */ (''),
/* preprocessor_version */ 'ST-DEVELOPER v20.1',
/* originating_system */ 'Autodesk Translation Framework v15.8.0.0',
/* authorisation */ '');

FILE_SCHEMA (('AUTOMOTIVE_DESIGN { 1 0 10303 214 3 1 1 }'));
ENDSEC;

DATA;
#10=MECHANICAL_DESIGN_GEOMETRIC_PRESENTATION_REPRESENTATION('',(#13),#1751);
#11=SHAPE_REPRESENTATION_RELATIONSHIP('SRR','None',#1758,#12);
#12=ADVANCED_BREP_SHAPE_REPRESENTATION('',(#14),#1750);
#13=STYLED_ITEM('',(#1767),#14);
#14=MANIFOLD_SOLID_BREP('Body1',#1047);
#15=FACE_BOUND('',#139,.T.);
#16=FACE_BOUND('',#164,.T.);
#17=FACE_BOUND('',#166,.T.);
#18=FACE_BOUND('',#168,.T.);
#19=FACE_BOUND('',#173,.T.);
#20=FACE_BOUND('',#180,.T.);
#21=CIRCLE('',#1064,1.00000000000001);
#22=CIRCLE('',#1065,1.00000000000001);
#23=CIRCLE('',#1071,1.00000000000001);
#24=CIRCLE('',#1072,1.00000000000001);
#25=CIRCLE('',#1074,2.75);
#26=CIRCLE('',#1076,1.00000000000003);
#27=CIRCLE('',#1077,1.00000000000003);
#28=CIRCLE('',#1080,0.999999999999969);
#29=CIRCLE('',#1081,0.999999999999969);
#30=CIRCLE('',#1084,2.);
#31=CIRCLE('',#1085,2.);
#32=CIRCLE('',#1088,1.);
#33=CIRCLE('',#1089,1.);
#34=CIRCLE('',#1092,0.499999999999997);
#35=CIRCLE('',#1093,0.499999999999997);
#36=CIRCLE('',#1095,4.50000000000001);
#37=CIRCLE('',#1096,4.50000000000001);
#38=CIRCLE('',#1098,0.5);
#39=CIRCLE('',#1099,0.5);
#40=CIRCLE('',#1102,0.500000000000005);
#41=CIRCLE('',#1103,0.500000000000005);
#42=CIRCLE('',#1105,2.05);
#43=CIRCLE('',#1106,2.05);
#44=CIRCLE('',#1108,0.5);
#45=CIRCLE('',#1109,0.5);
#46=CIRCLE('',#1112,0.500000000000002);
#47=CIRCLE('',#1113,0.500000000000002);
#48=CIRCLE('',#1115,4.5);
#49=CIRCLE('',#1116,4.5);
#50=CIRCLE('',#1118,0.5);
#51=CIRCLE('',#1119,0.5);
#52=CIRCLE('',#1122,1.);
#53=CIRCLE('',#1123,1.);
#54=CIRCLE('',#1126,2.);
#55=CIRCLE('',#1127,2.);
#56=CIRCLE('',#1129,2.75);
#57=CIRCLE('',#1136,2.75);
#58=CIRCLE('',#1143,2.75);
#59=CYLINDRICAL_SURFACE('',#1063,1.00000000000001);
#60=CYLINDRICAL_SURFACE('',#1070,1.00000000000001);
#61=CYLINDRICAL_SURFACE('',#1075,1.00000000000003);
#62=CYLINDRICAL_SURFACE('',#1079,0.999999999999969);
#63=CYLINDRICAL_SURFACE('',#1083,2.);
#64=CYLINDRICAL_SURFACE('',#1087,1.);
#65=CYLINDRICAL_SURFACE('',#1091,0.499999999999997);
#66=CYLINDRICAL_SURFACE('',#1094,4.50000000000001);
#67=CYLINDRICAL_SURFACE('',#1097,0.5);
#68=CYLINDRICAL_SURFACE('',#1101,0.500000000000005);
#69=CYLINDRICAL_SURFACE('',#1104,2.05);
#70=CYLINDRICAL_SURFACE('',#1107,0.5);
#71=CYLINDRICAL_SURFACE('',#1111,0.500000000000002);
#72=CYLINDRICAL_SURFACE('',#1114,4.5);
#73=CYLINDRICAL_SURFACE('',#1117,0.5);
#74=CYLINDRICAL_SURFACE('',#1121,1.);
#75=CYLINDRICAL_SURFACE('',#1125,2.);
#76=CYLINDRICAL_SURFACE('',#1149,2.75);
#77=CYLINDRICAL_SURFACE('',#1150,2.75);
#78=FACE_OUTER_BOUND('',#130,.T.);
#79=FACE_OUTER_BOUND('',#131,.T.);
#80=FACE_OUTER_BOUND('',#132,.T.);
#81=FACE_OUTER_BOUND('',#133,.T.);
#82=FACE_OUTER_BOUND('',#134,.T.);
#83=FACE_OUTER_BOUND('',#135,.T.);
#84=FACE_OUTER_BOUND('',#136,.T.);
#85=FACE_OUTER_BOUND('',#137,.T.);
#86=FACE_OUTER_BOUND('',#138,.T.);
#87=FACE_OUTER_BOUND('',#140,.T.);
#88=FACE_OUTER_BOUND('',#141,.T.);
#89=FACE_OUTER_BOUND('',#142,.T.);
#90=FACE_OUTER_BOUND('',#143,.T.);
#91=FACE_OUTER_BOUND('',#144,.T.);
#92=FACE_OUTER_BOUND('',#145,.T.);
#93=FACE_OUTER_BOUND('',#146,.T.);
#94=FACE_OUTER_BOUND('',#147,.T.);
#95=FACE_OUTER_BOUND('',#148,.T.);
#96=FACE_OUTER_BOUND('',#149,.T.);
#97=FACE_OUTER_BOUND('',#150,.T.);
#98=FACE_OUTER_BOUND('',#151,.T.);
#99=FACE_OUTER_BOUND('',#152,.T.);
#100=FACE_OUTER_BOUND('',#153,.T.);
#101=FACE_OUTER_BOUND('',#154,.T.);
#102=FACE_OUTER_BOUND('',#155,.T.);
#103=FACE_OUTER_BOUND('',#156,.T.);
#104=FACE_OUTER_BOUND('',#157,.T.);
#105=FACE_OUTER_BOUND('',#158,.T.);
#106=FACE_OUTER_BOUND('',#159,.T.);
#107=FACE_OUTER_BOUND('',#160,.T.);
#108=FACE_OUTER_BOUND('',#161,.T.);
#109=FACE_OUTER_BOUND('',#162,.T.);
#110=FACE_OUTER_BOUND('',#163,.T.);
#111=FACE_OUTER_BOUND('',#165,.T.);
#112=FACE_OUTER_BOUND('',#167,.T.);
#113=FACE_OUTER_BOUND('',#169,.T.);
#114=FACE_OUTER_BOUND('',#170,.T.);
#115=FACE_OUTER_BOUND('',#171,.T.);
#116=FACE_OUTER_BOUND('',#172,.T.);
#117=FACE_OUTER_BOUND('',#174,.T.);
#118=FACE_OUTER_BOUND('',#175,.T.);
#119=FACE_OUTER_BOUND('',#176,.T.);
#120=FACE_OUTER_BOUND('',#177,.T.);
#121=FACE_OUTER_BOUND('',#178,.T.);
#122=FACE_OUTER_BOUND('',#179,.T.);
#123=FACE_OUTER_BOUND('',#181,.T.);
#124=FACE_OUTER_BOUND('',#182,.T.);
#125=FACE_OUTER_BOUND('',#183,.T.);
#126=FACE_OUTER_BOUND('',#184,.T.);
#127=FACE_OUTER_BOUND('',#185,.T.);
#128=FACE_OUTER_BOUND('',#186,.T.);
#129=FACE_OUTER_BOUND('',#187,.T.);
#130=EDGE_LOOP('',(#662,#663,#664,#665));
#131=EDGE_LOOP('',(#666,#667,#668,#669));
#132=EDGE_LOOP('',(#670,#671,#672,#673));
#133=EDGE_LOOP('',(#674,#675,#676,#677,#678,#679,#680,#681));
#134=EDGE_LOOP('',(#682,#683,#684,#685));
#135=EDGE_LOOP('',(#686,#687,#688,#689));
#136=EDGE_LOOP('',(#690,#691,#692,#693,#694,#695,#696,#697));
#137=EDGE_LOOP('',(#698,#699,#700,#701));
#138=EDGE_LOOP('',(#702,#703,#704,#705));
#139=EDGE_LOOP('',(#706));
#140=EDGE_LOOP('',(#707,#708,#709,#710));
#141=EDGE_LOOP('',(#711,#712,#713,#714));
#142=EDGE_LOOP('',(#715,#716,#717,#718));
#143=EDGE_LOOP('',(#719,#720,#721,#722));
#144=EDGE_LOOP('',(#723,#724,#725,#726));
#145=EDGE_LOOP('',(#727,#728,#729,#730));
#146=EDGE_LOOP('',(#731,#732,#733,#734));
#147=EDGE_LOOP('',(#735,#736,#737,#738));
#148=EDGE_LOOP('',(#739,#740,#741,#742));
#149=EDGE_LOOP('',(#743,#744,#745,#746));
#150=EDGE_LOOP('',(#747,#748,#749,#750));
#151=EDGE_LOOP('',(#751,#752,#753,#754));
#152=EDGE_LOOP('',(#755,#756,#757,#758));
#153=EDGE_LOOP('',(#759,#760,#761,#762));
#154=EDGE_LOOP('',(#763,#764,#765,#766));
#155=EDGE_LOOP('',(#767,#768,#769,#770));
#156=EDGE_LOOP('',(#771,#772,#773,#774));
#157=EDGE_LOOP('',(#775,#776,#777,#778));
#158=EDGE_LOOP('',(#779,#780,#781,#782));
#159=EDGE_LOOP('',(#783,#784,#785,#786));
#160=EDGE_LOOP('',(#787,#788,#789,#790));
#161=EDGE_LOOP('',(#791,#792,#793,#794));
#162=EDGE_LOOP('',(#795,#796,#797,#798));
#163=EDGE_LOOP('',(#799,#800,#801,#802));
#164=EDGE_LOOP('',(#803));
#165=EDGE_LOOP('',(#804,#805,#806,#807,#808,#809,#810,#811,#812,#813,#814));
#166=EDGE_LOOP('',(#815,#816,#817,#818,#819,#820,#821,#822,#823,#824,#825,
#826,#827,#828,#829,#830,#831,#832,#833,#834));
#167=EDGE_LOOP('',(#835,#836,#837,#838,#839,#840,#841,#842,#843,#844,#845));
#168=EDGE_LOOP('',(#846,#847,#848,#849,#850,#851,#852,#853,#854,#855,#856,
#857,#858,#859,#860,#861,#862,#863,#864,#865));
#169=EDGE_LOOP('',(#866,#867,#868,#869));
#170=EDGE_LOOP('',(#870,#871,#872,#873));
#171=EDGE_LOOP('',(#874,#875,#876,#877));
#172=EDGE_LOOP('',(#878,#879,#880,#881));
#173=EDGE_LOOP('',(#882));
#174=EDGE_LOOP('',(#883,#884,#885,#886));
#175=EDGE_LOOP('',(#887,#888,#889,#890));
#176=EDGE_LOOP('',(#891,#892,#893,#894));
#177=EDGE_LOOP('',(#895,#896,#897,#898));
#178=EDGE_LOOP('',(#899,#900,#901,#902));
#179=EDGE_LOOP('',(#903,#904,#905,#906));
#180=EDGE_LOOP('',(#907));
#181=EDGE_LOOP('',(#908,#909,#910,#911));
#182=EDGE_LOOP('',(#912,#913,#914,#915));
#183=EDGE_LOOP('',(#916,#917,#918,#919));
#184=EDGE_LOOP('',(#920,#921,#922,#923,#924,#925,#926,#927,#928,#929,#930,
#931,#932,#933,#934,#935,#936));
#185=EDGE_LOOP('',(#937,#938,#939,#940,#941,#942,#943,#944,#945,#946,#947,
#948,#949,#950,#951,#952,#953));
#186=EDGE_LOOP('',(#954,#955,#956,#957));
#187=EDGE_LOOP('',(#958,#959,#960,#961));
#188=LINE('',#1449,#300);
#189=LINE('',#1451,#301);
#190=LINE('',#1453,#302);
#191=LINE('',#1454,#303);
#192=LINE('',#1457,#304);
#193=LINE('',#1459,#305);
#194=LINE('',#1460,#306);
#195=LINE('',#1466,#307);
#196=LINE('',#1469,#308);
#197=LINE('',#1471,#309);
#198=LINE('',#1473,#310);
#199=LINE('',#1475,#311);
#200=LINE('',#1477,#312);
#201=LINE('',#1479,#313);
#202=LINE('',#1480,#314);
#203=LINE('',#1483,#315);
#204=LINE('',#1485,#316);
#205=LINE('',#1486,#317);
#206=LINE('',#1489,#318);
#207=LINE('',#1491,#319);
#208=LINE('',#1492,#320);
#209=LINE('',#1495,#321);
#210=LINE('',#1497,#322);
#211=LINE('',#1498,#323);
#212=LINE('',#1500,#324);
#213=LINE('',#1502,#325);
#214=LINE('',#1503,#326);
#215=LINE('',#1508,#327);
#216=LINE('',#1512,#328);
#217=LINE('',#1514,#329);
#218=LINE('',#1515,#330);
#219=LINE('',#1522,#331);
#220=LINE('',#1526,#332);
#221=LINE('',#1528,#333);
#222=LINE('',#1529,#334);
#223=LINE('',#1534,#335);
#224=LINE('',#1539,#336);
#225=LINE('',#1541,#337);
#226=LINE('',#1543,#338);
#227=LINE('',#1544,#339);
#228=LINE('',#1549,#340);
#229=LINE('',#1553,#341);
#230=LINE('',#1555,#342);
#231=LINE('',#1556,#343);
#232=LINE('',#1561,#344);
#233=LINE('',#1565,#345);
#234=LINE('',#1567,#346);
#235=LINE('',#1568,#347);
#236=LINE('',#1573,#348);
#237=LINE('',#1579,#349);
#238=LINE('',#1585,#350);
#239=LINE('',#1589,#351);
#240=LINE('',#1591,#352);
#241=LINE('',#1592,#353);
#242=LINE('',#1597,#354);
#243=LINE('',#1603,#355);
#244=LINE('',#1609,#356);
#245=LINE('',#1613,#357);
#246=LINE('',#1615,#358);
#247=LINE('',#1616,#359);
#248=LINE('',#1621,#360);
#249=LINE('',#1627,#361);
#250=LINE('',#1633,#362);
#251=LINE('',#1637,#363);
#252=LINE('',#1639,#364);
#253=LINE('',#1640,#365);
#254=LINE('',#1645,#366);
#255=LINE('',#1649,#367);
#256=LINE('',#1651,#368);
#257=LINE('',#1652,#369);
#258=LINE('',#1657,#370);
#259=LINE('',#1658,#371);
#260=LINE('',#1665,#372);
#261=LINE('',#1667,#373);
#262=LINE('',#1668,#374);
#263=LINE('',#1671,#375);
#264=LINE('',#1673,#376);
#265=LINE('',#1674,#377);
#266=LINE('',#1677,#378);
#267=LINE('',#1679,#379);
#268=LINE('',#1680,#380);
#269=LINE('',#1683,#381);
#270=LINE('',#1685,#382);
#271=LINE('',#1686,#383);
#272=LINE('',#1691,#384);
#273=LINE('',#1693,#385);
#274=LINE('',#1694,#386);
#275=LINE('',#1697,#387);
#276=LINE('',#1699,#388);
#277=LINE('',#1700,#389);
#278=LINE('',#1703,#390);
#279=LINE('',#1705,#391);
#280=LINE('',#1706,#392);
#281=LINE('',#1709,#393);
#282=LINE('',#1711,#394);
#283=LINE('',#1712,#395);
#284=LINE('',#1715,#396);
#285=LINE('',#1717,#397);
#286=LINE('',#1718,#398);
#287=LINE('',#1721,#399);
#288=LINE('',#1723,#400);
#289=LINE('',#1724,#401);
#290=LINE('',#1729,#402);
#291=LINE('',#1731,#403);
#292=LINE('',#1732,#404);
#293=LINE('',#1735,#405);
#294=LINE('',#1737,#406);
#295=LINE('',#1738,#407);
#296=LINE('',#1740,#408);
#297=LINE('',#1741,#409);
#298=LINE('',#1745,#410);
#299=LINE('',#1747,#411);
#300=VECTOR('',#1155,1000.);
#301=VECTOR('',#1156,1000.);
#302=VECTOR('',#1157,1000.);
#303=VECTOR('',#1158,1000.);
#304=VECTOR('',#1161,1000.);
#305=VECTOR('',#1162,1000.);
#306=VECTOR('',#1163,1000.);
#307=VECTOR('',#1168,1000.);
#308=VECTOR('',#1171,1000.);
#309=VECTOR('',#1174,1000.);
#310=VECTOR('',#1175,1000.);
#311=VECTOR('',#1176,1000.);
#312=VECTOR('',#1177,1000.);
#313=VECTOR('',#1178,1000.);
#314=VECTOR('',#1179,1000.);
#315=VECTOR('',#1182,1000.);
#316=VECTOR('',#1183,1000.);
#317=VECTOR('',#1184,1000.);
#318=VECTOR('',#1187,1000.);
#319=VECTOR('',#1188,1000.);
#320=VECTOR('',#1189,1000.);
#321=VECTOR('',#1192,1000.);
#322=VECTOR('',#1193,1000.);
#323=VECTOR('',#1194,1000.);
#324=VECTOR('',#1195,1000.);
#325=VECTOR('',#1196,1000.);
#326=VECTOR('',#1197,1000.);
#327=VECTOR('',#1202,1000.);
#328=VECTOR('',#1207,1000.);
#329=VECTOR('',#1208,1000.);
#330=VECTOR('',#1209,1000.);
#331=VECTOR('',#1216,1000.);
#332=VECTOR('',#1221,999.999999999999);
#333=VECTOR('',#1222,1000.);
#334=VECTOR('',#1223,999.999999999999);
#335=VECTOR('',#1228,1000.);
#336=VECTOR('',#1233,1000.);
#337=VECTOR('',#1234,1000.);
#338=VECTOR('',#1235,1000.);
#339=VECTOR('',#1236,1000.);
#340=VECTOR('',#1241,1000.);
#341=VECTOR('',#1246,1000.);
#342=VECTOR('',#1247,1000.);
#343=VECTOR('',#1248,1000.);
#344=VECTOR('',#1253,1000.);
#345=VECTOR('',#1258,1000.);
#346=VECTOR('',#1259,1000.);
#347=VECTOR('',#1260,1000.);
#348=VECTOR('',#1265,1000.);
#349=VECTOR('',#1272,1000.);
#350=VECTOR('',#1279,1000.);
#351=VECTOR('',#1284,1000.);
#352=VECTOR('',#1285,1000.);
#353=VECTOR('',#1286,1000.);
#354=VECTOR('',#1291,1000.);
#355=VECTOR('',#1298,1000.);
#356=VECTOR('',#1305,1000.);
#357=VECTOR('',#1310,1000.);
#358=VECTOR('',#1311,1000.);
#359=VECTOR('',#1312,1000.);
#360=VECTOR('',#1317,1000.);
#361=VECTOR('',#1324,1000.);
#362=VECTOR('',#1331,1000.);
#363=VECTOR('',#1336,1000.);
#364=VECTOR('',#1337,1000.);
#365=VECTOR('',#1338,1000.);
#366=VECTOR('',#1343,1000.);
#367=VECTOR('',#1348,1000.);
#368=VECTOR('',#1349,1000.);
#369=VECTOR('',#1350,1000.);
#370=VECTOR('',#1359,1000.);
#371=VECTOR('',#1360,1000.);
#372=VECTOR('',#1369,1000.);
#373=VECTOR('',#1370,1000.);
#374=VECTOR('',#1371,1000.);
#375=VECTOR('',#1374,1000.);
#376=VECTOR('',#1375,1000.);
#377=VECTOR('',#1376,1000.);
#378=VECTOR('',#1379,1000.);
#379=VECTOR('',#1380,1000.);
#380=VECTOR('',#1381,1000.);
#381=VECTOR('',#1384,1000.);
#382=VECTOR('',#1385,1000.);
#383=VECTOR('',#1386,1000.);
#384=VECTOR('',#1391,1000.);
#385=VECTOR('',#1392,1000.);
#386=VECTOR('',#1393,1000.);
#387=VECTOR('',#1396,1000.);
#388=VECTOR('',#1397,1000.);
#389=VECTOR('',#1398,1000.);
#390=VECTOR('',#1401,999.999999999999);
#391=VECTOR('',#1402,1000.);
#392=VECTOR('',#1403,999.999999999999);
#393=VECTOR('',#1406,1000.);
#394=VECTOR('',#1407,1000.);
#395=VECTOR('',#1408,1000.);
#396=VECTOR('',#1411,1000.);
#397=VECTOR('',#1412,1000.);
#398=VECTOR('',#1413,1000.);
#399=VECTOR('',#1416,1000.);
#400=VECTOR('',#1417,1000.);
#401=VECTOR('',#1418,1000.);
#402=VECTOR('',#1423,1000.);
#403=VECTOR('',#1424,1000.);
#404=VECTOR('',#1425,1000.);
#405=VECTOR('',#1428,1000.);
#406=VECTOR('',#1429,1000.);
#407=VECTOR('',#1430,1000.);
#408=VECTOR('',#1433,1000.);
#409=VECTOR('',#1434,1000.);
#410=VECTOR('',#1441,2.75);
#411=VECTOR('',#1444,2.75);
#412=VERTEX_POINT('',#1447);
#413=VERTEX_POINT('',#1448);
#414=VERTEX_POINT('',#1450);
#415=VERTEX_POINT('',#1452);
#416=VERTEX_POINT('',#1456);
#417=VERTEX_POINT('',#1458);
#418=VERTEX_POINT('',#1462);
#419=VERTEX_POINT('',#1463);
#420=VERTEX_POINT('',#1465);
#421=VERTEX_POINT('',#1467);
#422=VERTEX_POINT('',#1472);
#423=VERTEX_POINT('',#1474);
#424=VERTEX_POINT('',#1476);
#425=VERTEX_POINT('',#1478);
#426=VERTEX_POINT('',#1482);
#427=VERTEX_POINT('',#1484);
#428=VERTEX_POINT('',#1488);
#429=VERTEX_POINT('',#1490);
#430=VERTEX_POINT('',#1494);
#431=VERTEX_POINT('',#1496);
#432=VERTEX_POINT('',#1499);
#433=VERTEX_POINT('',#1501);
#434=VERTEX_POINT('',#1505);
#435=VERTEX_POINT('',#1507);
#436=VERTEX_POINT('',#1511);
#437=VERTEX_POINT('',#1513);
#438=VERTEX_POINT('',#1516);
#439=VERTEX_POINT('',#1519);
#440=VERTEX_POINT('',#1521);
#441=VERTEX_POINT('',#1525);
#442=VERTEX_POINT('',#1527);
#443=VERTEX_POINT('',#1531);
#444=VERTEX_POINT('',#1533);
#445=VERTEX_POINT('',#1537);
#446=VERTEX_POINT('',#1538);
#447=VERTEX_POINT('',#1540);
#448=VERTEX_POINT('',#1542);
#449=VERTEX_POINT('',#1546);
#450=VERTEX_POINT('',#1548);
#451=VERTEX_POINT('',#1552);
#452=VERTEX_POINT('',#1554);
#453=VERTEX_POINT('',#1558);
#454=VERTEX_POINT('',#1560);
#455=VERTEX_POINT('',#1564);
#456=VERTEX_POINT('',#1566);
#457=VERTEX_POINT('',#1570);
#458=VERTEX_POINT('',#1572);
#459=VERTEX_POINT('',#1576);
#460=VERTEX_POINT('',#1578);
#461=VERTEX_POINT('',#1582);
#462=VERTEX_POINT('',#1584);
#463=VERTEX_POINT('',#1588);
#464=VERTEX_POINT('',#1590);
#465=VERTEX_POINT('',#1594);
#466=VERTEX_POINT('',#1596);
#467=VERTEX_POINT('',#1600);
#468=VERTEX_POINT('',#1602);
#469=VERTEX_POINT('',#1606);
#470=VERTEX_POINT('',#1608);
#471=VERTEX_POINT('',#1612);
#472=VERTEX_POINT('',#1614);
#473=VERTEX_POINT('',#1618);
#474=VERTEX_POINT('',#1620);
#475=VERTEX_POINT('',#1624);
#476=VERTEX_POINT('',#1626);
#477=VERTEX_POINT('',#1630);
#478=VERTEX_POINT('',#1632);
#479=VERTEX_POINT('',#1636);
#480=VERTEX_POINT('',#1638);
#481=VERTEX_POINT('',#1642);
#482=VERTEX_POINT('',#1644);
#483=VERTEX_POINT('',#1648);
#484=VERTEX_POINT('',#1650);
#485=VERTEX_POINT('',#1659);
#486=VERTEX_POINT('',#1664);
#487=VERTEX_POINT('',#1666);
#488=VERTEX_POINT('',#1670);
#489=VERTEX_POINT('',#1672);
#490=VERTEX_POINT('',#1676);
#491=VERTEX_POINT('',#1678);
#492=VERTEX_POINT('',#1682);
#493=VERTEX_POINT('',#1684);
#494=VERTEX_POINT('',#1687);
#495=VERTEX_POINT('',#1690);
#496=VERTEX_POINT('',#1692);
#497=VERTEX_POINT('',#1696);
#498=VERTEX_POINT('',#1698);
#499=VERTEX_POINT('',#1702);
#500=VERTEX_POINT('',#1704);
#501=VERTEX_POINT('',#1708);
#502=VERTEX_POINT('',#1710);
#503=VERTEX_POINT('',#1714);
#504=VERTEX_POINT('',#1716);
#505=VERTEX_POINT('',#1720);
#506=VERTEX_POINT('',#1722);
#507=VERTEX_POINT('',#1725);
#508=VERTEX_POINT('',#1728);
#509=VERTEX_POINT('',#1730);
#510=VERTEX_POINT('',#1734);
#511=VERTEX_POINT('',#1736);
#512=EDGE_CURVE('',#412,#413,#188,.T.);
#513=EDGE_CURVE('',#413,#414,#189,.T.);
#514=EDGE_CURVE('',#414,#415,#190,.T.);
#515=EDGE_CURVE('',#412,#415,#191,.T.);
#516=EDGE_CURVE('',#416,#412,#192,.T.);
#517=EDGE_CURVE('',#415,#417,#193,.T.);
#518=EDGE_CURVE('',#416,#417,#194,.T.);
#519=EDGE_CURVE('',#418,#419,#21,.T.);
#520=EDGE_CURVE('',#420,#419,#195,.T.);
#521=EDGE_CURVE('',#421,#420,#22,.T.);
#522=EDGE_CURVE('',#421,#418,#196,.T.);
#523=EDGE_CURVE('',#419,#414,#197,.T.);
#524=EDGE_CURVE('',#413,#422,#198,.T.);
#525=EDGE_CURVE('',#423,#422,#199,.T.);
#526=EDGE_CURVE('',#424,#423,#200,.T.);
#527=EDGE_CURVE('',#425,#424,#201,.T.);
#528=EDGE_CURVE('',#420,#425,#202,.T.);
#529=EDGE_CURVE('',#426,#424,#203,.T.);
#530=EDGE_CURVE('',#427,#426,#204,.T.);
#531=EDGE_CURVE('',#425,#427,#205,.T.);
#532=EDGE_CURVE('',#428,#426,#206,.T.);
#533=EDGE_CURVE('',#429,#428,#207,.T.);
#534=EDGE_CURVE('',#427,#429,#208,.T.);
#535=EDGE_CURVE('',#417,#430,#209,.T.);
#536=EDGE_CURVE('',#431,#430,#210,.T.);
#537=EDGE_CURVE('',#429,#431,#211,.T.);
#538=EDGE_CURVE('',#432,#428,#212,.T.);
#539=EDGE_CURVE('',#432,#433,#213,.T.);
#540=EDGE_CURVE('',#433,#416,#214,.T.);
#541=EDGE_CURVE('',#430,#434,#23,.T.);
#542=EDGE_CURVE('',#435,#434,#215,.T.);
#543=EDGE_CURVE('',#431,#435,#24,.T.);
#544=EDGE_CURVE('',#434,#436,#216,.T.);
#545=EDGE_CURVE('',#437,#436,#217,.T.);
#546=EDGE_CURVE('',#435,#437,#218,.T.);
#547=EDGE_CURVE('',#438,#438,#25,.T.);
#548=EDGE_CURVE('',#439,#436,#26,.T.);
#549=EDGE_CURVE('',#440,#439,#219,.T.);
#550=EDGE_CURVE('',#440,#437,#27,.T.);
#551=EDGE_CURVE('',#439,#441,#220,.T.);
#552=EDGE_CURVE('',#442,#441,#221,.T.);
#553=EDGE_CURVE('',#440,#442,#222,.T.);
#554=EDGE_CURVE('',#443,#441,#28,.T.);
#555=EDGE_CURVE('',#444,#443,#223,.T.);
#556=EDGE_CURVE('',#444,#442,#29,.T.);
#557=EDGE_CURVE('',#445,#446,#224,.T.);
#558=EDGE_CURVE('',#447,#445,#225,.T.);
#559=EDGE_CURVE('',#447,#448,#226,.T.);
#560=EDGE_CURVE('',#448,#446,#227,.T.);
#561=EDGE_CURVE('',#449,#445,#30,.T.);
#562=EDGE_CURVE('',#450,#449,#228,.T.);
#563=EDGE_CURVE('',#450,#447,#31,.T.);
#564=EDGE_CURVE('',#451,#449,#229,.T.);
#565=EDGE_CURVE('',#452,#451,#230,.T.);
#566=EDGE_CURVE('',#452,#450,#231,.T.);
#567=EDGE_CURVE('',#453,#451,#32,.T.);
#568=EDGE_CURVE('',#454,#453,#232,.T.);
#569=EDGE_CURVE('',#454,#452,#33,.T.);
#570=EDGE_CURVE('',#455,#453,#233,.T.);
#571=EDGE_CURVE('',#456,#455,#234,.T.);
#572=EDGE_CURVE('',#456,#454,#235,.T.);
#573=EDGE_CURVE('',#457,#455,#34,.T.);
#574=EDGE_CURVE('',#458,#457,#236,.T.);
#575=EDGE_CURVE('',#458,#456,#35,.T.);
#576=EDGE_CURVE('',#457,#459,#36,.T.);
#577=EDGE_CURVE('',#460,#459,#237,.T.);
#578=EDGE_CURVE('',#458,#460,#37,.T.);
#579=EDGE_CURVE('',#459,#461,#38,.T.);
#580=EDGE_CURVE('',#462,#461,#238,.T.);
#581=EDGE_CURVE('',#460,#462,#39,.T.);
#582=EDGE_CURVE('',#463,#461,#239,.T.);
#583=EDGE_CURVE('',#464,#463,#240,.T.);
#584=EDGE_CURVE('',#464,#462,#241,.T.);
#585=EDGE_CURVE('',#463,#465,#40,.T.);
#586=EDGE_CURVE('',#466,#465,#242,.T.);
#587=EDGE_CURVE('',#464,#466,#41,.T.);
#588=EDGE_CURVE('',#467,#465,#42,.T.);
#589=EDGE_CURVE('',#468,#467,#243,.T.);
#590=EDGE_CURVE('',#468,#466,#43,.T.);
#591=EDGE_CURVE('',#467,#469,#44,.T.);
#592=EDGE_CURVE('',#470,#469,#244,.T.);
#593=EDGE_CURVE('',#468,#470,#45,.T.);
#594=EDGE_CURVE('',#471,#469,#245,.T.);
#595=EDGE_CURVE('',#472,#471,#246,.T.);
#596=EDGE_CURVE('',#472,#470,#247,.T.);
#597=EDGE_CURVE('',#471,#473,#46,.T.);
#598=EDGE_CURVE('',#474,#473,#248,.T.);
#599=EDGE_CURVE('',#472,#474,#47,.T.);
#600=EDGE_CURVE('',#473,#475,#48,.T.);
#601=EDGE_CURVE('',#476,#475,#249,.T.);
#602=EDGE_CURVE('',#474,#476,#49,.T.);
#603=EDGE_CURVE('',#477,#475,#50,.T.);
#604=EDGE_CURVE('',#478,#477,#250,.T.);
#605=EDGE_CURVE('',#478,#476,#51,.T.);
#606=EDGE_CURVE('',#479,#477,#251,.T.);
#607=EDGE_CURVE('',#480,#479,#252,.T.);
#608=EDGE_CURVE('',#480,#478,#253,.T.);
#609=EDGE_CURVE('',#481,#479,#52,.T.);
#610=EDGE_CURVE('',#482,#481,#254,.T.);
#611=EDGE_CURVE('',#482,#480,#53,.T.);
#612=EDGE_CURVE('',#483,#481,#255,.T.);
#613=EDGE_CURVE('',#484,#483,#256,.T.);
#614=EDGE_CURVE('',#484,#482,#257,.T.);
#615=EDGE_CURVE('',#446,#483,#54,.T.);
#616=EDGE_CURVE('',#448,#484,#55,.T.);
#617=EDGE_CURVE('',#443,#418,#258,.T.);
#618=EDGE_CURVE('',#444,#421,#259,.T.);
#619=EDGE_CURVE('',#485,#485,#56,.T.);
#620=EDGE_CURVE('',#422,#486,#260,.T.);
#621=EDGE_CURVE('',#487,#486,#261,.T.);
#622=EDGE_CURVE('',#423,#487,#262,.T.);
#623=EDGE_CURVE('',#486,#488,#263,.T.);
#624=EDGE_CURVE('',#489,#488,#264,.T.);
#625=EDGE_CURVE('',#487,#489,#265,.T.);
#626=EDGE_CURVE('',#488,#490,#266,.T.);
#627=EDGE_CURVE('',#491,#490,#267,.T.);
#628=EDGE_CURVE('',#489,#491,#268,.T.);
#629=EDGE_CURVE('',#490,#492,#269,.T.);
#630=EDGE_CURVE('',#493,#492,#270,.T.);
#631=EDGE_CURVE('',#491,#493,#271,.T.);
#632=EDGE_CURVE('',#494,#494,#57,.F.);
#633=EDGE_CURVE('',#492,#495,#272,.T.);
#634=EDGE_CURVE('',#496,#495,#273,.T.);
#635=EDGE_CURVE('',#493,#496,#274,.T.);
#636=EDGE_CURVE('',#495,#497,#275,.T.);
#637=EDGE_CURVE('',#498,#497,#276,.T.);
#638=EDGE_CURVE('',#496,#498,#277,.T.);
#639=EDGE_CURVE('',#497,#499,#278,.T.);
#640=EDGE_CURVE('',#500,#499,#279,.T.);
#641=EDGE_CURVE('',#498,#500,#280,.T.);
#642=EDGE_CURVE('',#499,#501,#281,.T.);
#643=EDGE_CURVE('',#502,#501,#282,.T.);
#644=EDGE_CURVE('',#500,#502,#283,.T.);
#645=EDGE_CURVE('',#501,#503,#284,.T.);
#646=EDGE_CURVE('',#504,#503,#285,.T.);
#647=EDGE_CURVE('',#502,#504,#286,.T.);
#648=EDGE_CURVE('',#503,#505,#287,.T.);
#649=EDGE_CURVE('',#506,#505,#288,.T.);
#650=EDGE_CURVE('',#504,#506,#289,.T.);
#651=EDGE_CURVE('',#507,#507,#58,.F.);
#652=EDGE_CURVE('',#505,#508,#290,.T.);
#653=EDGE_CURVE('',#509,#508,#291,.T.);
#654=EDGE_CURVE('',#506,#509,#292,.T.);
#655=EDGE_CURVE('',#508,#510,#293,.T.);
#656=EDGE_CURVE('',#511,#510,#294,.T.);
#657=EDGE_CURVE('',#509,#511,#295,.T.);
#658=EDGE_CURVE('',#510,#433,#296,.T.);
#659=EDGE_CURVE('',#511,#432,#297,.T.);
#660=EDGE_CURVE('',#507,#438,#298,.T.);
#661=EDGE_CURVE('',#485,#494,#299,.T.);
#662=ORIENTED_EDGE('',*,*,#512,.T.);
#663=ORIENTED_EDGE('',*,*,#513,.T.);
#664=ORIENTED_EDGE('',*,*,#514,.T.);
#665=ORIENTED_EDGE('',*,*,#515,.F.);
#666=ORIENTED_EDGE('',*,*,#516,.T.);
#667=ORIENTED_EDGE('',*,*,#515,.T.);
#668=ORIENTED_EDGE('',*,*,#517,.T.);
#669=ORIENTED_EDGE('',*,*,#518,.F.);
#670=ORIENTED_EDGE('',*,*,#519,.T.);
#671=ORIENTED_EDGE('',*,*,#520,.F.);
#672=ORIENTED_EDGE('',*,*,#521,.F.);
#673=ORIENTED_EDGE('',*,*,#522,.T.);
#674=ORIENTED_EDGE('',*,*,#523,.T.);
#675=ORIENTED_EDGE('',*,*,#513,.F.);
#676=ORIENTED_EDGE('',*,*,#524,.T.);
#677=ORIENTED_EDGE('',*,*,#525,.F.);
#678=ORIENTED_EDGE('',*,*,#526,.F.);
#679=ORIENTED_EDGE('',*,*,#527,.F.);
#680=ORIENTED_EDGE('',*,*,#528,.F.);
#681=ORIENTED_EDGE('',*,*,#520,.T.);
#682=ORIENTED_EDGE('',*,*,#527,.T.);
#683=ORIENTED_EDGE('',*,*,#529,.F.);
#684=ORIENTED_EDGE('',*,*,#530,.F.);
#685=ORIENTED_EDGE('',*,*,#531,.F.);
#686=ORIENTED_EDGE('',*,*,#530,.T.);
#687=ORIENTED_EDGE('',*,*,#532,.F.);
#688=ORIENTED_EDGE('',*,*,#533,.F.);
#689=ORIENTED_EDGE('',*,*,#534,.F.);
#690=ORIENTED_EDGE('',*,*,#535,.T.);
#691=ORIENTED_EDGE('',*,*,#536,.F.);
#692=ORIENTED_EDGE('',*,*,#537,.F.);
#693=ORIENTED_EDGE('',*,*,#533,.T.);
#694=ORIENTED_EDGE('',*,*,#538,.F.);
#695=ORIENTED_EDGE('',*,*,#539,.T.);
#696=ORIENTED_EDGE('',*,*,#540,.T.);
#697=ORIENTED_EDGE('',*,*,#518,.T.);
#698=ORIENTED_EDGE('',*,*,#541,.T.);
#699=ORIENTED_EDGE('',*,*,#542,.F.);
#700=ORIENTED_EDGE('',*,*,#543,.F.);
#701=ORIENTED_EDGE('',*,*,#536,.T.);
#702=ORIENTED_EDGE('',*,*,#544,.T.);
#703=ORIENTED_EDGE('',*,*,#545,.F.);
#704=ORIENTED_EDGE('',*,*,#546,.F.);
#705=ORIENTED_EDGE('',*,*,#542,.T.);
#706=ORIENTED_EDGE('',*,*,#547,.F.);
#707=ORIENTED_EDGE('',*,*,#548,.F.);
#708=ORIENTED_EDGE('',*,*,#549,.F.);
#709=ORIENTED_EDGE('',*,*,#550,.T.);
#710=ORIENTED_EDGE('',*,*,#545,.T.);
#711=ORIENTED_EDGE('',*,*,#551,.T.);
#712=ORIENTED_EDGE('',*,*,#552,.F.);
#713=ORIENTED_EDGE('',*,*,#553,.F.);
#714=ORIENTED_EDGE('',*,*,#549,.T.);
#715=ORIENTED_EDGE('',*,*,#554,.F.);
#716=ORIENTED_EDGE('',*,*,#555,.F.);
#717=ORIENTED_EDGE('',*,*,#556,.T.);
#718=ORIENTED_EDGE('',*,*,#552,.T.);
#719=ORIENTED_EDGE('',*,*,#557,.F.);
#720=ORIENTED_EDGE('',*,*,#558,.F.);
#721=ORIENTED_EDGE('',*,*,#559,.T.);
#722=ORIENTED_EDGE('',*,*,#560,.T.);
#723=ORIENTED_EDGE('',*,*,#561,.F.);
#724=ORIENTED_EDGE('',*,*,#562,.F.);
#725=ORIENTED_EDGE('',*,*,#563,.T.);
#726=ORIENTED_EDGE('',*,*,#558,.T.);
#727=ORIENTED_EDGE('',*,*,#564,.F.);
#728=ORIENTED_EDGE('',*,*,#565,.F.);
#729=ORIENTED_EDGE('',*,*,#566,.T.);
#730=ORIENTED_EDGE('',*,*,#562,.T.);
#731=ORIENTED_EDGE('',*,*,#567,.F.);
#732=ORIENTED_EDGE('',*,*,#568,.F.);
#733=ORIENTED_EDGE('',*,*,#569,.T.);
#734=ORIENTED_EDGE('',*,*,#565,.T.);
#735=ORIENTED_EDGE('',*,*,#570,.F.);
#736=ORIENTED_EDGE('',*,*,#571,.F.);
#737=ORIENTED_EDGE('',*,*,#572,.T.);
#738=ORIENTED_EDGE('',*,*,#568,.T.);
#739=ORIENTED_EDGE('',*,*,#573,.F.);
#740=ORIENTED_EDGE('',*,*,#574,.F.);
#741=ORIENTED_EDGE('',*,*,#575,.T.);
#742=ORIENTED_EDGE('',*,*,#571,.T.);
#743=ORIENTED_EDGE('',*,*,#576,.T.);
#744=ORIENTED_EDGE('',*,*,#577,.F.);
#745=ORIENTED_EDGE('',*,*,#578,.F.);
#746=ORIENTED_EDGE('',*,*,#574,.T.);
#747=ORIENTED_EDGE('',*,*,#579,.T.);
#748=ORIENTED_EDGE('',*,*,#580,.F.);
#749=ORIENTED_EDGE('',*,*,#581,.F.);
#750=ORIENTED_EDGE('',*,*,#577,.T.);
#751=ORIENTED_EDGE('',*,*,#582,.F.);
#752=ORIENTED_EDGE('',*,*,#583,.F.);
#753=ORIENTED_EDGE('',*,*,#584,.T.);
#754=ORIENTED_EDGE('',*,*,#580,.T.);
#755=ORIENTED_EDGE('',*,*,#585,.T.);
#756=ORIENTED_EDGE('',*,*,#586,.F.);
#757=ORIENTED_EDGE('',*,*,#587,.F.);
#758=ORIENTED_EDGE('',*,*,#583,.T.);
#759=ORIENTED_EDGE('',*,*,#588,.F.);
#760=ORIENTED_EDGE('',*,*,#589,.F.);
#761=ORIENTED_EDGE('',*,*,#590,.T.);
#762=ORIENTED_EDGE('',*,*,#586,.T.);
#763=ORIENTED_EDGE('',*,*,#591,.T.);
#764=ORIENTED_EDGE('',*,*,#592,.F.);
#765=ORIENTED_EDGE('',*,*,#593,.F.);
#766=ORIENTED_EDGE('',*,*,#589,.T.);
#767=ORIENTED_EDGE('',*,*,#594,.F.);
#768=ORIENTED_EDGE('',*,*,#595,.F.);
#769=ORIENTED_EDGE('',*,*,#596,.T.);
#770=ORIENTED_EDGE('',*,*,#592,.T.);
#771=ORIENTED_EDGE('',*,*,#597,.T.);
#772=ORIENTED_EDGE('',*,*,#598,.F.);
#773=ORIENTED_EDGE('',*,*,#599,.F.);
#774=ORIENTED_EDGE('',*,*,#595,.T.);
#775=ORIENTED_EDGE('',*,*,#600,.T.);
#776=ORIENTED_EDGE('',*,*,#601,.F.);
#777=ORIENTED_EDGE('',*,*,#602,.F.);
#778=ORIENTED_EDGE('',*,*,#598,.T.);
#779=ORIENTED_EDGE('',*,*,#603,.F.);
#780=ORIENTED_EDGE('',*,*,#604,.F.);
#781=ORIENTED_EDGE('',*,*,#605,.T.);
#782=ORIENTED_EDGE('',*,*,#601,.T.);
#783=ORIENTED_EDGE('',*,*,#606,.F.);
#784=ORIENTED_EDGE('',*,*,#607,.F.);
#785=ORIENTED_EDGE('',*,*,#608,.T.);
#786=ORIENTED_EDGE('',*,*,#604,.T.);
#787=ORIENTED_EDGE('',*,*,#609,.F.);
#788=ORIENTED_EDGE('',*,*,#610,.F.);
#789=ORIENTED_EDGE('',*,*,#611,.T.);
#790=ORIENTED_EDGE('',*,*,#607,.T.);
#791=ORIENTED_EDGE('',*,*,#612,.F.);
#792=ORIENTED_EDGE('',*,*,#613,.F.);
#793=ORIENTED_EDGE('',*,*,#614,.T.);
#794=ORIENTED_EDGE('',*,*,#610,.T.);
#795=ORIENTED_EDGE('',*,*,#615,.F.);
#796=ORIENTED_EDGE('',*,*,#560,.F.);
#797=ORIENTED_EDGE('',*,*,#616,.T.);
#798=ORIENTED_EDGE('',*,*,#613,.T.);
#799=ORIENTED_EDGE('',*,*,#617,.T.);
#800=ORIENTED_EDGE('',*,*,#522,.F.);
#801=ORIENTED_EDGE('',*,*,#618,.F.);
#802=ORIENTED_EDGE('',*,*,#555,.T.);
#803=ORIENTED_EDGE('',*,*,#619,.T.);
#804=ORIENTED_EDGE('',*,*,#521,.T.);
#805=ORIENTED_EDGE('',*,*,#528,.T.);
#806=ORIENTED_EDGE('',*,*,#531,.T.);
#807=ORIENTED_EDGE('',*,*,#534,.T.);
#808=ORIENTED_EDGE('',*,*,#537,.T.);
#809=ORIENTED_EDGE('',*,*,#543,.T.);
#810=ORIENTED_EDGE('',*,*,#546,.T.);
#811=ORIENTED_EDGE('',*,*,#550,.F.);
#812=ORIENTED_EDGE('',*,*,#553,.T.);
#813=ORIENTED_EDGE('',*,*,#556,.F.);
#814=ORIENTED_EDGE('',*,*,#618,.T.);
#815=ORIENTED_EDGE('',*,*,#559,.F.);
#816=ORIENTED_EDGE('',*,*,#563,.F.);
#817=ORIENTED_EDGE('',*,*,#566,.F.);
#818=ORIENTED_EDGE('',*,*,#569,.F.);
#819=ORIENTED_EDGE('',*,*,#572,.F.);
#820=ORIENTED_EDGE('',*,*,#575,.F.);
#821=ORIENTED_EDGE('',*,*,#578,.T.);
#822=ORIENTED_EDGE('',*,*,#581,.T.);
#823=ORIENTED_EDGE('',*,*,#584,.F.);
#824=ORIENTED_EDGE('',*,*,#587,.T.);
#825=ORIENTED_EDGE('',*,*,#590,.F.);
#826=ORIENTED_EDGE('',*,*,#593,.T.);
#827=ORIENTED_EDGE('',*,*,#596,.F.);
#828=ORIENTED_EDGE('',*,*,#599,.T.);
#829=ORIENTED_EDGE('',*,*,#602,.T.);
#830=ORIENTED_EDGE('',*,*,#605,.F.);
#831=ORIENTED_EDGE('',*,*,#608,.F.);
#832=ORIENTED_EDGE('',*,*,#611,.F.);
#833=ORIENTED_EDGE('',*,*,#614,.F.);
#834=ORIENTED_EDGE('',*,*,#616,.F.);
#835=ORIENTED_EDGE('',*,*,#519,.F.);
#836=ORIENTED_EDGE('',*,*,#617,.F.);
#837=ORIENTED_EDGE('',*,*,#554,.T.);
#838=ORIENTED_EDGE('',*,*,#551,.F.);
#839=ORIENTED_EDGE('',*,*,#548,.T.);
#840=ORIENTED_EDGE('',*,*,#544,.F.);
#841=ORIENTED_EDGE('',*,*,#541,.F.);
#842=ORIENTED_EDGE('',*,*,#535,.F.);
#843=ORIENTED_EDGE('',*,*,#517,.F.);
#844=ORIENTED_EDGE('',*,*,#514,.F.);
#845=ORIENTED_EDGE('',*,*,#523,.F.);
#846=ORIENTED_EDGE('',*,*,#557,.T.);
#847=ORIENTED_EDGE('',*,*,#615,.T.);
#848=ORIENTED_EDGE('',*,*,#612,.T.);
#849=ORIENTED_EDGE('',*,*,#609,.T.);
#850=ORIENTED_EDGE('',*,*,#606,.T.);
#851=ORIENTED_EDGE('',*,*,#603,.T.);
#852=ORIENTED_EDGE('',*,*,#600,.F.);
#853=ORIENTED_EDGE('',*,*,#597,.F.);
#854=ORIENTED_EDGE('',*,*,#594,.T.);
#855=ORIENTED_EDGE('',*,*,#591,.F.);
#856=ORIENTED_EDGE('',*,*,#588,.T.);
#857=ORIENTED_EDGE('',*,*,#585,.F.);
#858=ORIENTED_EDGE('',*,*,#582,.T.);
#859=ORIENTED_EDGE('',*,*,#579,.F.);
#860=ORIENTED_EDGE('',*,*,#576,.F.);
#861=ORIENTED_EDGE('',*,*,#573,.T.);
#862=ORIENTED_EDGE('',*,*,#570,.T.);
#863=ORIENTED_EDGE('',*,*,#567,.T.);
#864=ORIENTED_EDGE('',*,*,#564,.T.);
#865=ORIENTED_EDGE('',*,*,#561,.T.);
#866=ORIENTED_EDGE('',*,*,#620,.T.);
#867=ORIENTED_EDGE('',*,*,#621,.F.);
#868=ORIENTED_EDGE('',*,*,#622,.F.);
#869=ORIENTED_EDGE('',*,*,#525,.T.);
#870=ORIENTED_EDGE('',*,*,#623,.T.);
#871=ORIENTED_EDGE('',*,*,#624,.F.);
#872=ORIENTED_EDGE('',*,*,#625,.F.);
#873=ORIENTED_EDGE('',*,*,#621,.T.);
#874=ORIENTED_EDGE('',*,*,#626,.T.);
#875=ORIENTED_EDGE('',*,*,#627,.F.);
#876=ORIENTED_EDGE('',*,*,#628,.F.);
#877=ORIENTED_EDGE('',*,*,#624,.T.);
#878=ORIENTED_EDGE('',*,*,#629,.T.);
#879=ORIENTED_EDGE('',*,*,#630,.F.);
#880=ORIENTED_EDGE('',*,*,#631,.F.);
#881=ORIENTED_EDGE('',*,*,#627,.T.);
#882=ORIENTED_EDGE('',*,*,#632,.F.);
#883=ORIENTED_EDGE('',*,*,#633,.T.);
#884=ORIENTED_EDGE('',*,*,#634,.F.);
#885=ORIENTED_EDGE('',*,*,#635,.F.);
#886=ORIENTED_EDGE('',*,*,#630,.T.);
#887=ORIENTED_EDGE('',*,*,#636,.T.);
#888=ORIENTED_EDGE('',*,*,#637,.F.);
#889=ORIENTED_EDGE('',*,*,#638,.F.);
#890=ORIENTED_EDGE('',*,*,#634,.T.);
#891=ORIENTED_EDGE('',*,*,#639,.T.);
#892=ORIENTED_EDGE('',*,*,#640,.F.);
#893=ORIENTED_EDGE('',*,*,#641,.F.);
#894=ORIENTED_EDGE('',*,*,#637,.T.);
#895=ORIENTED_EDGE('',*,*,#642,.T.);
#896=ORIENTED_EDGE('',*,*,#643,.F.);
#897=ORIENTED_EDGE('',*,*,#644,.F.);
#898=ORIENTED_EDGE('',*,*,#640,.T.);
#899=ORIENTED_EDGE('',*,*,#645,.T.);
#900=ORIENTED_EDGE('',*,*,#646,.F.);
#901=ORIENTED_EDGE('',*,*,#647,.F.);
#902=ORIENTED_EDGE('',*,*,#643,.T.);
#903=ORIENTED_EDGE('',*,*,#648,.T.);
#904=ORIENTED_EDGE('',*,*,#649,.F.);
#905=ORIENTED_EDGE('',*,*,#650,.F.);
#906=ORIENTED_EDGE('',*,*,#646,.T.);
#907=ORIENTED_EDGE('',*,*,#651,.F.);
#908=ORIENTED_EDGE('',*,*,#652,.T.);
#909=ORIENTED_EDGE('',*,*,#653,.F.);
#910=ORIENTED_EDGE('',*,*,#654,.F.);
#911=ORIENTED_EDGE('',*,*,#649,.T.);
#912=ORIENTED_EDGE('',*,*,#655,.T.);
#913=ORIENTED_EDGE('',*,*,#656,.F.);
#914=ORIENTED_EDGE('',*,*,#657,.F.);
#915=ORIENTED_EDGE('',*,*,#653,.T.);
#916=ORIENTED_EDGE('',*,*,#658,.T.);
#917=ORIENTED_EDGE('',*,*,#539,.F.);
#918=ORIENTED_EDGE('',*,*,#659,.F.);
#919=ORIENTED_EDGE('',*,*,#656,.T.);
#920=ORIENTED_EDGE('',*,*,#526,.T.);
#921=ORIENTED_EDGE('',*,*,#622,.T.);
#922=ORIENTED_EDGE('',*,*,#625,.T.);
#923=ORIENTED_EDGE('',*,*,#628,.T.);
#924=ORIENTED_EDGE('',*,*,#631,.T.);
#925=ORIENTED_EDGE('',*,*,#635,.T.);
#926=ORIENTED_EDGE('',*,*,#638,.T.);
#927=ORIENTED_EDGE('',*,*,#641,.T.);
#928=ORIENTED_EDGE('',*,*,#644,.T.);
#929=ORIENTED_EDGE('',*,*,#647,.T.);
#930=ORIENTED_EDGE('',*,*,#650,.T.);
#931=ORIENTED_EDGE('',*,*,#654,.T.);
#932=ORIENTED_EDGE('',*,*,#657,.T.);
#933=ORIENTED_EDGE('',*,*,#659,.T.);
#934=ORIENTED_EDGE('',*,*,#538,.T.);
#935=ORIENTED_EDGE('',*,*,#532,.T.);
#936=ORIENTED_EDGE('',*,*,#529,.T.);
#937=ORIENTED_EDGE('',*,*,#524,.F.);
#938=ORIENTED_EDGE('',*,*,#512,.F.);
#939=ORIENTED_EDGE('',*,*,#516,.F.);
#940=ORIENTED_EDGE('',*,*,#540,.F.);
#941=ORIENTED_EDGE('',*,*,#658,.F.);
#942=ORIENTED_EDGE('',*,*,#655,.F.);
#943=ORIENTED_EDGE('',*,*,#652,.F.);
#944=ORIENTED_EDGE('',*,*,#648,.F.);
#945=ORIENTED_EDGE('',*,*,#645,.F.);
#946=ORIENTED_EDGE('',*,*,#642,.F.);
#947=ORIENTED_EDGE('',*,*,#639,.F.);
#948=ORIENTED_EDGE('',*,*,#636,.F.);
#949=ORIENTED_EDGE('',*,*,#633,.F.);
#950=ORIENTED_EDGE('',*,*,#629,.F.);
#951=ORIENTED_EDGE('',*,*,#626,.F.);
#952=ORIENTED_EDGE('',*,*,#623,.F.);
#953=ORIENTED_EDGE('',*,*,#620,.F.);
#954=ORIENTED_EDGE('',*,*,#651,.T.);
#955=ORIENTED_EDGE('',*,*,#660,.T.);
#956=ORIENTED_EDGE('',*,*,#547,.T.);
#957=ORIENTED_EDGE('',*,*,#660,.F.);
#958=ORIENTED_EDGE('',*,*,#619,.F.);
#959=ORIENTED_EDGE('',*,*,#661,.T.);
#960=ORIENTED_EDGE('',*,*,#632,.T.);
#961=ORIENTED_EDGE('',*,*,#661,.F.);
#962=PLANE('',#1061);
#963=PLANE('',#1062);
#964=PLANE('',#1066);
#965=PLANE('',#1067);
#966=PLANE('',#1068);
#967=PLANE('',#1069);
#968=PLANE('',#1073);
#969=PLANE('',#1078);
#970=PLANE('',#1082);
#971=PLANE('',#1086);
#972=PLANE('',#1090);
#973=PLANE('',#1100);
#974=PLANE('',#1110);
#975=PLANE('',#1120);
#976=PLANE('',#1124);
#977=PLANE('',#1128);
#978=PLANE('',#1130);
#979=PLANE('',#1131);
#980=PLANE('',#1132);
#981=PLANE('',#1133);
#982=PLANE('',#1134);
#983=PLANE('',#1135);
#984=PLANE('',#1137);
#985=PLANE('',#1138);
#986=PLANE('',#1139);
#987=PLANE('',#1140);
#988=PLANE('',#1141);
#989=PLANE('',#1142);
#990=PLANE('',#1144);
#991=PLANE('',#1145);
#992=PLANE('',#1146);
#993=PLANE('',#1147);
#994=PLANE('',#1148);
#995=ADVANCED_FACE('',(#78),#962,.F.);
#996=ADVANCED_FACE('',(#79),#963,.F.);
#997=ADVANCED_FACE('',(#80),#59,.T.);
#998=ADVANCED_FACE('',(#81),#964,.F.);
#999=ADVANCED_FACE('',(#82),#965,.F.);
#1000=ADVANCED_FACE('',(#83),#966,.F.);
#1001=ADVANCED_FACE('',(#84),#967,.F.);
#1002=ADVANCED_FACE('',(#85),#60,.T.);
#1003=ADVANCED_FACE('',(#86,#15),#968,.F.);
#1004=ADVANCED_FACE('',(#87),#61,.F.);
#1005=ADVANCED_FACE('',(#88),#969,.F.);
#1006=ADVANCED_FACE('',(#89),#62,.F.);
#1007=ADVANCED_FACE('',(#90),#970,.T.);
#1008=ADVANCED_FACE('',(#91),#63,.F.);
#1009=ADVANCED_FACE('',(#92),#971,.T.);
#1010=ADVANCED_FACE('',(#93),#64,.F.);
#1011=ADVANCED_FACE('',(#94),#972,.T.);
#1012=ADVANCED_FACE('',(#95),#65,.F.);
#1013=ADVANCED_FACE('',(#96),#66,.T.);
#1014=ADVANCED_FACE('',(#97),#67,.T.);
#1015=ADVANCED_FACE('',(#98),#973,.T.);
#1016=ADVANCED_FACE('',(#99),#68,.T.);
#1017=ADVANCED_FACE('',(#100),#69,.F.);
#1018=ADVANCED_FACE('',(#101),#70,.T.);
#1019=ADVANCED_FACE('',(#102),#974,.T.);
#1020=ADVANCED_FACE('',(#103),#71,.T.);
#1021=ADVANCED_FACE('',(#104),#72,.T.);
#1022=ADVANCED_FACE('',(#105),#73,.F.);
#1023=ADVANCED_FACE('',(#106),#975,.T.);
#1024=ADVANCED_FACE('',(#107),#74,.F.);
#1025=ADVANCED_FACE('',(#108),#976,.T.);
#1026=ADVANCED_FACE('',(#109),#75,.F.);
#1027=ADVANCED_FACE('',(#110,#16),#977,.F.);
#1028=ADVANCED_FACE('',(#111,#17),#978,.T.);
#1029=ADVANCED_FACE('',(#112,#18),#979,.F.);
#1030=ADVANCED_FACE('',(#113),#980,.F.);
#1031=ADVANCED_FACE('',(#114),#981,.F.);
#1032=ADVANCED_FACE('',(#115),#982,.F.);
#1033=ADVANCED_FACE('',(#116,#19),#983,.F.);
#1034=ADVANCED_FACE('',(#117),#984,.F.);
#1035=ADVANCED_FACE('',(#118),#985,.F.);
#1036=ADVANCED_FACE('',(#119),#986,.F.);
#1037=ADVANCED_FACE('',(#120),#987,.F.);
#1038=ADVANCED_FACE('',(#121),#988,.F.);
#1039=ADVANCED_FACE('',(#122,#20),#989,.F.);
#1040=ADVANCED_FACE('',(#123),#990,.F.);
#1041=ADVANCED_FACE('',(#124),#991,.F.);
#1042=ADVANCED_FACE('',(#125),#992,.F.);
#1043=ADVANCED_FACE('',(#126),#993,.T.);
#1044=ADVANCED_FACE('',(#127),#994,.F.);
#1045=ADVANCED_FACE('',(#128),#76,.F.);
#1046=ADVANCED_FACE('',(#129),#77,.F.);
#1047=CLOSED_SHELL('',(#995,#996,#997,#998,#999,#1000,#1001,#1002,#1003,
#1004,#1005,#1006,#1007,#1008,#1009,#1010,#1011,#1012,#1013,#1014,#1015,
#1016,#1017,#1018,#1019,#1020,#1021,#1022,#1023,#1024,#1025,#1026,#1027,
#1028,#1029,#1030,#1031,#1032,#1033,#1034,#1035,#1036,#1037,#1038,#1039,
#1040,#1041,#1042,#1043,#1044,#1045,#1046));
#1048=DERIVED_UNIT_ELEMENT(#1050,1.);
#1049=DERIVED_UNIT_ELEMENT(#1753,-3.);
#1050=(
MASS_UNIT()
NAMED_UNIT(*)
SI_UNIT(.KILO.,.GRAM.)
);
#1051=DERIVED_UNIT((#1048,#1049));
#1052=MEASURE_REPRESENTATION_ITEM('density measure',
POSITIVE_RATIO_MEASURE(7850.),#1051);
#1053=PROPERTY_DEFINITION_REPRESENTATION(#1058,#1055);
#1054=PROPERTY_DEFINITION_REPRESENTATION(#1059,#1056);
#1055=REPRESENTATION('material name',(#1057),#1750);
#1056=REPRESENTATION('density',(#1052),#1750);
#1057=DESCRIPTIVE_REPRESENTATION_ITEM('Steel','Steel');
#1058=PROPERTY_DEFINITION('material property','material name',#1760);
#1059=PROPERTY_DEFINITION('material property','density of part',#1760);
#1060=AXIS2_PLACEMENT_3D('',#1445,#1151,#1152);
#1061=AXIS2_PLACEMENT_3D('',#1446,#1153,#1154);
#1062=AXIS2_PLACEMENT_3D('',#1455,#1159,#1160);
#1063=AXIS2_PLACEMENT_3D('',#1461,#1164,#1165);
#1064=AXIS2_PLACEMENT_3D('',#1464,#1166,#1167);
#1065=AXIS2_PLACEMENT_3D('',#1468,#1169,#1170);
#1066=AXIS2_PLACEMENT_3D('',#1470,#1172,#1173);
#1067=AXIS2_PLACEMENT_3D('',#1481,#1180,#1181);
#1068=AXIS2_PLACEMENT_3D('',#1487,#1185,#1186);
#1069=AXIS2_PLACEMENT_3D('',#1493,#1190,#1191);
#1070=AXIS2_PLACEMENT_3D('',#1504,#1198,#1199);
#1071=AXIS2_PLACEMENT_3D('',#1506,#1200,#1201);
#1072=AXIS2_PLACEMENT_3D('',#1509,#1203,#1204);
#1073=AXIS2_PLACEMENT_3D('',#1510,#1205,#1206);
#1074=AXIS2_PLACEMENT_3D('',#1517,#1210,#1211);
#1075=AXIS2_PLACEMENT_3D('',#1518,#1212,#1213);
#1076=AXIS2_PLACEMENT_3D('',#1520,#1214,#1215);
#1077=AXIS2_PLACEMENT_3D('',#1523,#1217,#1218);
#1078=AXIS2_PLACEMENT_3D('',#1524,#1219,#1220);
#1079=AXIS2_PLACEMENT_3D('',#1530,#1224,#1225);
#1080=AXIS2_PLACEMENT_3D('',#1532,#1226,#1227);
#1081=AXIS2_PLACEMENT_3D('',#1535,#1229,#1230);
#1082=AXIS2_PLACEMENT_3D('',#1536,#1231,#1232);
#1083=AXIS2_PLACEMENT_3D('',#1545,#1237,#1238);
#1084=AXIS2_PLACEMENT_3D('',#1547,#1239,#1240);
#1085=AXIS2_PLACEMENT_3D('',#1550,#1242,#1243);
#1086=AXIS2_PLACEMENT_3D('',#1551,#1244,#1245);
#1087=AXIS2_PLACEMENT_3D('',#1557,#1249,#1250);
#1088=AXIS2_PLACEMENT_3D('',#1559,#1251,#1252);
#1089=AXIS2_PLACEMENT_3D('',#1562,#1254,#1255);
#1090=AXIS2_PLACEMENT_3D('',#1563,#1256,#1257);
#1091=AXIS2_PLACEMENT_3D('',#1569,#1261,#1262);
#1092=AXIS2_PLACEMENT_3D('',#1571,#1263,#1264);
#1093=AXIS2_PLACEMENT_3D('',#1574,#1266,#1267);
#1094=AXIS2_PLACEMENT_3D('',#1575,#1268,#1269);
#1095=AXIS2_PLACEMENT_3D('',#1577,#1270,#1271);
#1096=AXIS2_PLACEMENT_3D('',#1580,#1273,#1274);
#1097=AXIS2_PLACEMENT_3D('',#1581,#1275,#1276);
#1098=AXIS2_PLACEMENT_3D('',#1583,#1277,#1278);
#1099=AXIS2_PLACEMENT_3D('',#1586,#1280,#1281);
#1100=AXIS2_PLACEMENT_3D('',#1587,#1282,#1283);
#1101=AXIS2_PLACEMENT_3D('',#1593,#1287,#1288);
#1102=AXIS2_PLACEMENT_3D('',#1595,#1289,#1290);
#1103=AXIS2_PLACEMENT_3D('',#1598,#1292,#1293);
#1104=AXIS2_PLACEMENT_3D('',#1599,#1294,#1295);
#1105=AXIS2_PLACEMENT_3D('',#1601,#1296,#1297);
#1106=AXIS2_PLACEMENT_3D('',#1604,#1299,#1300);
#1107=AXIS2_PLACEMENT_3D('',#1605,#1301,#1302);
#1108=AXIS2_PLACEMENT_3D('',#1607,#1303,#1304);
#1109=AXIS2_PLACEMENT_3D('',#1610,#1306,#1307);
#1110=AXIS2_PLACEMENT_3D('',#1611,#1308,#1309);
#1111=AXIS2_PLACEMENT_3D('',#1617,#1313,#1314);
#1112=AXIS2_PLACEMENT_3D('',#1619,#1315,#1316);
#1113=AXIS2_PLACEMENT_3D('',#1622,#1318,#1319);
#1114=AXIS2_PLACEMENT_3D('',#1623,#1320,#1321);
#1115=AXIS2_PLACEMENT_3D('',#1625,#1322,#1323);
#1116=AXIS2_PLACEMENT_3D('',#1628,#1325,#1326);
#1117=AXIS2_PLACEMENT_3D('',#1629,#1327,#1328);
#1118=AXIS2_PLACEMENT_3D('',#1631,#1329,#1330);
#1119=AXIS2_PLACEMENT_3D('',#1634,#1332,#1333);
#1120=AXIS2_PLACEMENT_3D('',#1635,#1334,#1335);
#1121=AXIS2_PLACEMENT_3D('',#1641,#1339,#1340);
#1122=AXIS2_PLACEMENT_3D('',#1643,#1341,#1342);
#1123=AXIS2_PLACEMENT_3D('',#1646,#1344,#1345);
#1124=AXIS2_PLACEMENT_3D('',#1647,#1346,#1347);
#1125=AXIS2_PLACEMENT_3D('',#1653,#1351,#1352);
#1126=AXIS2_PLACEMENT_3D('',#1654,#1353,#1354);
#1127=AXIS2_PLACEMENT_3D('',#1655,#1355,#1356);
#1128=AXIS2_PLACEMENT_3D('',#1656,#1357,#1358);
#1129=AXIS2_PLACEMENT_3D('',#1660,#1361,#1362);
#1130=AXIS2_PLACEMENT_3D('',#1661,#1363,#1364);
#1131=AXIS2_PLACEMENT_3D('',#1662,#1365,#1366);
#1132=AXIS2_PLACEMENT_3D('',#1663,#1367,#1368);
#1133=AXIS2_PLACEMENT_3D('',#1669,#1372,#1373);
#1134=AXIS2_PLACEMENT_3D('',#1675,#1377,#1378);
#1135=AXIS2_PLACEMENT_3D('',#1681,#1382,#1383);
#1136=AXIS2_PLACEMENT_3D('',#1688,#1387,#1388);
#1137=AXIS2_PLACEMENT_3D('',#1689,#1389,#1390);
#1138=AXIS2_PLACEMENT_3D('',#1695,#1394,#1395);
#1139=AXIS2_PLACEMENT_3D('',#1701,#1399,#1400);
#1140=AXIS2_PLACEMENT_3D('',#1707,#1404,#1405);
#1141=AXIS2_PLACEMENT_3D('',#1713,#1409,#1410);
#1142=AXIS2_PLACEMENT_3D('',#1719,#1414,#1415);
#1143=AXIS2_PLACEMENT_3D('',#1726,#1419,#1420);
#1144=AXIS2_PLACEMENT_3D('',#1727,#1421,#1422);
#1145=AXIS2_PLACEMENT_3D('',#1733,#1426,#1427);
#1146=AXIS2_PLACEMENT_3D('',#1739,#1431,#1432);
#1147=AXIS2_PLACEMENT_3D('',#1742,#1435,#1436);
#1148=AXIS2_PLACEMENT_3D('',#1743,#1437,#1438);
#1149=AXIS2_PLACEMENT_3D('',#1744,#1439,#1440);
#1150=AXIS2_PLACEMENT_3D('',#1746,#1442,#1443);
#1151=DIRECTION('axis',(0.,0.,1.));
#1152=DIRECTION('refdir',(1.,0.,0.));
#1153=DIRECTION('center_axis',(0.,1.,0.));
#1154=DIRECTION('ref_axis',(0.,0.,1.));
#1155=DIRECTION('',(0.,0.,1.));
#1156=DIRECTION('',(-1.,0.,0.));
#1157=DIRECTION('',(0.,0.,-1.));
#1158=DIRECTION('',(-1.,0.,0.));
#1159=DIRECTION('center_axis',(0.,0.,1.));
#1160=DIRECTION('ref_axis',(1.,0.,0.));
#1161=DIRECTION('',(0.,-1.,0.));
#1162=DIRECTION('',(0.,1.,0.));
#1163=DIRECTION('',(-1.,0.,0.));
#1164=DIRECTION('center_axis',(-1.,0.,0.));
#1165=DIRECTION('ref_axis',(0.,0.,1.));
#1166=DIRECTION('center_axis',(1.,0.,0.));
#1167=DIRECTION('ref_axis',(0.,0.,-1.));
#1168=DIRECTION('',(-1.,0.,0.));
#1169=DIRECTION('center_axis',(1.,0.,0.));
#1170=DIRECTION('ref_axis',(0.,0.,-1.));
#1171=DIRECTION('',(-1.,0.,0.));
#1172=DIRECTION('center_axis',(0.,0.,-1.));
#1173=DIRECTION('ref_axis',(-1.,0.,0.));
#1174=DIRECTION('',(0.,-1.,0.));
#1175=DIRECTION('',(0.,-1.,1.73472347597681E-14));
#1176=DIRECTION('',(-1.,0.,0.));
#1177=DIRECTION('',(0.,-1.,1.73472347597681E-14));
#1178=DIRECTION('',(-1.,0.,0.));
#1179=DIRECTION('',(0.,-1.,0.));
#1180=DIRECTION('center_axis',(0.,1.,0.));
#1181=DIRECTION('ref_axis',(0.,0.,1.));
#1182=DIRECTION('',(0.,0.,1.));
#1183=DIRECTION('',(-1.,0.,0.));
#1184=DIRECTION('',(0.,0.,-1.));
#1185=DIRECTION('center_axis',(0.,0.,1.));
#1186=DIRECTION('ref_axis',(1.,0.,0.));
#1187=DIRECTION('',(0.,-1.,0.));
#1188=DIRECTION('',(-1.,0.,0.));
#1189=DIRECTION('',(0.,1.,0.));
#1190=DIRECTION('center_axis',(0.,-1.,0.));
#1191=DIRECTION('ref_axis',(0.,0.,-1.));
#1192=DIRECTION('',(0.,0.,1.));
#1193=DIRECTION('',(-1.,0.,0.));
#1194=DIRECTION('',(0.,0.,1.));
#1195=DIRECTION('',(0.,1.73472347597678E-14,1.));
#1196=DIRECTION('',(-1.,0.,0.));
#1197=DIRECTION('',(0.,1.73472347597678E-14,1.));
#1198=DIRECTION('center_axis',(-1.,0.,0.));
#1199=DIRECTION('ref_axis',(0.,0.,1.));
#1200=DIRECTION('center_axis',(1.,0.,0.));
#1201=DIRECTION('ref_axis',(0.,0.,-1.));
#1202=DIRECTION('',(-1.,0.,0.));
#1203=DIRECTION('center_axis',(1.,0.,0.));
#1204=DIRECTION('ref_axis',(0.,0.,-1.));
#1205=DIRECTION('center_axis',(0.,0.,-1.));
#1206=DIRECTION('ref_axis',(-1.,0.,0.));
#1207=DIRECTION('',(0.,-1.,0.));
#1208=DIRECTION('',(-1.,0.,0.));
#1209=DIRECTION('',(0.,-1.,0.));
#1210=DIRECTION('center_axis',(0.,0.,1.));
#1211=DIRECTION('ref_axis',(1.,0.,0.));
#1212=DIRECTION('center_axis',(-1.,0.,0.));
#1213=DIRECTION('ref_axis',(0.,0.,1.));
#1214=DIRECTION('center_axis',(1.,0.,0.));
#1215=DIRECTION('ref_axis',(0.,0.,-1.));
#1216=DIRECTION('',(-1.,0.,0.));
#1217=DIRECTION('center_axis',(1.,0.,0.));
#1218=DIRECTION('ref_axis',(0.,0.,-1.));
#1219=DIRECTION('center_axis',(0.,-0.707106781186548,-0.707106781186548));
#1220=DIRECTION('ref_axis',(0.,0.707106781186548,-0.707106781186548));
#1221=DIRECTION('',(0.,-0.707106781186548,0.707106781186548));
#1222=DIRECTION('',(-1.,0.,0.));
#1223=DIRECTION('',(0.,-0.707106781186548,0.707106781186548));
#1224=DIRECTION('center_axis',(-1.,0.,0.));
#1225=DIRECTION('ref_axis',(0.,0.,1.));
#1226=DIRECTION('center_axis',(1.,0.,0.));
#1227=DIRECTION('ref_axis',(0.,0.,-1.));
#1228=DIRECTION('',(-1.,0.,0.));
#1229=DIRECTION('center_axis',(1.,0.,0.));
#1230=DIRECTION('ref_axis',(0.,0.,-1.));
#1231=DIRECTION('center_axis',(0.,-0.707106781186547,-0.707106781186548));
#1232=DIRECTION('ref_axis',(0.,0.707106781186548,-0.707106781186547));
#1233=DIRECTION('',(0.,-0.707106781186548,0.707106781186547));
#1234=DIRECTION('',(-1.,0.,0.));
#1235=DIRECTION('',(0.,-0.707106781186548,0.707106781186547));
#1236=DIRECTION('',(-1.,0.,0.));
#1237=DIRECTION('center_axis',(-1.,0.,0.));
#1238=DIRECTION('ref_axis',(0.,0.,1.));
#1239=DIRECTION('center_axis',(1.,0.,0.));
#1240=DIRECTION('ref_axis',(0.,0.,-1.));
#1241=DIRECTION('',(-1.,0.,0.));
#1242=DIRECTION('center_axis',(1.,0.,0.));
#1243=DIRECTION('ref_axis',(0.,0.,-1.));
#1244=DIRECTION('center_axis',(0.,0.,1.));
#1245=DIRECTION('ref_axis',(1.,0.,0.));
#1246=DIRECTION('',(0.,1.,0.));
#1247=DIRECTION('',(-1.,0.,0.));
#1248=DIRECTION('',(0.,1.,0.));
#1249=DIRECTION('center_axis',(-1.,0.,0.));
#1250=DIRECTION('ref_axis',(0.,0.,1.));
#1251=DIRECTION('center_axis',(1.,0.,0.));
#1252=DIRECTION('ref_axis',(0.,0.,-1.));
#1253=DIRECTION('',(-1.,0.,0.));
#1254=DIRECTION('center_axis',(1.,0.,0.));
#1255=DIRECTION('ref_axis',(0.,0.,-1.));
#1256=DIRECTION('center_axis',(0.,1.,0.));
#1257=DIRECTION('ref_axis',(0.,0.,1.));
#1258=DIRECTION('',(0.,0.,-1.));
#1259=DIRECTION('',(-1.,0.,0.));
#1260=DIRECTION('',(0.,0.,-1.));
#1261=DIRECTION('center_axis',(-1.,0.,0.));
#1262=DIRECTION('ref_axis',(0.,0.,1.));
#1263=DIRECTION('center_axis',(1.,0.,0.));
#1264=DIRECTION('ref_axis',(0.,0.,-1.));
#1265=DIRECTION('',(-1.,0.,0.));
#1266=DIRECTION('center_axis',(1.,0.,0.));
#1267=DIRECTION('ref_axis',(0.,0.,-1.));
#1268=DIRECTION('center_axis',(-1.,0.,0.));
#1269=DIRECTION('ref_axis',(0.,0.,1.));
#1270=DIRECTION('center_axis',(1.,0.,0.));
#1271=DIRECTION('ref_axis',(0.,0.,-1.));
#1272=DIRECTION('',(-1.,0.,0.));
#1273=DIRECTION('center_axis',(1.,0.,0.));
#1274=DIRECTION('ref_axis',(0.,0.,-1.));
#1275=DIRECTION('center_axis',(-1.,0.,0.));
#1276=DIRECTION('ref_axis',(0.,0.,1.));
#1277=DIRECTION('center_axis',(1.,0.,0.));
#1278=DIRECTION('ref_axis',(0.,0.,-1.));
#1279=DIRECTION('',(-1.,0.,0.));
#1280=DIRECTION('center_axis',(1.,0.,0.));
#1281=DIRECTION('ref_axis',(0.,0.,-1.));
#1282=DIRECTION('center_axis',(0.,-0.258819045102521,0.965925826289068));
#1283=DIRECTION('ref_axis',(0.,-0.965925826289068,-0.258819045102521));
#1284=DIRECTION('',(0.,0.965925826289068,0.258819045102521));
#1285=DIRECTION('',(-1.,0.,0.));
#1286=DIRECTION('',(0.,0.965925826289068,0.258819045102521));
#1287=DIRECTION('center_axis',(-1.,0.,0.));
#1288=DIRECTION('ref_axis',(0.,0.,1.));
#1289=DIRECTION('center_axis',(1.,0.,0.));
#1290=DIRECTION('ref_axis',(0.,0.,-1.));
#1291=DIRECTION('',(-1.,0.,0.));
#1292=DIRECTION('center_axis',(1.,0.,0.));
#1293=DIRECTION('ref_axis',(0.,0.,-1.));
#1294=DIRECTION('center_axis',(-1.,0.,0.));
#1295=DIRECTION('ref_axis',(0.,-0.707106781186547,-0.707106781186548));
#1296=DIRECTION('center_axis',(1.,0.,0.));
#1297=DIRECTION('ref_axis',(0.,0.,-1.));
#1298=DIRECTION('',(-1.,0.,0.));
#1299=DIRECTION('center_axis',(1.,0.,0.));
#1300=DIRECTION('ref_axis',(0.,0.,-1.));
#1301=DIRECTION('center_axis',(-1.,0.,0.));
#1302=DIRECTION('ref_axis',(0.,0.582887122373513,-0.81255313830612));
#1303=DIRECTION('center_axis',(1.,0.,0.));
#1304=DIRECTION('ref_axis',(0.,0.,-1.));
#1305=DIRECTION('',(-1.,0.,0.));
#1306=DIRECTION('center_axis',(1.,0.,0.));
#1307=DIRECTION('ref_axis',(0.,0.,-1.));
#1308=DIRECTION('center_axis',(0.,0.965925826289068,-0.258819045102521));
#1309=DIRECTION('ref_axis',(0.,0.258819045102521,0.965925826289068));
#1310=DIRECTION('',(0.,-0.258819045102521,-0.965925826289068));
#1311=DIRECTION('',(-1.,0.,0.));
#1312=DIRECTION('',(0.,-0.258819045102521,-0.965925826289068));
#1313=DIRECTION('center_axis',(-1.,0.,0.));
#1314=DIRECTION('ref_axis',(0.,0.,1.));
#1315=DIRECTION('center_axis',(1.,0.,0.));
#1316=DIRECTION('ref_axis',(0.,0.,-1.));
#1317=DIRECTION('',(-1.,0.,0.));
#1318=DIRECTION('center_axis',(1.,0.,0.));
#1319=DIRECTION('ref_axis',(0.,0.,-1.));
#1320=DIRECTION('center_axis',(-1.,0.,0.));
#1321=DIRECTION('ref_axis',(0.,0.,1.));
#1322=DIRECTION('center_axis',(1.,0.,0.));
#1323=DIRECTION('ref_axis',(0.,0.,-1.));
#1324=DIRECTION('',(-1.,0.,0.));
#1325=DIRECTION('center_axis',(1.,0.,0.));
#1326=DIRECTION('ref_axis',(0.,0.,-1.));
#1327=DIRECTION('center_axis',(-1.,0.,0.));
#1328=DIRECTION('ref_axis',(0.,0.,1.));
#1329=DIRECTION('center_axis',(1.,0.,0.));
#1330=DIRECTION('ref_axis',(0.,0.,-1.));
#1331=DIRECTION('',(-1.,0.,0.));
#1332=DIRECTION('center_axis',(1.,0.,0.));
#1333=DIRECTION('ref_axis',(0.,0.,-1.));
#1334=DIRECTION('center_axis',(0.,0.,1.));
#1335=DIRECTION('ref_axis',(1.,0.,0.));
#1336=DIRECTION('',(0.,1.,0.));
#1337=DIRECTION('',(-1.,0.,0.));
#1338=DIRECTION('',(0.,1.,0.));
#1339=DIRECTION('center_axis',(-1.,0.,0.));
#1340=DIRECTION('ref_axis',(0.,0.,1.));
#1341=DIRECTION('center_axis',(1.,0.,0.));
#1342=DIRECTION('ref_axis',(0.,0.,-1.));
#1343=DIRECTION('',(-1.,0.,0.));
#1344=DIRECTION('center_axis',(1.,0.,0.));
#1345=DIRECTION('ref_axis',(0.,0.,-1.));
#1346=DIRECTION('center_axis',(0.,1.,0.));
#1347=DIRECTION('ref_axis',(0.,0.,1.));
#1348=DIRECTION('',(0.,0.,-1.));
#1349=DIRECTION('',(-1.,0.,0.));
#1350=DIRECTION('',(0.,0.,-1.));
#1351=DIRECTION('center_axis',(-1.,0.,0.));
#1352=DIRECTION('ref_axis',(0.,0.,1.));
#1353=DIRECTION('center_axis',(1.,0.,0.));
#1354=DIRECTION('ref_axis',(0.,0.,-1.));
#1355=DIRECTION('center_axis',(1.,0.,0.));
#1356=DIRECTION('ref_axis',(0.,0.,-1.));
#1357=DIRECTION('center_axis',(0.,-1.,9.33360276035917E-17));
#1358=DIRECTION('ref_axis',(0.,-9.33360276035917E-17,-1.));
#1359=DIRECTION('',(0.,9.33360276035917E-17,1.));
#1360=DIRECTION('',(0.,9.33360276035917E-17,1.));
#1361=DIRECTION('center_axis',(0.,-1.,0.));
#1362=DIRECTION('ref_axis',(0.,0.,-1.));
#1363=DIRECTION('center_axis',(1.,0.,0.));
#1364=DIRECTION('ref_axis',(0.,0.,-1.));
#1365=DIRECTION('center_axis',(1.,0.,0.));
#1366=DIRECTION('ref_axis',(0.,0.,-1.));
#1367=DIRECTION('center_axis',(0.,0.707106781186549,-0.707106781186546));
#1368=DIRECTION('ref_axis',(0.,0.707106781186546,0.707106781186549));
#1369=DIRECTION('',(0.,-0.707106781186546,-0.707106781186549));
#1370=DIRECTION('',(-1.,0.,0.));
#1371=DIRECTION('',(0.,-0.707106781186546,-0.707106781186549));
#1372=DIRECTION('center_axis',(0.,1.,0.));
#1373=DIRECTION('ref_axis',(0.,0.,1.));
#1374=DIRECTION('',(0.,0.,-1.));
#1375=DIRECTION('',(-1.,0.,0.));
#1376=DIRECTION('',(0.,0.,-1.));
#1377=DIRECTION('center_axis',(0.,0.707106781186558,0.707106781186537));
#1378=DIRECTION('ref_axis',(0.,-0.707106781186537,0.707106781186558));
#1379=DIRECTION('',(0.,0.707106781186537,-0.707106781186558));
#1380=DIRECTION('',(-1.,0.,0.));
#1381=DIRECTION('',(0.,0.707106781186537,-0.707106781186558));
#1382=DIRECTION('center_axis',(0.,1.,0.));
#1383=DIRECTION('ref_axis',(0.,0.,1.));
#1384=DIRECTION('',(0.,0.,-1.));
#1385=DIRECTION('',(-1.,0.,0.));
#1386=DIRECTION('',(0.,0.,-1.));
#1387=DIRECTION('center_axis',(0.,1.,0.));
#1388=DIRECTION('ref_axis',(0.,0.,1.));
#1389=DIRECTION('center_axis',(0.,0.707106781186548,-0.707106781186547));
#1390=DIRECTION('ref_axis',(0.,0.707106781186547,0.707106781186548));
#1391=DIRECTION('',(0.,-0.707106781186547,-0.707106781186548));
#1392=DIRECTION('',(-1.,0.,0.));
#1393=DIRECTION('',(0.,-0.707106781186547,-0.707106781186548));
#1394=DIRECTION('center_axis',(0.,1.,0.));
#1395=DIRECTION('ref_axis',(0.,0.,1.));
#1396=DIRECTION('',(0.,0.,-1.));
#1397=DIRECTION('',(-1.,0.,0.));
#1398=DIRECTION('',(0.,0.,-1.));
#1399=DIRECTION('center_axis',(0.,0.707106781186548,0.707106781186548));
#1400=DIRECTION('ref_axis',(0.,-0.707106781186548,0.707106781186548));
#1401=DIRECTION('',(0.,0.707106781186547,-0.707106781186547));
#1402=DIRECTION('',(-1.,0.,0.));
#1403=DIRECTION('',(0.,0.707106781186547,-0.707106781186547));
#1404=DIRECTION('center_axis',(0.,0.,1.));
#1405=DIRECTION('ref_axis',(1.,0.,0.));
#1406=DIRECTION('',(0.,1.,0.));
#1407=DIRECTION('',(-1.,0.,0.));
#1408=DIRECTION('',(0.,1.,0.));
#1409=DIRECTION('center_axis',(0.,-0.707106781186547,0.707106781186548));
#1410=DIRECTION('ref_axis',(0.,-0.707106781186548,-0.707106781186547));
#1411=DIRECTION('',(0.,0.707106781186548,0.707106781186547));
#1412=DIRECTION('',(-1.,0.,0.));
#1413=DIRECTION('',(0.,0.707106781186548,0.707106781186547));
#1414=DIRECTION('center_axis',(0.,0.,1.));
#1415=DIRECTION('ref_axis',(1.,0.,0.));
#1416=DIRECTION('',(0.,1.,0.));
#1417=DIRECTION('',(-1.,0.,0.));
#1418=DIRECTION('',(0.,1.,0.));
#1419=DIRECTION('center_axis',(0.,0.,1.));
#1420=DIRECTION('ref_axis',(1.,0.,0.));
#1421=DIRECTION('center_axis',(0.,0.707106781186542,0.707106781186553));
#1422=DIRECTION('ref_axis',(0.,-0.707106781186553,0.707106781186542));
#1423=DIRECTION('',(0.,0.707106781186553,-0.707106781186542));
#1424=DIRECTION('',(-1.,0.,0.));
#1425=DIRECTION('',(0.,0.707106781186553,-0.707106781186542));
#1426=DIRECTION('center_axis',(0.,-3.97540796578018E-15,1.));
#1427=DIRECTION('ref_axis',(0.,-1.,-3.97540796578018E-15));
#1428=DIRECTION('',(0.,1.,3.97540796578018E-15));
#1429=DIRECTION('',(-1.,0.,0.));
#1430=DIRECTION('',(0.,1.,3.97540796578018E-15));
#1431=DIRECTION('center_axis',(0.,-0.707106781186546,0.707106781186549));
#1432=DIRECTION('ref_axis',(0.,-0.707106781186549,-0.707106781186546));
#1433=DIRECTION('',(0.,0.707106781186549,0.707106781186546));
#1434=DIRECTION('',(0.,0.707106781186549,0.707106781186546));
#1435=DIRECTION('center_axis',(1.,0.,0.));
#1436=DIRECTION('ref_axis',(0.,0.,-1.));
#1437=DIRECTION('center_axis',(1.,0.,0.));
#1438=DIRECTION('ref_axis',(0.,0.,-1.));
#1439=DIRECTION('center_axis',(0.,0.,1.));
#1440=DIRECTION('ref_axis',(1.,0.,0.));
#1441=DIRECTION('',(0.,0.,1.));
#1442=DIRECTION('center_axis',(0.,-1.,0.));
#1443=DIRECTION('ref_axis',(0.,0.,-1.));
#1444=DIRECTION('',(0.,-1.,0.));
#1445=CARTESIAN_POINT('',(0.,0.,0.));
#1446=CARTESIAN_POINT('Origin',(7.,0.,51.));
#1447=CARTESIAN_POINT('',(-3.,0.,0.));
#1448=CARTESIAN_POINT('',(-3.,0.,51.));
#1449=CARTESIAN_POINT('',(-3.,0.,0.));
#1450=CARTESIAN_POINT('',(-7.,0.,51.));
#1451=CARTESIAN_POINT('',(7.,0.,51.));
#1452=CARTESIAN_POINT('',(-7.,0.,0.));
#1453=CARTESIAN_POINT('',(-7.,0.,51.));
#1454=CARTESIAN_POINT('',(7.,0.,0.));
#1455=CARTESIAN_POINT('Origin',(7.,0.,0.));
#1456=CARTESIAN_POINT('',(-3.,51.,0.));
#1457=CARTESIAN_POINT('',(-3.,51.,0.));
#1458=CARTESIAN_POINT('',(-7.,51.,0.));
#1459=CARTESIAN_POINT('',(-7.,0.,0.));
#1460=CARTESIAN_POINT('',(7.,51.,0.));
#1461=CARTESIAN_POINT('Origin',(7.,8.00000000000001,50.));
#1462=CARTESIAN_POINT('',(-7.,9.00000000000001,50.));
#1463=CARTESIAN_POINT('',(-7.,8.00000000000001,51.));
#1464=CARTESIAN_POINT('Origin',(-7.,8.00000000000001,50.));
#1465=CARTESIAN_POINT('',(7.,8.00000000000001,51.));
#1466=CARTESIAN_POINT('',(7.,8.00000000000001,51.));
#1467=CARTESIAN_POINT('',(7.,9.00000000000001,50.));
#1468=CARTESIAN_POINT('Origin',(7.,8.00000000000001,50.));
#1469=CARTESIAN_POINT('',(7.,9.00000000000001,50.));
#1470=CARTESIAN_POINT('Origin',(7.,8.00000000000001,51.));
#1471=CARTESIAN_POINT('',(-7.,8.00000000000001,51.));
#1472=CARTESIAN_POINT('',(-3.,-0.4,51.));
#1473=CARTESIAN_POINT('',(-3.,0.,51.));
#1474=CARTESIAN_POINT('',(3.,-0.4,51.));
#1475=CARTESIAN_POINT('',(3.,-0.4,51.));
#1476=CARTESIAN_POINT('',(3.,0.,51.));
#1477=CARTESIAN_POINT('',(3.,0.,51.));
#1478=CARTESIAN_POINT('',(7.,0.,51.));
#1479=CARTESIAN_POINT('',(7.,0.,51.));
#1480=CARTESIAN_POINT('',(7.,8.00000000000001,51.));
#1481=CARTESIAN_POINT('Origin',(7.,0.,51.));
#1482=CARTESIAN_POINT('',(3.,0.,0.));
#1483=CARTESIAN_POINT('',(3.,0.,0.));
#1484=CARTESIAN_POINT('',(7.,0.,0.));
#1485=CARTESIAN_POINT('',(7.,0.,0.));
#1486=CARTESIAN_POINT('',(7.,0.,51.));
#1487=CARTESIAN_POINT('Origin',(7.,0.,0.));
#1488=CARTESIAN_POINT('',(3.,51.,0.));
#1489=CARTESIAN_POINT('',(3.,51.,0.));
#1490=CARTESIAN_POINT('',(7.,51.,0.));
#1491=CARTESIAN_POINT('',(7.,51.,0.));
#1492=CARTESIAN_POINT('',(7.,0.,0.));
#1493=CARTESIAN_POINT('Origin',(7.,51.,0.));
#1494=CARTESIAN_POINT('',(-7.,51.,8.));
#1495=CARTESIAN_POINT('',(-7.,51.,0.));
#1496=CARTESIAN_POINT('',(7.,51.,8.));
#1497=CARTESIAN_POINT('',(7.,51.,8.));
#1498=CARTESIAN_POINT('',(7.,51.,0.));
#1499=CARTESIAN_POINT('',(3.,51.,-0.400000000000006));
#1500=CARTESIAN_POINT('',(3.,51.,-0.400000000000006));
#1501=CARTESIAN_POINT('',(-3.,51.,-0.400000000000006));
#1502=CARTESIAN_POINT('',(3.,51.,-0.400000000000006));
#1503=CARTESIAN_POINT('',(-3.,51.,-0.400000000000006));
#1504=CARTESIAN_POINT('Origin',(7.,50.,7.99999999999999));
#1505=CARTESIAN_POINT('',(-7.,50.,9.00000000000001));
#1506=CARTESIAN_POINT('Origin',(-7.,50.,7.99999999999999));
#1507=CARTESIAN_POINT('',(7.,50.,9.00000000000001));
#1508=CARTESIAN_POINT('',(7.,50.,9.00000000000001));
#1509=CARTESIAN_POINT('Origin',(7.,50.,7.99999999999999));
#1510=CARTESIAN_POINT('Origin',(7.,50.,9.));
#1511=CARTESIAN_POINT('',(-7.,31.4142135623731,9.));
#1512=CARTESIAN_POINT('',(-7.,50.,9.));
#1513=CARTESIAN_POINT('',(7.,31.4142135623731,9.));
#1514=CARTESIAN_POINT('',(7.,31.4142135623731,9.));
#1515=CARTESIAN_POINT('',(7.,50.,9.));
#1516=CARTESIAN_POINT('',(-2.75,41.,9.));
#1517=CARTESIAN_POINT('Origin',(0.,41.,9.));
#1518=CARTESIAN_POINT('Origin',(7.,31.4142135623731,10.));
#1519=CARTESIAN_POINT('',(-7.,30.7071067811865,9.29289321881346));
#1520=CARTESIAN_POINT('Origin',(-7.,31.4142135623731,10.));
#1521=CARTESIAN_POINT('',(7.,30.7071067811865,9.29289321881346));
#1522=CARTESIAN_POINT('',(7.,30.7071067811865,9.29289321881346));
#1523=CARTESIAN_POINT('Origin',(7.,31.4142135623731,10.));
#1524=CARTESIAN_POINT('Origin',(7.,30.7071067811865,9.29289321881345));
#1525=CARTESIAN_POINT('',(-7.,9.29289321881347,30.7071067811865));
#1526=CARTESIAN_POINT('',(-7.,30.7071067811865,9.29289321881345));
#1527=CARTESIAN_POINT('',(7.,9.29289321881347,30.7071067811865));
#1528=CARTESIAN_POINT('',(7.,9.29289321881347,30.7071067811865));
#1529=CARTESIAN_POINT('',(7.,30.7071067811865,9.29289321881345));
#1530=CARTESIAN_POINT('Origin',(7.,9.99999999999999,31.4142135623731));
#1531=CARTESIAN_POINT('',(-7.,9.00000000000002,31.4142135623731));
#1532=CARTESIAN_POINT('Origin',(-7.,9.99999999999999,31.4142135623731));
#1533=CARTESIAN_POINT('',(7.,9.00000000000002,31.4142135623731));
#1534=CARTESIAN_POINT('',(7.,9.00000000000002,31.4142135623731));
#1535=CARTESIAN_POINT('Origin',(7.,9.99999999999999,31.4142135623731));
#1536=CARTESIAN_POINT('Origin',(7.,26.6360389693211,8.4142135623731));
#1537=CARTESIAN_POINT('',(-7.,26.6360389693211,8.4142135623731));
#1538=CARTESIAN_POINT('',(-7.,8.41421356237309,26.6360389693211));
#1539=CARTESIAN_POINT('',(-7.,26.6360389693211,8.4142135623731));
#1540=CARTESIAN_POINT('',(7.,26.6360389693211,8.4142135623731));
#1541=CARTESIAN_POINT('',(7.,26.6360389693211,8.4142135623731));
#1542=CARTESIAN_POINT('',(7.,8.41421356237309,26.6360389693211));
#1543=CARTESIAN_POINT('',(7.,26.6360389693211,8.4142135623731));
#1544=CARTESIAN_POINT('',(7.,8.41421356237309,26.6360389693211));
#1545=CARTESIAN_POINT('Origin',(7.,25.221825406948,7.));
#1546=CARTESIAN_POINT('',(-7.,25.221825406948,5.));
#1547=CARTESIAN_POINT('Origin',(-7.,25.221825406948,7.));
#1548=CARTESIAN_POINT('',(7.,25.221825406948,5.));
#1549=CARTESIAN_POINT('',(7.,25.221825406948,5.));
#1550=CARTESIAN_POINT('Origin',(7.,25.221825406948,7.));
#1551=CARTESIAN_POINT('Origin',(7.,13.,5.));
#1552=CARTESIAN_POINT('',(-7.,13.,5.));
#1553=CARTESIAN_POINT('',(-7.,13.,5.));
#1554=CARTESIAN_POINT('',(7.,13.,5.));
#1555=CARTESIAN_POINT('',(7.,13.,5.));
#1556=CARTESIAN_POINT('',(7.,13.,5.));
#1557=CARTESIAN_POINT('Origin',(7.,13.,6.));
#1558=CARTESIAN_POINT('',(-7.,12.,6.));
#1559=CARTESIAN_POINT('Origin',(-7.,13.,6.));
#1560=CARTESIAN_POINT('',(7.,12.,6.));
#1561=CARTESIAN_POINT('',(7.,12.,6.));
#1562=CARTESIAN_POINT('Origin',(7.,13.,6.));
#1563=CARTESIAN_POINT('Origin',(7.,12.,7.0250628144669));
#1564=CARTESIAN_POINT('',(-7.,12.,7.0250628144669));
#1565=CARTESIAN_POINT('',(-7.,12.,7.0250628144669));
#1566=CARTESIAN_POINT('',(7.,12.,7.0250628144669));
#1567=CARTESIAN_POINT('',(7.,12.,7.0250628144669));
#1568=CARTESIAN_POINT('',(7.,12.,7.0250628144669));
#1569=CARTESIAN_POINT('Origin',(7.,12.5,7.0250628144669));
#1570=CARTESIAN_POINT('',(-7.,12.45,7.52255653302021));
#1571=CARTESIAN_POINT('Origin',(-7.,12.5,7.0250628144669));
#1572=CARTESIAN_POINT('',(7.,12.45,7.52255653302021));
#1573=CARTESIAN_POINT('',(7.,12.45,7.52255653302021));
#1574=CARTESIAN_POINT('Origin',(7.,12.5,7.0250628144669));
#1575=CARTESIAN_POINT('Origin',(7.,12.,12.));
#1576=CARTESIAN_POINT('',(-7.,16.4581599050562,12.612217494808));
#1577=CARTESIAN_POINT('Origin',(-7.,12.,12.));
#1578=CARTESIAN_POINT('',(7.,16.4581599050562,12.612217494808));
#1579=CARTESIAN_POINT('',(7.,16.4581599050562,12.612217494808));
#1580=CARTESIAN_POINT('Origin',(7.,12.,12.));
#1581=CARTESIAN_POINT('Origin',(7.,15.9628088044944,12.5441933287182));
#1582=CARTESIAN_POINT('',(-7.,15.8333992819432,13.0271562418627));
#1583=CARTESIAN_POINT('Origin',(-7.,15.9628088044944,12.5441933287182));
#1584=CARTESIAN_POINT('',(7.,15.8333992819432,13.0271562418627));
#1585=CARTESIAN_POINT('',(7.,15.8333992819432,13.0271562418627));
#1586=CARTESIAN_POINT('Origin',(7.,15.9628088044944,12.5441933287182));
#1587=CARTESIAN_POINT('Origin',(7.,14.4152974803492,12.6471770093405));
#1588=CARTESIAN_POINT('',(-7.,14.4152974803492,12.6471770093405));
#1589=CARTESIAN_POINT('',(-7.,14.4152974803492,12.6471770093405));
#1590=CARTESIAN_POINT('',(7.,14.4152974803492,12.6471770093405));
#1591=CARTESIAN_POINT('',(7.,14.4152974803492,12.6471770093405));
#1592=CARTESIAN_POINT('',(7.,14.4152974803492,12.6471770093405));
#1593=CARTESIAN_POINT('Origin',(7.,14.5447070029004,12.164214096196));
#1594=CARTESIAN_POINT('',(-7.,14.045744845469,12.1320152538046));
#1595=CARTESIAN_POINT('Origin',(-7.,14.5447070029004,12.164214096196));
#1596=CARTESIAN_POINT('',(7.,14.045744845469,12.1320152538046));
#1597=CARTESIAN_POINT('',(7.,14.045744845469,12.1320152538046));
#1598=CARTESIAN_POINT('Origin',(7.,14.5447070029004,12.164214096196));
#1599=CARTESIAN_POINT('Origin',(7.,12.,12.));
#1600=CARTESIAN_POINT('',(-7.,12.1320152538046,14.045744845469));
#1601=CARTESIAN_POINT('Origin',(-7.,12.,12.));
#1602=CARTESIAN_POINT('',(7.,12.1320152538046,14.045744845469));
#1603=CARTESIAN_POINT('',(7.,12.1320152538046,14.045744845469));
#1604=CARTESIAN_POINT('Origin',(7.,12.,12.));
#1605=CARTESIAN_POINT('Origin',(7.,12.164214096196,14.5447070029004));
#1606=CARTESIAN_POINT('',(-7.,12.6471770093405,14.4152974803492));
#1607=CARTESIAN_POINT('Origin',(-7.,12.164214096196,14.5447070029004));
#1608=CARTESIAN_POINT('',(7.,12.6471770093405,14.4152974803492));
#1609=CARTESIAN_POINT('',(7.,12.6471770093405,14.4152974803492));
#1610=CARTESIAN_POINT('Origin',(7.,12.164214096196,14.5447070029004));
#1611=CARTESIAN_POINT('Origin',(7.,13.0271562418627,15.8333992819432));
#1612=CARTESIAN_POINT('',(-7.,13.0271562418627,15.8333992819432));
#1613=CARTESIAN_POINT('',(-7.,13.0271562418627,15.8333992819432));
#1614=CARTESIAN_POINT('',(7.,13.0271562418627,15.8333992819432));
#1615=CARTESIAN_POINT('',(7.,13.0271562418627,15.8333992819432));
#1616=CARTESIAN_POINT('',(7.,13.0271562418627,15.8333992819432));
#1617=CARTESIAN_POINT('Origin',(7.,12.5441933287182,15.9628088044944));
#1618=CARTESIAN_POINT('',(-7.,12.612217494808,16.4581599050562));
#1619=CARTESIAN_POINT('Origin',(-7.,12.5441933287182,15.9628088044944));
#1620=CARTESIAN_POINT('',(7.,12.612217494808,16.4581599050562));
#1621=CARTESIAN_POINT('',(7.,12.612217494808,16.4581599050562));
#1622=CARTESIAN_POINT('Origin',(7.,12.5441933287182,15.9628088044944));
#1623=CARTESIAN_POINT('Origin',(7.,12.,12.));
#1624=CARTESIAN_POINT('',(-7.,7.52255653302021,12.45));
#1625=CARTESIAN_POINT('Origin',(-7.,12.,12.));
#1626=CARTESIAN_POINT('',(7.,7.52255653302021,12.45));
#1627=CARTESIAN_POINT('',(7.,7.52255653302021,12.45));
#1628=CARTESIAN_POINT('Origin',(7.,12.,12.));
#1629=CARTESIAN_POINT('Origin',(7.,7.0250628144669,12.5));
#1630=CARTESIAN_POINT('',(-7.,7.0250628144669,12.));
#1631=CARTESIAN_POINT('Origin',(-7.,7.0250628144669,12.5));
#1632=CARTESIAN_POINT('',(7.,7.0250628144669,12.));
#1633=CARTESIAN_POINT('',(7.,7.0250628144669,12.));
#1634=CARTESIAN_POINT('Origin',(7.,7.0250628144669,12.5));
#1635=CARTESIAN_POINT('Origin',(7.,6.,12.));
#1636=CARTESIAN_POINT('',(-7.,6.,12.));
#1637=CARTESIAN_POINT('',(-7.,6.,12.));
#1638=CARTESIAN_POINT('',(7.,6.,12.));
#1639=CARTESIAN_POINT('',(7.,6.,12.));
#1640=CARTESIAN_POINT('',(7.,6.,12.));
#1641=CARTESIAN_POINT('Origin',(7.,6.,13.));
#1642=CARTESIAN_POINT('',(-7.,5.,13.));
#1643=CARTESIAN_POINT('Origin',(-7.,6.,13.));
#1644=CARTESIAN_POINT('',(7.,5.,13.));
#1645=CARTESIAN_POINT('',(7.,5.,13.));
#1646=CARTESIAN_POINT('Origin',(7.,6.,13.));
#1647=CARTESIAN_POINT('Origin',(7.,5.,25.221825406948));
#1648=CARTESIAN_POINT('',(-7.,5.,25.221825406948));
#1649=CARTESIAN_POINT('',(-7.,5.,25.221825406948));
#1650=CARTESIAN_POINT('',(7.,5.,25.221825406948));
#1651=CARTESIAN_POINT('',(7.,5.,25.221825406948));
#1652=CARTESIAN_POINT('',(7.,5.,25.221825406948));
#1653=CARTESIAN_POINT('Origin',(7.,7.,25.221825406948));
#1654=CARTESIAN_POINT('Origin',(-7.,7.,25.221825406948));
#1655=CARTESIAN_POINT('Origin',(7.,7.,25.221825406948));
#1656=CARTESIAN_POINT('Origin',(7.,9.00000000000001,31.4142135623731));
#1657=CARTESIAN_POINT('',(-7.,9.00000000000001,31.4142135623731));
#1658=CARTESIAN_POINT('',(7.,9.00000000000001,31.4142135623731));
#1659=CARTESIAN_POINT('',(-3.36777869765522E-16,9.,43.75));
#1660=CARTESIAN_POINT('Origin',(0.,9.,41.));
#1661=CARTESIAN_POINT('Origin',(7.,8.00000000000001,50.));
#1662=CARTESIAN_POINT('Origin',(-7.,8.00000000000001,50.));
#1663=CARTESIAN_POINT('Origin',(3.,-0.4,51.));
#1664=CARTESIAN_POINT('',(-3.,-1.,50.4));
#1665=CARTESIAN_POINT('',(-3.,-0.4,51.));
#1666=CARTESIAN_POINT('',(3.,-1.,50.4));
#1667=CARTESIAN_POINT('',(3.,-1.,50.4));
#1668=CARTESIAN_POINT('',(3.,-0.4,51.));
#1669=CARTESIAN_POINT('Origin',(3.,-1.,50.4));
#1670=CARTESIAN_POINT('',(-3.,-1.,48.6));
#1671=CARTESIAN_POINT('',(-3.,-1.,50.4));
#1672=CARTESIAN_POINT('',(3.,-1.,48.6));
#1673=CARTESIAN_POINT('',(3.,-1.,48.6));
#1674=CARTESIAN_POINT('',(3.,-1.,50.4));
#1675=CARTESIAN_POINT('Origin',(3.,-1.,48.6));
#1676=CARTESIAN_POINT('',(-3.,-0.4,48.));
#1677=CARTESIAN_POINT('',(-3.,-1.,48.6));
#1678=CARTESIAN_POINT('',(3.,-0.4,48.));
#1679=CARTESIAN_POINT('',(3.,-0.4,48.));
#1680=CARTESIAN_POINT('',(3.,-1.,48.6));
#1681=CARTESIAN_POINT('Origin',(3.,-0.4,48.));
#1682=CARTESIAN_POINT('',(-3.,-0.4,2.6));
#1683=CARTESIAN_POINT('',(-3.,-0.4,48.));
#1684=CARTESIAN_POINT('',(3.,-0.4,2.6));
#1685=CARTESIAN_POINT('',(3.,-0.4,2.6));
#1686=CARTESIAN_POINT('',(3.,-0.4,48.));
#1687=CARTESIAN_POINT('',(0.,-0.4,43.75));
#1688=CARTESIAN_POINT('Origin',(0.,-0.4,41.));
#1689=CARTESIAN_POINT('Origin',(3.,-0.4,2.60000000000001));
#1690=CARTESIAN_POINT('',(-3.,-1.,2.00000000000001));
#1691=CARTESIAN_POINT('',(-3.,-0.4,2.60000000000001));
#1692=CARTESIAN_POINT('',(3.,-1.,2.00000000000001));
#1693=CARTESIAN_POINT('',(3.,-1.,2.00000000000001));
#1694=CARTESIAN_POINT('',(3.,-0.4,2.60000000000001));
#1695=CARTESIAN_POINT('Origin',(3.,-1.,2.00000000000001));
#1696=CARTESIAN_POINT('',(-3.,-1.,0.2));
#1697=CARTESIAN_POINT('',(-3.,-1.,2.00000000000001));
#1698=CARTESIAN_POINT('',(3.,-1.,0.2));
#1699=CARTESIAN_POINT('',(3.,-1.,0.2));
#1700=CARTESIAN_POINT('',(3.,-1.,2.00000000000001));
#1701=CARTESIAN_POINT('Origin',(3.,-1.,0.2));
#1702=CARTESIAN_POINT('',(-3.,0.2,-1.));
#1703=CARTESIAN_POINT('',(-3.,-1.,0.2));
#1704=CARTESIAN_POINT('',(3.,0.2,-1.));
#1705=CARTESIAN_POINT('',(3.,0.2,-1.));
#1706=CARTESIAN_POINT('',(3.,-1.,0.2));
#1707=CARTESIAN_POINT('Origin',(3.,0.2,-1.));
#1708=CARTESIAN_POINT('',(-3.,2.,-1.));
#1709=CARTESIAN_POINT('',(-3.,0.2,-1.));
#1710=CARTESIAN_POINT('',(3.,2.,-1.));
#1711=CARTESIAN_POINT('',(3.,2.,-1.));
#1712=CARTESIAN_POINT('',(3.,0.2,-1.));
#1713=CARTESIAN_POINT('Origin',(3.,2.,-1.));
#1714=CARTESIAN_POINT('',(-3.,2.6,-0.399999999999999));
#1715=CARTESIAN_POINT('',(-3.,2.,-1.));
#1716=CARTESIAN_POINT('',(3.,2.6,-0.399999999999999));
#1717=CARTESIAN_POINT('',(3.,2.6,-0.399999999999999));
#1718=CARTESIAN_POINT('',(3.,2.,-1.));
#1719=CARTESIAN_POINT('Origin',(3.,2.6,-0.399999999999999));
#1720=CARTESIAN_POINT('',(-3.,48.,-0.399999999999999));
#1721=CARTESIAN_POINT('',(-3.,2.6,-0.399999999999999));
#1722=CARTESIAN_POINT('',(3.,48.,-0.399999999999999));
#1723=CARTESIAN_POINT('',(3.,48.,-0.399999999999999));
#1724=CARTESIAN_POINT('',(3.,2.6,-0.399999999999999));
#1725=CARTESIAN_POINT('',(-2.75,41.,-0.399999999999999));
#1726=CARTESIAN_POINT('Origin',(0.,41.,-0.399999999999999));
#1727=CARTESIAN_POINT('Origin',(3.,48.,-0.399999999999999));
#1728=CARTESIAN_POINT('',(-3.,48.6,-1.));
#1729=CARTESIAN_POINT('',(-3.,48.,-0.399999999999999));
#1730=CARTESIAN_POINT('',(3.,48.6,-1.));
#1731=CARTESIAN_POINT('',(3.,48.6,-1.));
#1732=CARTESIAN_POINT('',(3.,48.,-0.399999999999999));
#1733=CARTESIAN_POINT('Origin',(3.,48.6,-1.));
#1734=CARTESIAN_POINT('',(-3.,50.4,-0.999999999999993));
#1735=CARTESIAN_POINT('',(-3.,48.6,-1.));
#1736=CARTESIAN_POINT('',(3.,50.4,-0.999999999999993));
#1737=CARTESIAN_POINT('',(3.,50.4,-0.999999999999993));
#1738=CARTESIAN_POINT('',(3.,48.6,-1.));
#1739=CARTESIAN_POINT('Origin',(3.,50.4,-0.999999999999993));
#1740=CARTESIAN_POINT('',(-3.,50.4,-0.999999999999993));
#1741=CARTESIAN_POINT('',(3.,50.4,-0.999999999999993));
#1742=CARTESIAN_POINT('Origin',(3.,0.,0.));
#1743=CARTESIAN_POINT('Origin',(-3.,0.,0.));
#1744=CARTESIAN_POINT('Origin',(0.,41.,9.));
#1745=CARTESIAN_POINT('',(-2.75,41.,9.));
#1746=CARTESIAN_POINT('Origin',(0.,-1.,41.));
#1747=CARTESIAN_POINT('',(-3.36777869765522E-16,-1.,43.75));
#1748=UNCERTAINTY_MEASURE_WITH_UNIT(LENGTH_MEASURE(0.01),#1752,
'DISTANCE_ACCURACY_VALUE',
'Maximum model space distance between geometric entities at asserted c
onnectivities');
#1749=UNCERTAINTY_MEASURE_WITH_UNIT(LENGTH_MEASURE(0.01),#1752,
'DISTANCE_ACCURACY_VALUE',
'Maximum model space distance between geometric entities at asserted c
onnectivities');
#1750=(
GEOMETRIC_REPRESENTATION_CONTEXT(3)
GLOBAL_UNCERTAINTY_ASSIGNED_CONTEXT((#1748))
GLOBAL_UNIT_ASSIGNED_CONTEXT((#1752,#1754,#1755))
REPRESENTATION_CONTEXT('','3D')
);
#1751=(
GEOMETRIC_REPRESENTATION_CONTEXT(3)
GLOBAL_UNCERTAINTY_ASSIGNED_CONTEXT((#1749))
GLOBAL_UNIT_ASSIGNED_CONTEXT((#1752,#1754,#1755))
REPRESENTATION_CONTEXT('','3D')
);
#1752=(
LENGTH_UNIT()
NAMED_UNIT(*)
SI_UNIT(.MILLI.,.METRE.)
);
#1753=(
LENGTH_UNIT()
NAMED_UNIT(*)
SI_UNIT($,.METRE.)
);
#1754=(
NAMED_UNIT(*)
PLANE_ANGLE_UNIT()
SI_UNIT($,.RADIAN.)
);
#1755=(
NAMED_UNIT(*)
SI_UNIT($,.STERADIAN.)
SOLID_ANGLE_UNIT()
);
#1756=SHAPE_DEFINITION_REPRESENTATION(#1757,#1758);
#1757=PRODUCT_DEFINITION_SHAPE('',$,#1760);
#1758=SHAPE_REPRESENTATION('',(#1060),#1750);
#1759=PRODUCT_DEFINITION_CONTEXT('part definition',#1764,'design');
#1760=PRODUCT_DEFINITION('(Unsaved)','(Unsaved)',#1761,#1759);
#1761=PRODUCT_DEFINITION_FORMATION('',$,#1766);
#1762=PRODUCT_RELATED_PRODUCT_CATEGORY('(Unsaved)','(Unsaved)',(#1766));
#1763=APPLICATION_PROTOCOL_DEFINITION('international standard',
'automotive_design',2009,#1764);
#1764=APPLICATION_CONTEXT(
'Core Data for Automotive Mechanical Design Process');
#1765=PRODUCT_CONTEXT('part definition',#1764,'mechanical');
#1766=PRODUCT('(Unsaved)','(Unsaved)',$,(#1765));
#1767=PRESENTATION_STYLE_ASSIGNMENT((#1768));
#1768=SURFACE_STYLE_USAGE(.BOTH.,#1769);
#1769=SURFACE_SIDE_STYLE('',(#1770));
#1770=SURFACE_STYLE_FILL_AREA(#1771);
#1771=FILL_AREA_STYLE('Steel - Satin',(#1772));
#1772=FILL_AREA_STYLE_COLOUR('Steel - Satin',#1773);
#1773=COLOUR_RGB('Steel - Satin',0.627450980392157,0.627450980392157,0.627450980392157);
ENDSEC;
END-ISO-10303-21;
