ISO-10303-21;
HEADER;
/* Generated by software containing ST-Developer
 * from STEP Tools, Inc. (www.steptools.com) 
 */

FILE_DESCRIPTION(
/* description */ (''),
/* implementation_level */ '2;1');

FILE_NAME(
/* name */ 'SuperThick 4040.step',
/* time_stamp */ '2026-07-25T11:07:30+10:00',
/* author */ (''),
/* organization */ (''),
/* preprocessor_version */ 'ST-DEVELOPER v20.1',
/* originating_system */ 'Autodesk Translation Framework v15.8.0.0',
/* authorisation */ '');

FILE_SCHEMA (('AUTOMOTIVE_DESIGN { 1 0 10303 214 3 1 1 }'));
ENDSEC;

DATA;
#10=MECHANICAL_DESIGN_GEOMETRIC_PRESENTATION_REPRESENTATION('',(#13),#1469);
#11=SHAPE_REPRESENTATION_RELATIONSHIP('SRR','None',#1476,#12);
#12=ADVANCED_BREP_SHAPE_REPRESENTATION('',(#14),#1468);
#13=STYLED_ITEM('',(#1485),#14);
#14=MANIFOLD_SOLID_BREP('Body1',#829);
#15=CONICAL_SURFACE('',#933,2.5,0.785398163397448);
#16=CONICAL_SURFACE('',#934,2.067,0.785398163397444);
#17=B_SPLINE_CURVE_WITH_KNOTS('',3,(#1403,#1404,#1405,#1406,#1407,#1408,
#1409,#1410,#1411,#1412),.UNSPECIFIED.,.F.,.F.,(4,2,2,2,4),(0.212781742297736,
0.22987462489612,0.25409152366694,0.270218860727539,0.286346197788139),
 .UNSPECIFIED.);
#18=B_SPLINE_CURVE_WITH_KNOTS('',3,(#1414,#1415,#1416,#1417,#1418,#1419,
#1420,#1421,#1422,#1423),.UNSPECIFIED.,.F.,.F.,(4,2,2,2,4),(0.080688471662839,
0.0968158087234383,0.112943145784038,0.137160044554858,0.154252927153242),
 .UNSPECIFIED.);
#19=B_SPLINE_CURVE_WITH_KNOTS('',3,(#1432,#1433,#1434,#1435,#1436,#1437,
#1438,#1439,#1440,#1441),.UNSPECIFIED.,.F.,.F.,(4,2,2,2,4),(0.286346197788137,
0.302473534848737,0.318600871909336,0.342817770680156,0.359910653278539),
 .UNSPECIFIED.);
#20=B_SPLINE_CURVE_WITH_KNOTS('',3,(#1442,#1443,#1444,#1445,#1446,#1447,
#1448,#1449,#1450,#1451),.UNSPECIFIED.,.F.,.F.,(4,2,2,2,4),(0.00712401617243727,
0.0242168987708202,0.0484337975416404,0.0645611346022396,0.0806884716628389),
 .UNSPECIFIED.);
#21=CYLINDRICAL_SURFACE('',#885,4.5);
#22=CYLINDRICAL_SURFACE('',#886,0.999999999999999);
#23=CYLINDRICAL_SURFACE('',#890,0.999999999999996);
#24=CYLINDRICAL_SURFACE('',#892,1.);
#25=CYLINDRICAL_SURFACE('',#896,1.);
#26=CYLINDRICAL_SURFACE('',#898,1.);
#27=CYLINDRICAL_SURFACE('',#902,1.);
#28=CYLINDRICAL_SURFACE('',#906,1.);
#29=CYLINDRICAL_SURFACE('',#908,2.);
#30=CYLINDRICAL_SURFACE('',#910,2.);
#31=CYLINDRICAL_SURFACE('',#912,1.);
#32=CYLINDRICAL_SURFACE('',#914,0.5);
#33=CYLINDRICAL_SURFACE('',#915,4.5);
#34=CYLINDRICAL_SURFACE('',#916,0.5);
#35=CYLINDRICAL_SURFACE('',#918,1.);
#36=CYLINDRICAL_SURFACE('',#920,0.5);
#37=CYLINDRICAL_SURFACE('',#922,0.500000000000002);
#38=CYLINDRICAL_SURFACE('',#923,2.1);
#39=CYLINDRICAL_SURFACE('',#926,0.5);
#40=CYLINDRICAL_SURFACE('',#928,0.499999999999999);
#41=CYLINDRICAL_SURFACE('',#929,2.75);
#42=CYLINDRICAL_SURFACE('',#930,2.75);
#43=CYLINDRICAL_SURFACE('',#931,2.75);
#44=CYLINDRICAL_SURFACE('',#932,2.75);
#45=FACE_BOUND('',#98,.T.);
#46=FACE_BOUND('',#100,.T.);
#47=FACE_BOUND('',#104,.T.);
#48=FACE_BOUND('',#105,.T.);
#49=FACE_BOUND('',#110,.T.);
#50=FACE_BOUND('',#111,.T.);
#51=FACE_BOUND('',#116,.T.);
#52=FACE_BOUND('',#117,.T.);
#53=FACE_BOUND('',#120,.T.);
#54=FACE_BOUND('',#121,.T.);
#55=FACE_OUTER_BOUND('',#97,.T.);
#56=FACE_OUTER_BOUND('',#99,.T.);
#57=FACE_OUTER_BOUND('',#101,.T.);
#58=FACE_OUTER_BOUND('',#102,.T.);
#59=FACE_OUTER_BOUND('',#103,.T.);
#60=FACE_OUTER_BOUND('',#106,.T.);
#61=FACE_OUTER_BOUND('',#107,.T.);
#62=FACE_OUTER_BOUND('',#108,.T.);
#63=FACE_OUTER_BOUND('',#109,.T.);
#64=FACE_OUTER_BOUND('',#112,.T.);
#65=FACE_OUTER_BOUND('',#113,.T.);
#66=FACE_OUTER_BOUND('',#114,.T.);
#67=FACE_OUTER_BOUND('',#115,.T.);
#68=FACE_OUTER_BOUND('',#118,.T.);
#69=FACE_OUTER_BOUND('',#119,.T.);
#70=FACE_OUTER_BOUND('',#122,.T.);
#71=FACE_OUTER_BOUND('',#123,.T.);
#72=FACE_OUTER_BOUND('',#124,.T.);
#73=FACE_OUTER_BOUND('',#125,.T.);
#74=FACE_OUTER_BOUND('',#126,.T.);
#75=FACE_OUTER_BOUND('',#127,.T.);
#76=FACE_OUTER_BOUND('',#128,.T.);
#77=FACE_OUTER_BOUND('',#129,.T.);
#78=FACE_OUTER_BOUND('',#130,.T.);
#79=FACE_OUTER_BOUND('',#131,.T.);
#80=FACE_OUTER_BOUND('',#132,.T.);
#81=FACE_OUTER_BOUND('',#133,.T.);
#82=FACE_OUTER_BOUND('',#134,.T.);
#83=FACE_OUTER_BOUND('',#135,.T.);
#84=FACE_OUTER_BOUND('',#136,.T.);
#85=FACE_OUTER_BOUND('',#137,.T.);
#86=FACE_OUTER_BOUND('',#138,.T.);
#87=FACE_OUTER_BOUND('',#139,.T.);
#88=FACE_OUTER_BOUND('',#140,.T.);
#89=FACE_OUTER_BOUND('',#141,.T.);
#90=FACE_OUTER_BOUND('',#142,.T.);
#91=FACE_OUTER_BOUND('',#143,.T.);
#92=FACE_OUTER_BOUND('',#144,.T.);
#93=FACE_OUTER_BOUND('',#145,.T.);
#94=FACE_OUTER_BOUND('',#146,.T.);
#95=FACE_OUTER_BOUND('',#147,.T.);
#96=FACE_OUTER_BOUND('',#148,.T.);
#97=EDGE_LOOP('',(#531,#532,#533,#534,#535,#536,#537,#538,#539,#540,#541,
#542,#543,#544));
#98=EDGE_LOOP('',(#545,#546,#547,#548,#549,#550,#551,#552,#553,#554,#555,
#556,#557,#558,#559,#560,#561,#562,#563,#564));
#99=EDGE_LOOP('',(#565,#566,#567,#568,#569,#570,#571,#572,#573,#574,#575,
#576,#577,#578));
#100=EDGE_LOOP('',(#579,#580,#581,#582,#583,#584,#585,#586,#587,#588,#589,
#590,#591,#592,#593,#594,#595,#596,#597,#598));
#101=EDGE_LOOP('',(#599,#600,#601,#602));
#102=EDGE_LOOP('',(#603,#604,#605,#606));
#103=EDGE_LOOP('',(#607,#608,#609,#610));
#104=EDGE_LOOP('',(#611));
#105=EDGE_LOOP('',(#612));
#106=EDGE_LOOP('',(#613,#614,#615,#616));
#107=EDGE_LOOP('',(#617,#618,#619,#620));
#108=EDGE_LOOP('',(#621,#622,#623,#624));
#109=EDGE_LOOP('',(#625,#626,#627,#628));
#110=EDGE_LOOP('',(#629));
#111=EDGE_LOOP('',(#630));
#112=EDGE_LOOP('',(#631,#632,#633,#634));
#113=EDGE_LOOP('',(#635,#636,#637,#638));
#114=EDGE_LOOP('',(#639,#640,#641,#642));
#115=EDGE_LOOP('',(#643,#644,#645,#646));
#116=EDGE_LOOP('',(#647));
#117=EDGE_LOOP('',(#648));
#118=EDGE_LOOP('',(#649,#650,#651,#652));
#119=EDGE_LOOP('',(#653,#654,#655,#656));
#120=EDGE_LOOP('',(#657));
#121=EDGE_LOOP('',(#658));
#122=EDGE_LOOP('',(#659,#660,#661,#662));
#123=EDGE_LOOP('',(#663,#664,#665,#666));
#124=EDGE_LOOP('',(#667,#668,#669,#670));
#125=EDGE_LOOP('',(#671,#672,#673,#674));
#126=EDGE_LOOP('',(#675,#676,#677,#678));
#127=EDGE_LOOP('',(#679,#680,#681,#682));
#128=EDGE_LOOP('',(#683,#684,#685,#686));
#129=EDGE_LOOP('',(#687,#688,#689,#690));
#130=EDGE_LOOP('',(#691,#692,#693,#694));
#131=EDGE_LOOP('',(#695,#696,#697,#698));
#132=EDGE_LOOP('',(#699,#700,#701,#702));
#133=EDGE_LOOP('',(#703,#704,#705,#706));
#134=EDGE_LOOP('',(#707,#708,#709,#710));
#135=EDGE_LOOP('',(#711,#712,#713,#714));
#136=EDGE_LOOP('',(#715,#716,#717,#718));
#137=EDGE_LOOP('',(#719,#720,#721,#722));
#138=EDGE_LOOP('',(#723,#724,#725,#726,#727,#728));
#139=EDGE_LOOP('',(#729,#730,#731,#732));
#140=EDGE_LOOP('',(#733,#734,#735,#736,#737,#738));
#141=EDGE_LOOP('',(#739,#740,#741,#742));
#142=EDGE_LOOP('',(#743,#744,#745,#746));
#143=EDGE_LOOP('',(#747,#748,#749,#750));
#144=EDGE_LOOP('',(#751,#752,#753,#754));
#145=EDGE_LOOP('',(#755,#756,#757,#758));
#146=EDGE_LOOP('',(#759,#760,#761,#762));
#147=EDGE_LOOP('',(#763,#764,#765,#766));
#148=EDGE_LOOP('',(#767,#768,#769,#770));
#149=LINE('',#1193,#215);
#150=LINE('',#1197,#216);
#151=LINE('',#1201,#217);
#152=LINE('',#1205,#218);
#153=LINE('',#1209,#219);
#154=LINE('',#1213,#220);
#155=LINE('',#1216,#221);
#156=LINE('',#1225,#222);
#157=LINE('',#1233,#223);
#158=LINE('',#1237,#224);
#159=LINE('',#1241,#225);
#160=LINE('',#1245,#226);
#161=LINE('',#1249,#227);
#162=LINE('',#1256,#228);
#163=LINE('',#1262,#229);
#164=LINE('',#1266,#230);
#165=LINE('',#1270,#231);
#166=LINE('',#1274,#232);
#167=LINE('',#1278,#233);
#168=LINE('',#1282,#234);
#169=LINE('',#1285,#235);
#170=LINE('',#1292,#236);
#171=LINE('',#1300,#237);
#172=LINE('',#1304,#238);
#173=LINE('',#1308,#239);
#174=LINE('',#1312,#240);
#175=LINE('',#1316,#241);
#176=LINE('',#1324,#242);
#177=LINE('',#1327,#243);
#178=LINE('',#1328,#244);
#179=LINE('',#1330,#245);
#180=LINE('',#1331,#246);
#181=LINE('',#1333,#247);
#182=LINE('',#1339,#248);
#183=LINE('',#1341,#249);
#184=LINE('',#1343,#250);
#185=LINE('',#1345,#251);
#186=LINE('',#1351,#252);
#187=LINE('',#1353,#253);
#188=LINE('',#1355,#254);
#189=LINE('',#1357,#255);
#190=LINE('',#1363,#256);
#191=LINE('',#1365,#257);
#192=LINE('',#1371,#258);
#193=LINE('',#1374,#259);
#194=LINE('',#1375,#260);
#195=LINE('',#1377,#261);
#196=LINE('',#1379,#262);
#197=LINE('',#1381,#263);
#198=LINE('',#1383,#264);
#199=LINE('',#1385,#265);
#200=LINE('',#1388,#266);
#201=LINE('',#1389,#267);
#202=LINE('',#1391,#268);
#203=LINE('',#1393,#269);
#204=LINE('',#1395,#270);
#205=LINE('',#1398,#271);
#206=LINE('',#1400,#272);
#207=LINE('',#1424,#273);
#208=LINE('',#1430,#274);
#209=LINE('',#1452,#275);
#210=LINE('',#1454,#276);
#211=LINE('',#1457,#277);
#212=LINE('',#1459,#278);
#213=LINE('',#1461,#279);
#214=LINE('',#1463,#280);
#215=VECTOR('',#941,1000.);
#216=VECTOR('',#944,1000.);
#217=VECTOR('',#947,1000.);
#218=VECTOR('',#950,1000.);
#219=VECTOR('',#953,1000.);
#220=VECTOR('',#956,1000.);
#221=VECTOR('',#959,1000.);
#222=VECTOR('',#966,1000.);
#223=VECTOR('',#973,1000.);
#224=VECTOR('',#976,1000.);
#225=VECTOR('',#979,1000.);
#226=VECTOR('',#982,1000.);
#227=VECTOR('',#985,1000.);
#228=VECTOR('',#992,1000.);
#229=VECTOR('',#997,1000.);
#230=VECTOR('',#1000,1000.);
#231=VECTOR('',#1003,1000.);
#232=VECTOR('',#1006,1000.);
#233=VECTOR('',#1009,1000.);
#234=VECTOR('',#1012,1000.);
#235=VECTOR('',#1015,1000.);
#236=VECTOR('',#1020,1000.);
#237=VECTOR('',#1027,1000.);
#238=VECTOR('',#1030,1000.);
#239=VECTOR('',#1033,1000.);
#240=VECTOR('',#1036,1000.);
#241=VECTOR('',#1039,1000.);
#242=VECTOR('',#1046,1000.);
#243=VECTOR('',#1051,1000.);
#244=VECTOR('',#1052,1000.);
#245=VECTOR('',#1055,1000.);
#246=VECTOR('',#1056,1000.);
#247=VECTOR('',#1059,1000.);
#248=VECTOR('',#1066,1000.);
#249=VECTOR('',#1069,1000.);
#250=VECTOR('',#1072,1000.);
#251=VECTOR('',#1075,1000.);
#252=VECTOR('',#1082,1000.);
#253=VECTOR('',#1085,1000.);
#254=VECTOR('',#1088,1000.);
#255=VECTOR('',#1091,1000.);
#256=VECTOR('',#1098,1000.);
#257=VECTOR('',#1101,1000.);
#258=VECTOR('',#1108,1000.);
#259=VECTOR('',#1113,1000.);
#260=VECTOR('',#1114,1000.);
#261=VECTOR('',#1117,1000.);
#262=VECTOR('',#1120,1000.);
#263=VECTOR('',#1123,1000.);
#264=VECTOR('',#1126,1000.);
#265=VECTOR('',#1129,1000.);
#266=VECTOR('',#1134,1000.);
#267=VECTOR('',#1135,1000.);
#268=VECTOR('',#1138,1000.);
#269=VECTOR('',#1141,1000.);
#270=VECTOR('',#1144,1000.);
#271=VECTOR('',#1149,1000.);
#272=VECTOR('',#1152,1000.);
#273=VECTOR('',#1155,1000.);
#274=VECTOR('',#1162,1000.);
#275=VECTOR('',#1165,1000.);
#276=VECTOR('',#1168,1000.);
#277=VECTOR('',#1173,2.75);
#278=VECTOR('',#1176,2.75);
#279=VECTOR('',#1179,2.75);
#280=VECTOR('',#1182,2.75);
#281=CIRCLE('',#844,0.999999999999999);
#282=CIRCLE('',#845,0.999999999999996);
#283=CIRCLE('',#846,1.);
#284=CIRCLE('',#847,1.);
#285=CIRCLE('',#848,1.);
#286=CIRCLE('',#849,1.);
#287=CIRCLE('',#850,1.);
#288=CIRCLE('',#851,0.5);
#289=CIRCLE('',#852,2.5);
#290=CIRCLE('',#853,0.500000000000002);
#291=CIRCLE('',#854,0.5);
#292=CIRCLE('',#855,4.5);
#293=CIRCLE('',#856,0.5);
#294=CIRCLE('',#857,1.);
#295=CIRCLE('',#858,2.);
#296=CIRCLE('',#859,2.);
#297=CIRCLE('',#860,1.);
#298=CIRCLE('',#861,0.5);
#299=CIRCLE('',#862,4.5);
#300=CIRCLE('',#863,0.499999999999999);
#301=CIRCLE('',#865,0.999999999999999);
#302=CIRCLE('',#866,1.);
#303=CIRCLE('',#867,1.);
#304=CIRCLE('',#868,1.);
#305=CIRCLE('',#869,1.);
#306=CIRCLE('',#870,1.);
#307=CIRCLE('',#871,0.999999999999996);
#308=CIRCLE('',#872,2.5);
#309=CIRCLE('',#873,0.5);
#310=CIRCLE('',#874,0.499999999999999);
#311=CIRCLE('',#875,4.5);
#312=CIRCLE('',#876,0.5);
#313=CIRCLE('',#877,1.);
#314=CIRCLE('',#878,2.);
#315=CIRCLE('',#879,2.);
#316=CIRCLE('',#880,1.);
#317=CIRCLE('',#881,0.5);
#318=CIRCLE('',#882,4.5);
#319=CIRCLE('',#883,0.5);
#320=CIRCLE('',#884,0.500000000000002);
#321=CIRCLE('',#888,2.75);
#322=CIRCLE('',#889,2.75);
#323=CIRCLE('',#894,2.75);
#324=CIRCLE('',#895,2.75);
#325=CIRCLE('',#900,2.75);
#326=CIRCLE('',#901,2.75);
#327=CIRCLE('',#904,2.75);
#328=CIRCLE('',#905,2.75);
#329=CIRCLE('',#924,2.1);
#330=CIRCLE('',#925,2.1);
#331=VERTEX_POINT('',#1189);
#332=VERTEX_POINT('',#1190);
#333=VERTEX_POINT('',#1192);
#334=VERTEX_POINT('',#1194);
#335=VERTEX_POINT('',#1196);
#336=VERTEX_POINT('',#1198);
#337=VERTEX_POINT('',#1200);
#338=VERTEX_POINT('',#1202);
#339=VERTEX_POINT('',#1204);
#340=VERTEX_POINT('',#1206);
#341=VERTEX_POINT('',#1208);
#342=VERTEX_POINT('',#1210);
#343=VERTEX_POINT('',#1212);
#344=VERTEX_POINT('',#1214);
#345=VERTEX_POINT('',#1217);
#346=VERTEX_POINT('',#1218);
#347=VERTEX_POINT('',#1220);
#348=VERTEX_POINT('',#1222);
#349=VERTEX_POINT('',#1224);
#350=VERTEX_POINT('',#1226);
#351=VERTEX_POINT('',#1228);
#352=VERTEX_POINT('',#1230);
#353=VERTEX_POINT('',#1232);
#354=VERTEX_POINT('',#1234);
#355=VERTEX_POINT('',#1236);
#356=VERTEX_POINT('',#1238);
#357=VERTEX_POINT('',#1240);
#358=VERTEX_POINT('',#1242);
#359=VERTEX_POINT('',#1244);
#360=VERTEX_POINT('',#1246);
#361=VERTEX_POINT('',#1248);
#362=VERTEX_POINT('',#1250);
#363=VERTEX_POINT('',#1252);
#364=VERTEX_POINT('',#1254);
#365=VERTEX_POINT('',#1258);
#366=VERTEX_POINT('',#1259);
#367=VERTEX_POINT('',#1261);
#368=VERTEX_POINT('',#1263);
#369=VERTEX_POINT('',#1265);
#370=VERTEX_POINT('',#1267);
#371=VERTEX_POINT('',#1269);
#372=VERTEX_POINT('',#1271);
#373=VERTEX_POINT('',#1273);
#374=VERTEX_POINT('',#1275);
#375=VERTEX_POINT('',#1277);
#376=VERTEX_POINT('',#1279);
#377=VERTEX_POINT('',#1281);
#378=VERTEX_POINT('',#1283);
#379=VERTEX_POINT('',#1286);
#380=VERTEX_POINT('',#1287);
#381=VERTEX_POINT('',#1289);
#382=VERTEX_POINT('',#1291);
#383=VERTEX_POINT('',#1293);
#384=VERTEX_POINT('',#1295);
#385=VERTEX_POINT('',#1297);
#386=VERTEX_POINT('',#1299);
#387=VERTEX_POINT('',#1301);
#388=VERTEX_POINT('',#1303);
#389=VERTEX_POINT('',#1305);
#390=VERTEX_POINT('',#1307);
#391=VERTEX_POINT('',#1309);
#392=VERTEX_POINT('',#1311);
#393=VERTEX_POINT('',#1313);
#394=VERTEX_POINT('',#1315);
#395=VERTEX_POINT('',#1317);
#396=VERTEX_POINT('',#1319);
#397=VERTEX_POINT('',#1321);
#398=VERTEX_POINT('',#1323);
#399=VERTEX_POINT('',#1334);
#400=VERTEX_POINT('',#1336);
#401=VERTEX_POINT('',#1346);
#402=VERTEX_POINT('',#1348);
#403=VERTEX_POINT('',#1358);
#404=VERTEX_POINT('',#1360);
#405=VERTEX_POINT('',#1366);
#406=VERTEX_POINT('',#1368);
#407=VERTEX_POINT('',#1402);
#408=VERTEX_POINT('',#1413);
#409=VERTEX_POINT('',#1426);
#410=VERTEX_POINT('',#1428);
#411=EDGE_CURVE('',#331,#332,#281,.T.);
#412=EDGE_CURVE('',#332,#333,#149,.T.);
#413=EDGE_CURVE('',#333,#334,#282,.T.);
#414=EDGE_CURVE('',#334,#335,#150,.T.);
#415=EDGE_CURVE('',#335,#336,#283,.T.);
#416=EDGE_CURVE('',#336,#337,#151,.T.);
#417=EDGE_CURVE('',#337,#338,#284,.T.);
#418=EDGE_CURVE('',#338,#339,#152,.T.);
#419=EDGE_CURVE('',#339,#340,#285,.T.);
#420=EDGE_CURVE('',#340,#341,#153,.T.);
#421=EDGE_CURVE('',#341,#342,#286,.T.);
#422=EDGE_CURVE('',#342,#343,#154,.T.);
#423=EDGE_CURVE('',#343,#344,#287,.T.);
#424=EDGE_CURVE('',#344,#331,#155,.T.);
#425=EDGE_CURVE('',#345,#346,#288,.T.);
#426=EDGE_CURVE('',#347,#346,#289,.T.);
#427=EDGE_CURVE('',#347,#348,#290,.T.);
#428=EDGE_CURVE('',#348,#349,#156,.T.);
#429=EDGE_CURVE('',#349,#350,#291,.T.);
#430=EDGE_CURVE('',#350,#351,#292,.T.);
#431=EDGE_CURVE('',#351,#352,#293,.T.);
#432=EDGE_CURVE('',#352,#353,#157,.T.);
#433=EDGE_CURVE('',#353,#354,#294,.T.);
#434=EDGE_CURVE('',#354,#355,#158,.T.);
#435=EDGE_CURVE('',#355,#356,#295,.T.);
#436=EDGE_CURVE('',#356,#357,#159,.T.);
#437=EDGE_CURVE('',#357,#358,#296,.T.);
#438=EDGE_CURVE('',#358,#359,#160,.T.);
#439=EDGE_CURVE('',#359,#360,#297,.T.);
#440=EDGE_CURVE('',#360,#361,#161,.T.);
#441=EDGE_CURVE('',#361,#362,#298,.T.);
#442=EDGE_CURVE('',#362,#363,#299,.T.);
#443=EDGE_CURVE('',#363,#364,#300,.T.);
#444=EDGE_CURVE('',#364,#345,#162,.T.);
#445=EDGE_CURVE('',#365,#366,#301,.T.);
#446=EDGE_CURVE('',#367,#365,#163,.T.);
#447=EDGE_CURVE('',#368,#367,#302,.T.);
#448=EDGE_CURVE('',#369,#368,#164,.T.);
#449=EDGE_CURVE('',#370,#369,#303,.T.);
#450=EDGE_CURVE('',#371,#370,#165,.T.);
#451=EDGE_CURVE('',#372,#371,#304,.T.);
#452=EDGE_CURVE('',#373,#372,#166,.T.);
#453=EDGE_CURVE('',#374,#373,#305,.T.);
#454=EDGE_CURVE('',#375,#374,#167,.T.);
#455=EDGE_CURVE('',#376,#375,#306,.T.);
#456=EDGE_CURVE('',#377,#376,#168,.T.);
#457=EDGE_CURVE('',#378,#377,#307,.T.);
#458=EDGE_CURVE('',#366,#378,#169,.T.);
#459=EDGE_CURVE('',#379,#380,#308,.T.);
#460=EDGE_CURVE('',#380,#381,#309,.T.);
#461=EDGE_CURVE('',#381,#382,#170,.T.);
#462=EDGE_CURVE('',#382,#383,#310,.T.);
#463=EDGE_CURVE('',#383,#384,#311,.T.);
#464=EDGE_CURVE('',#384,#385,#312,.T.);
#465=EDGE_CURVE('',#385,#386,#171,.T.);
#466=EDGE_CURVE('',#386,#387,#313,.T.);
#467=EDGE_CURVE('',#387,#388,#172,.T.);
#468=EDGE_CURVE('',#388,#389,#314,.T.);
#469=EDGE_CURVE('',#389,#390,#173,.T.);
#470=EDGE_CURVE('',#390,#391,#315,.T.);
#471=EDGE_CURVE('',#391,#392,#174,.T.);
#472=EDGE_CURVE('',#392,#393,#316,.T.);
#473=EDGE_CURVE('',#393,#394,#175,.T.);
#474=EDGE_CURVE('',#394,#395,#317,.T.);
#475=EDGE_CURVE('',#395,#396,#318,.T.);
#476=EDGE_CURVE('',#396,#397,#319,.T.);
#477=EDGE_CURVE('',#397,#398,#176,.T.);
#478=EDGE_CURVE('',#398,#379,#320,.T.);
#479=EDGE_CURVE('',#350,#396,#177,.T.);
#480=EDGE_CURVE('',#351,#395,#178,.T.);
#481=EDGE_CURVE('',#332,#366,#179,.T.);
#482=EDGE_CURVE('',#331,#365,#180,.T.);
#483=EDGE_CURVE('',#333,#378,#181,.T.);
#484=EDGE_CURVE('',#399,#399,#321,.T.);
#485=EDGE_CURVE('',#400,#400,#322,.T.);
#486=EDGE_CURVE('',#334,#377,#182,.T.);
#487=EDGE_CURVE('',#335,#376,#183,.T.);
#488=EDGE_CURVE('',#336,#375,#184,.T.);
#489=EDGE_CURVE('',#337,#374,#185,.T.);
#490=EDGE_CURVE('',#401,#401,#323,.T.);
#491=EDGE_CURVE('',#402,#402,#324,.T.);
#492=EDGE_CURVE('',#338,#373,#186,.T.);
#493=EDGE_CURVE('',#339,#372,#187,.T.);
#494=EDGE_CURVE('',#340,#371,#188,.T.);
#495=EDGE_CURVE('',#341,#370,#189,.T.);
#496=EDGE_CURVE('',#403,#403,#325,.T.);
#497=EDGE_CURVE('',#404,#404,#326,.T.);
#498=EDGE_CURVE('',#342,#369,#190,.T.);
#499=EDGE_CURVE('',#343,#368,#191,.T.);
#500=EDGE_CURVE('',#405,#405,#327,.T.);
#501=EDGE_CURVE('',#406,#406,#328,.T.);
#502=EDGE_CURVE('',#344,#367,#192,.T.);
#503=EDGE_CURVE('',#357,#389,#193,.T.);
#504=EDGE_CURVE('',#358,#388,#194,.T.);
#505=EDGE_CURVE('',#356,#390,#195,.T.);
#506=EDGE_CURVE('',#355,#391,#196,.T.);
#507=EDGE_CURVE('',#354,#392,#197,.T.);
#508=EDGE_CURVE('',#353,#393,#198,.T.);
#509=EDGE_CURVE('',#352,#394,#199,.T.);
#510=EDGE_CURVE('',#363,#383,#200,.T.);
#511=EDGE_CURVE('',#362,#384,#201,.T.);
#512=EDGE_CURVE('',#361,#385,#202,.T.);
#513=EDGE_CURVE('',#360,#386,#203,.T.);
#514=EDGE_CURVE('',#359,#387,#204,.T.);
#515=EDGE_CURVE('',#349,#397,#205,.T.);
#516=EDGE_CURVE('',#348,#398,#206,.T.);
#517=EDGE_CURVE('',#379,#407,#17,.T.);
#518=EDGE_CURVE('',#408,#347,#18,.T.);
#519=EDGE_CURVE('',#408,#407,#207,.T.);
#520=EDGE_CURVE('',#407,#409,#329,.T.);
#521=EDGE_CURVE('',#410,#408,#330,.T.);
#522=EDGE_CURVE('',#410,#409,#208,.T.);
#523=EDGE_CURVE('',#409,#380,#19,.T.);
#524=EDGE_CURVE('',#346,#410,#20,.T.);
#525=EDGE_CURVE('',#345,#381,#209,.T.);
#526=EDGE_CURVE('',#364,#382,#210,.T.);
#527=EDGE_CURVE('',#404,#402,#211,.T.);
#528=EDGE_CURVE('',#403,#401,#212,.T.);
#529=EDGE_CURVE('',#406,#400,#213,.T.);
#530=EDGE_CURVE('',#405,#399,#214,.T.);
#531=ORIENTED_EDGE('',*,*,#411,.T.);
#532=ORIENTED_EDGE('',*,*,#412,.T.);
#533=ORIENTED_EDGE('',*,*,#413,.T.);
#534=ORIENTED_EDGE('',*,*,#414,.T.);
#535=ORIENTED_EDGE('',*,*,#415,.T.);
#536=ORIENTED_EDGE('',*,*,#416,.T.);
#537=ORIENTED_EDGE('',*,*,#417,.T.);
#538=ORIENTED_EDGE('',*,*,#418,.T.);
#539=ORIENTED_EDGE('',*,*,#419,.T.);
#540=ORIENTED_EDGE('',*,*,#420,.T.);
#541=ORIENTED_EDGE('',*,*,#421,.T.);
#542=ORIENTED_EDGE('',*,*,#422,.T.);
#543=ORIENTED_EDGE('',*,*,#423,.T.);
#544=ORIENTED_EDGE('',*,*,#424,.T.);
#545=ORIENTED_EDGE('',*,*,#425,.T.);
#546=ORIENTED_EDGE('',*,*,#426,.F.);
#547=ORIENTED_EDGE('',*,*,#427,.T.);
#548=ORIENTED_EDGE('',*,*,#428,.T.);
#549=ORIENTED_EDGE('',*,*,#429,.T.);
#550=ORIENTED_EDGE('',*,*,#430,.T.);
#551=ORIENTED_EDGE('',*,*,#431,.T.);
#552=ORIENTED_EDGE('',*,*,#432,.T.);
#553=ORIENTED_EDGE('',*,*,#433,.T.);
#554=ORIENTED_EDGE('',*,*,#434,.T.);
#555=ORIENTED_EDGE('',*,*,#435,.T.);
#556=ORIENTED_EDGE('',*,*,#436,.T.);
#557=ORIENTED_EDGE('',*,*,#437,.T.);
#558=ORIENTED_EDGE('',*,*,#438,.T.);
#559=ORIENTED_EDGE('',*,*,#439,.T.);
#560=ORIENTED_EDGE('',*,*,#440,.T.);
#561=ORIENTED_EDGE('',*,*,#441,.T.);
#562=ORIENTED_EDGE('',*,*,#442,.T.);
#563=ORIENTED_EDGE('',*,*,#443,.T.);
#564=ORIENTED_EDGE('',*,*,#444,.T.);
#565=ORIENTED_EDGE('',*,*,#445,.F.);
#566=ORIENTED_EDGE('',*,*,#446,.F.);
#567=ORIENTED_EDGE('',*,*,#447,.F.);
#568=ORIENTED_EDGE('',*,*,#448,.F.);
#569=ORIENTED_EDGE('',*,*,#449,.F.);
#570=ORIENTED_EDGE('',*,*,#450,.F.);
#571=ORIENTED_EDGE('',*,*,#451,.F.);
#572=ORIENTED_EDGE('',*,*,#452,.F.);
#573=ORIENTED_EDGE('',*,*,#453,.F.);
#574=ORIENTED_EDGE('',*,*,#454,.F.);
#575=ORIENTED_EDGE('',*,*,#455,.F.);
#576=ORIENTED_EDGE('',*,*,#456,.F.);
#577=ORIENTED_EDGE('',*,*,#457,.F.);
#578=ORIENTED_EDGE('',*,*,#458,.F.);
#579=ORIENTED_EDGE('',*,*,#459,.T.);
#580=ORIENTED_EDGE('',*,*,#460,.T.);
#581=ORIENTED_EDGE('',*,*,#461,.T.);
#582=ORIENTED_EDGE('',*,*,#462,.T.);
#583=ORIENTED_EDGE('',*,*,#463,.T.);
#584=ORIENTED_EDGE('',*,*,#464,.T.);
#585=ORIENTED_EDGE('',*,*,#465,.T.);
#586=ORIENTED_EDGE('',*,*,#466,.T.);
#587=ORIENTED_EDGE('',*,*,#467,.T.);
#588=ORIENTED_EDGE('',*,*,#468,.T.);
#589=ORIENTED_EDGE('',*,*,#469,.T.);
#590=ORIENTED_EDGE('',*,*,#470,.T.);
#591=ORIENTED_EDGE('',*,*,#471,.T.);
#592=ORIENTED_EDGE('',*,*,#472,.T.);
#593=ORIENTED_EDGE('',*,*,#473,.T.);
#594=ORIENTED_EDGE('',*,*,#474,.T.);
#595=ORIENTED_EDGE('',*,*,#475,.T.);
#596=ORIENTED_EDGE('',*,*,#476,.T.);
#597=ORIENTED_EDGE('',*,*,#477,.T.);
#598=ORIENTED_EDGE('',*,*,#478,.T.);
#599=ORIENTED_EDGE('',*,*,#430,.F.);
#600=ORIENTED_EDGE('',*,*,#479,.T.);
#601=ORIENTED_EDGE('',*,*,#475,.F.);
#602=ORIENTED_EDGE('',*,*,#480,.F.);
#603=ORIENTED_EDGE('',*,*,#445,.T.);
#604=ORIENTED_EDGE('',*,*,#481,.F.);
#605=ORIENTED_EDGE('',*,*,#411,.F.);
#606=ORIENTED_EDGE('',*,*,#482,.T.);
#607=ORIENTED_EDGE('',*,*,#458,.T.);
#608=ORIENTED_EDGE('',*,*,#483,.F.);
#609=ORIENTED_EDGE('',*,*,#412,.F.);
#610=ORIENTED_EDGE('',*,*,#481,.T.);
#611=ORIENTED_EDGE('',*,*,#484,.F.);
#612=ORIENTED_EDGE('',*,*,#485,.F.);
#613=ORIENTED_EDGE('',*,*,#457,.T.);
#614=ORIENTED_EDGE('',*,*,#486,.F.);
#615=ORIENTED_EDGE('',*,*,#413,.F.);
#616=ORIENTED_EDGE('',*,*,#483,.T.);
#617=ORIENTED_EDGE('',*,*,#456,.T.);
#618=ORIENTED_EDGE('',*,*,#487,.F.);
#619=ORIENTED_EDGE('',*,*,#414,.F.);
#620=ORIENTED_EDGE('',*,*,#486,.T.);
#621=ORIENTED_EDGE('',*,*,#455,.T.);
#622=ORIENTED_EDGE('',*,*,#488,.F.);
#623=ORIENTED_EDGE('',*,*,#415,.F.);
#624=ORIENTED_EDGE('',*,*,#487,.T.);
#625=ORIENTED_EDGE('',*,*,#454,.T.);
#626=ORIENTED_EDGE('',*,*,#489,.F.);
#627=ORIENTED_EDGE('',*,*,#416,.F.);
#628=ORIENTED_EDGE('',*,*,#488,.T.);
#629=ORIENTED_EDGE('',*,*,#490,.F.);
#630=ORIENTED_EDGE('',*,*,#491,.F.);
#631=ORIENTED_EDGE('',*,*,#453,.T.);
#632=ORIENTED_EDGE('',*,*,#492,.F.);
#633=ORIENTED_EDGE('',*,*,#417,.F.);
#634=ORIENTED_EDGE('',*,*,#489,.T.);
#635=ORIENTED_EDGE('',*,*,#452,.T.);
#636=ORIENTED_EDGE('',*,*,#493,.F.);
#637=ORIENTED_EDGE('',*,*,#418,.F.);
#638=ORIENTED_EDGE('',*,*,#492,.T.);
#639=ORIENTED_EDGE('',*,*,#451,.T.);
#640=ORIENTED_EDGE('',*,*,#494,.F.);
#641=ORIENTED_EDGE('',*,*,#419,.F.);
#642=ORIENTED_EDGE('',*,*,#493,.T.);
#643=ORIENTED_EDGE('',*,*,#450,.T.);
#644=ORIENTED_EDGE('',*,*,#495,.F.);
#645=ORIENTED_EDGE('',*,*,#420,.F.);
#646=ORIENTED_EDGE('',*,*,#494,.T.);
#647=ORIENTED_EDGE('',*,*,#496,.F.);
#648=ORIENTED_EDGE('',*,*,#497,.F.);
#649=ORIENTED_EDGE('',*,*,#449,.T.);
#650=ORIENTED_EDGE('',*,*,#498,.F.);
#651=ORIENTED_EDGE('',*,*,#421,.F.);
#652=ORIENTED_EDGE('',*,*,#495,.T.);
#653=ORIENTED_EDGE('',*,*,#448,.T.);
#654=ORIENTED_EDGE('',*,*,#499,.F.);
#655=ORIENTED_EDGE('',*,*,#422,.F.);
#656=ORIENTED_EDGE('',*,*,#498,.T.);
#657=ORIENTED_EDGE('',*,*,#500,.F.);
#658=ORIENTED_EDGE('',*,*,#501,.F.);
#659=ORIENTED_EDGE('',*,*,#447,.T.);
#660=ORIENTED_EDGE('',*,*,#502,.F.);
#661=ORIENTED_EDGE('',*,*,#423,.F.);
#662=ORIENTED_EDGE('',*,*,#499,.T.);
#663=ORIENTED_EDGE('',*,*,#446,.T.);
#664=ORIENTED_EDGE('',*,*,#482,.F.);
#665=ORIENTED_EDGE('',*,*,#424,.F.);
#666=ORIENTED_EDGE('',*,*,#502,.T.);
#667=ORIENTED_EDGE('',*,*,#503,.T.);
#668=ORIENTED_EDGE('',*,*,#468,.F.);
#669=ORIENTED_EDGE('',*,*,#504,.F.);
#670=ORIENTED_EDGE('',*,*,#437,.F.);
#671=ORIENTED_EDGE('',*,*,#505,.T.);
#672=ORIENTED_EDGE('',*,*,#469,.F.);
#673=ORIENTED_EDGE('',*,*,#503,.F.);
#674=ORIENTED_EDGE('',*,*,#436,.F.);
#675=ORIENTED_EDGE('',*,*,#506,.T.);
#676=ORIENTED_EDGE('',*,*,#470,.F.);
#677=ORIENTED_EDGE('',*,*,#505,.F.);
#678=ORIENTED_EDGE('',*,*,#435,.F.);
#679=ORIENTED_EDGE('',*,*,#507,.T.);
#680=ORIENTED_EDGE('',*,*,#471,.F.);
#681=ORIENTED_EDGE('',*,*,#506,.F.);
#682=ORIENTED_EDGE('',*,*,#434,.F.);
#683=ORIENTED_EDGE('',*,*,#508,.T.);
#684=ORIENTED_EDGE('',*,*,#472,.F.);
#685=ORIENTED_EDGE('',*,*,#507,.F.);
#686=ORIENTED_EDGE('',*,*,#433,.F.);
#687=ORIENTED_EDGE('',*,*,#509,.T.);
#688=ORIENTED_EDGE('',*,*,#473,.F.);
#689=ORIENTED_EDGE('',*,*,#508,.F.);
#690=ORIENTED_EDGE('',*,*,#432,.F.);
#691=ORIENTED_EDGE('',*,*,#480,.T.);
#692=ORIENTED_EDGE('',*,*,#474,.F.);
#693=ORIENTED_EDGE('',*,*,#509,.F.);
#694=ORIENTED_EDGE('',*,*,#431,.F.);
#695=ORIENTED_EDGE('',*,*,#510,.F.);
#696=ORIENTED_EDGE('',*,*,#442,.F.);
#697=ORIENTED_EDGE('',*,*,#511,.T.);
#698=ORIENTED_EDGE('',*,*,#463,.F.);
#699=ORIENTED_EDGE('',*,*,#512,.T.);
#700=ORIENTED_EDGE('',*,*,#464,.F.);
#701=ORIENTED_EDGE('',*,*,#511,.F.);
#702=ORIENTED_EDGE('',*,*,#441,.F.);
#703=ORIENTED_EDGE('',*,*,#513,.T.);
#704=ORIENTED_EDGE('',*,*,#465,.F.);
#705=ORIENTED_EDGE('',*,*,#512,.F.);
#706=ORIENTED_EDGE('',*,*,#440,.F.);
#707=ORIENTED_EDGE('',*,*,#514,.T.);
#708=ORIENTED_EDGE('',*,*,#466,.F.);
#709=ORIENTED_EDGE('',*,*,#513,.F.);
#710=ORIENTED_EDGE('',*,*,#439,.F.);
#711=ORIENTED_EDGE('',*,*,#504,.T.);
#712=ORIENTED_EDGE('',*,*,#467,.F.);
#713=ORIENTED_EDGE('',*,*,#514,.F.);
#714=ORIENTED_EDGE('',*,*,#438,.F.);
#715=ORIENTED_EDGE('',*,*,#515,.T.);
#716=ORIENTED_EDGE('',*,*,#476,.F.);
#717=ORIENTED_EDGE('',*,*,#479,.F.);
#718=ORIENTED_EDGE('',*,*,#429,.F.);
#719=ORIENTED_EDGE('',*,*,#516,.T.);
#720=ORIENTED_EDGE('',*,*,#477,.F.);
#721=ORIENTED_EDGE('',*,*,#515,.F.);
#722=ORIENTED_EDGE('',*,*,#428,.F.);
#723=ORIENTED_EDGE('',*,*,#517,.F.);
#724=ORIENTED_EDGE('',*,*,#478,.F.);
#725=ORIENTED_EDGE('',*,*,#516,.F.);
#726=ORIENTED_EDGE('',*,*,#427,.F.);
#727=ORIENTED_EDGE('',*,*,#518,.F.);
#728=ORIENTED_EDGE('',*,*,#519,.T.);
#729=ORIENTED_EDGE('',*,*,#520,.F.);
#730=ORIENTED_EDGE('',*,*,#519,.F.);
#731=ORIENTED_EDGE('',*,*,#521,.F.);
#732=ORIENTED_EDGE('',*,*,#522,.T.);
#733=ORIENTED_EDGE('',*,*,#523,.F.);
#734=ORIENTED_EDGE('',*,*,#522,.F.);
#735=ORIENTED_EDGE('',*,*,#524,.F.);
#736=ORIENTED_EDGE('',*,*,#425,.F.);
#737=ORIENTED_EDGE('',*,*,#525,.T.);
#738=ORIENTED_EDGE('',*,*,#460,.F.);
#739=ORIENTED_EDGE('',*,*,#526,.T.);
#740=ORIENTED_EDGE('',*,*,#461,.F.);
#741=ORIENTED_EDGE('',*,*,#525,.F.);
#742=ORIENTED_EDGE('',*,*,#444,.F.);
#743=ORIENTED_EDGE('',*,*,#510,.T.);
#744=ORIENTED_EDGE('',*,*,#462,.F.);
#745=ORIENTED_EDGE('',*,*,#526,.F.);
#746=ORIENTED_EDGE('',*,*,#443,.F.);
#747=ORIENTED_EDGE('',*,*,#497,.T.);
#748=ORIENTED_EDGE('',*,*,#527,.T.);
#749=ORIENTED_EDGE('',*,*,#491,.T.);
#750=ORIENTED_EDGE('',*,*,#527,.F.);
#751=ORIENTED_EDGE('',*,*,#496,.T.);
#752=ORIENTED_EDGE('',*,*,#528,.T.);
#753=ORIENTED_EDGE('',*,*,#490,.T.);
#754=ORIENTED_EDGE('',*,*,#528,.F.);
#755=ORIENTED_EDGE('',*,*,#501,.T.);
#756=ORIENTED_EDGE('',*,*,#529,.T.);
#757=ORIENTED_EDGE('',*,*,#485,.T.);
#758=ORIENTED_EDGE('',*,*,#529,.F.);
#759=ORIENTED_EDGE('',*,*,#500,.T.);
#760=ORIENTED_EDGE('',*,*,#530,.T.);
#761=ORIENTED_EDGE('',*,*,#484,.T.);
#762=ORIENTED_EDGE('',*,*,#530,.F.);
#763=ORIENTED_EDGE('',*,*,#518,.T.);
#764=ORIENTED_EDGE('',*,*,#426,.T.);
#765=ORIENTED_EDGE('',*,*,#524,.T.);
#766=ORIENTED_EDGE('',*,*,#521,.T.);
#767=ORIENTED_EDGE('',*,*,#517,.T.);
#768=ORIENTED_EDGE('',*,*,#520,.T.);
#769=ORIENTED_EDGE('',*,*,#523,.T.);
#770=ORIENTED_EDGE('',*,*,#459,.F.);
#771=PLANE('',#843);
#772=PLANE('',#864);
#773=PLANE('',#887);
#774=PLANE('',#891);
#775=PLANE('',#893);
#776=PLANE('',#897);
#777=PLANE('',#899);
#778=PLANE('',#903);
#779=PLANE('',#907);
#780=PLANE('',#909);
#781=PLANE('',#911);
#782=PLANE('',#913);
#783=PLANE('',#917);
#784=PLANE('',#919);
#785=PLANE('',#921);
#786=PLANE('',#927);
#787=ADVANCED_FACE('',(#55,#45),#771,.F.);
#788=ADVANCED_FACE('',(#56,#46),#772,.T.);
#789=ADVANCED_FACE('',(#57),#21,.T.);
#790=ADVANCED_FACE('',(#58),#22,.T.);
#791=ADVANCED_FACE('',(#59,#47,#48),#773,.F.);
#792=ADVANCED_FACE('',(#60),#23,.F.);
#793=ADVANCED_FACE('',(#61),#774,.F.);
#794=ADVANCED_FACE('',(#62),#24,.F.);
#795=ADVANCED_FACE('',(#63,#49,#50),#775,.F.);
#796=ADVANCED_FACE('',(#64),#25,.T.);
#797=ADVANCED_FACE('',(#65),#776,.F.);
#798=ADVANCED_FACE('',(#66),#26,.T.);
#799=ADVANCED_FACE('',(#67,#51,#52),#777,.F.);
#800=ADVANCED_FACE('',(#68),#27,.T.);
#801=ADVANCED_FACE('',(#69,#53,#54),#778,.F.);
#802=ADVANCED_FACE('',(#70),#28,.T.);
#803=ADVANCED_FACE('',(#71),#779,.F.);
#804=ADVANCED_FACE('',(#72),#29,.F.);
#805=ADVANCED_FACE('',(#73),#780,.T.);
#806=ADVANCED_FACE('',(#74),#30,.F.);
#807=ADVANCED_FACE('',(#75),#781,.T.);
#808=ADVANCED_FACE('',(#76),#31,.F.);
#809=ADVANCED_FACE('',(#77),#782,.T.);
#810=ADVANCED_FACE('',(#78),#32,.F.);
#811=ADVANCED_FACE('',(#79),#33,.T.);
#812=ADVANCED_FACE('',(#80),#34,.F.);
#813=ADVANCED_FACE('',(#81),#783,.T.);
#814=ADVANCED_FACE('',(#82),#35,.F.);
#815=ADVANCED_FACE('',(#83),#784,.T.);
#816=ADVANCED_FACE('',(#84),#36,.T.);
#817=ADVANCED_FACE('',(#85),#785,.T.);
#818=ADVANCED_FACE('',(#86),#37,.T.);
#819=ADVANCED_FACE('',(#87),#38,.F.);
#820=ADVANCED_FACE('',(#88),#39,.T.);
#821=ADVANCED_FACE('',(#89),#786,.T.);
#822=ADVANCED_FACE('',(#90),#40,.T.);
#823=ADVANCED_FACE('',(#91),#41,.F.);
#824=ADVANCED_FACE('',(#92),#42,.F.);
#825=ADVANCED_FACE('',(#93),#43,.F.);
#826=ADVANCED_FACE('',(#94),#44,.F.);
#827=ADVANCED_FACE('',(#95),#15,.F.);
#828=ADVANCED_FACE('',(#96),#16,.F.);
#829=CLOSED_SHELL('',(#787,#788,#789,#790,#791,#792,#793,#794,#795,#796,
#797,#798,#799,#800,#801,#802,#803,#804,#805,#806,#807,#808,#809,#810,#811,
#812,#813,#814,#815,#816,#817,#818,#819,#820,#821,#822,#823,#824,#825,#826,
#827,#828));
#830=DERIVED_UNIT_ELEMENT(#832,1.);
#831=DERIVED_UNIT_ELEMENT(#1471,-3.);
#832=(
MASS_UNIT()
NAMED_UNIT(*)
SI_UNIT(.KILO.,.GRAM.)
);
#833=DERIVED_UNIT((#830,#831));
#834=MEASURE_REPRESENTATION_ITEM('density measure',
POSITIVE_RATIO_MEASURE(7850.),#833);
#835=PROPERTY_DEFINITION_REPRESENTATION(#840,#837);
#836=PROPERTY_DEFINITION_REPRESENTATION(#841,#838);
#837=REPRESENTATION('material name',(#839),#1468);
#838=REPRESENTATION('density',(#834),#1468);
#839=DESCRIPTIVE_REPRESENTATION_ITEM('Steel','Steel');
#840=PROPERTY_DEFINITION('material property','material name',#1478);
#841=PROPERTY_DEFINITION('material property','density of part',#1478);
#842=AXIS2_PLACEMENT_3D('',#1187,#935,#936);
#843=AXIS2_PLACEMENT_3D('',#1188,#937,#938);
#844=AXIS2_PLACEMENT_3D('',#1191,#939,#940);
#845=AXIS2_PLACEMENT_3D('',#1195,#942,#943);
#846=AXIS2_PLACEMENT_3D('',#1199,#945,#946);
#847=AXIS2_PLACEMENT_3D('',#1203,#948,#949);
#848=AXIS2_PLACEMENT_3D('',#1207,#951,#952);
#849=AXIS2_PLACEMENT_3D('',#1211,#954,#955);
#850=AXIS2_PLACEMENT_3D('',#1215,#957,#958);
#851=AXIS2_PLACEMENT_3D('',#1219,#960,#961);
#852=AXIS2_PLACEMENT_3D('',#1221,#962,#963);
#853=AXIS2_PLACEMENT_3D('',#1223,#964,#965);
#854=AXIS2_PLACEMENT_3D('',#1227,#967,#968);
#855=AXIS2_PLACEMENT_3D('',#1229,#969,#970);
#856=AXIS2_PLACEMENT_3D('',#1231,#971,#972);
#857=AXIS2_PLACEMENT_3D('',#1235,#974,#975);
#858=AXIS2_PLACEMENT_3D('',#1239,#977,#978);
#859=AXIS2_PLACEMENT_3D('',#1243,#980,#981);
#860=AXIS2_PLACEMENT_3D('',#1247,#983,#984);
#861=AXIS2_PLACEMENT_3D('',#1251,#986,#987);
#862=AXIS2_PLACEMENT_3D('',#1253,#988,#989);
#863=AXIS2_PLACEMENT_3D('',#1255,#990,#991);
#864=AXIS2_PLACEMENT_3D('',#1257,#993,#994);
#865=AXIS2_PLACEMENT_3D('',#1260,#995,#996);
#866=AXIS2_PLACEMENT_3D('',#1264,#998,#999);
#867=AXIS2_PLACEMENT_3D('',#1268,#1001,#1002);
#868=AXIS2_PLACEMENT_3D('',#1272,#1004,#1005);
#869=AXIS2_PLACEMENT_3D('',#1276,#1007,#1008);
#870=AXIS2_PLACEMENT_3D('',#1280,#1010,#1011);
#871=AXIS2_PLACEMENT_3D('',#1284,#1013,#1014);
#872=AXIS2_PLACEMENT_3D('',#1288,#1016,#1017);
#873=AXIS2_PLACEMENT_3D('',#1290,#1018,#1019);
#874=AXIS2_PLACEMENT_3D('',#1294,#1021,#1022);
#875=AXIS2_PLACEMENT_3D('',#1296,#1023,#1024);
#876=AXIS2_PLACEMENT_3D('',#1298,#1025,#1026);
#877=AXIS2_PLACEMENT_3D('',#1302,#1028,#1029);
#878=AXIS2_PLACEMENT_3D('',#1306,#1031,#1032);
#879=AXIS2_PLACEMENT_3D('',#1310,#1034,#1035);
#880=AXIS2_PLACEMENT_3D('',#1314,#1037,#1038);
#881=AXIS2_PLACEMENT_3D('',#1318,#1040,#1041);
#882=AXIS2_PLACEMENT_3D('',#1320,#1042,#1043);
#883=AXIS2_PLACEMENT_3D('',#1322,#1044,#1045);
#884=AXIS2_PLACEMENT_3D('',#1325,#1047,#1048);
#885=AXIS2_PLACEMENT_3D('',#1326,#1049,#1050);
#886=AXIS2_PLACEMENT_3D('',#1329,#1053,#1054);
#887=AXIS2_PLACEMENT_3D('',#1332,#1057,#1058);
#888=AXIS2_PLACEMENT_3D('',#1335,#1060,#1061);
#889=AXIS2_PLACEMENT_3D('',#1337,#1062,#1063);
#890=AXIS2_PLACEMENT_3D('',#1338,#1064,#1065);
#891=AXIS2_PLACEMENT_3D('',#1340,#1067,#1068);
#892=AXIS2_PLACEMENT_3D('',#1342,#1070,#1071);
#893=AXIS2_PLACEMENT_3D('',#1344,#1073,#1074);
#894=AXIS2_PLACEMENT_3D('',#1347,#1076,#1077);
#895=AXIS2_PLACEMENT_3D('',#1349,#1078,#1079);
#896=AXIS2_PLACEMENT_3D('',#1350,#1080,#1081);
#897=AXIS2_PLACEMENT_3D('',#1352,#1083,#1084);
#898=AXIS2_PLACEMENT_3D('',#1354,#1086,#1087);
#899=AXIS2_PLACEMENT_3D('',#1356,#1089,#1090);
#900=AXIS2_PLACEMENT_3D('',#1359,#1092,#1093);
#901=AXIS2_PLACEMENT_3D('',#1361,#1094,#1095);
#902=AXIS2_PLACEMENT_3D('',#1362,#1096,#1097);
#903=AXIS2_PLACEMENT_3D('',#1364,#1099,#1100);
#904=AXIS2_PLACEMENT_3D('',#1367,#1102,#1103);
#905=AXIS2_PLACEMENT_3D('',#1369,#1104,#1105);
#906=AXIS2_PLACEMENT_3D('',#1370,#1106,#1107);
#907=AXIS2_PLACEMENT_3D('',#1372,#1109,#1110);
#908=AXIS2_PLACEMENT_3D('',#1373,#1111,#1112);
#909=AXIS2_PLACEMENT_3D('',#1376,#1115,#1116);
#910=AXIS2_PLACEMENT_3D('',#1378,#1118,#1119);
#911=AXIS2_PLACEMENT_3D('',#1380,#1121,#1122);
#912=AXIS2_PLACEMENT_3D('',#1382,#1124,#1125);
#913=AXIS2_PLACEMENT_3D('',#1384,#1127,#1128);
#914=AXIS2_PLACEMENT_3D('',#1386,#1130,#1131);
#915=AXIS2_PLACEMENT_3D('',#1387,#1132,#1133);
#916=AXIS2_PLACEMENT_3D('',#1390,#1136,#1137);
#917=AXIS2_PLACEMENT_3D('',#1392,#1139,#1140);
#918=AXIS2_PLACEMENT_3D('',#1394,#1142,#1143);
#919=AXIS2_PLACEMENT_3D('',#1396,#1145,#1146);
#920=AXIS2_PLACEMENT_3D('',#1397,#1147,#1148);
#921=AXIS2_PLACEMENT_3D('',#1399,#1150,#1151);
#922=AXIS2_PLACEMENT_3D('',#1401,#1153,#1154);
#923=AXIS2_PLACEMENT_3D('',#1425,#1156,#1157);
#924=AXIS2_PLACEMENT_3D('',#1427,#1158,#1159);
#925=AXIS2_PLACEMENT_3D('',#1429,#1160,#1161);
#926=AXIS2_PLACEMENT_3D('',#1431,#1163,#1164);
#927=AXIS2_PLACEMENT_3D('',#1453,#1166,#1167);
#928=AXIS2_PLACEMENT_3D('',#1455,#1169,#1170);
#929=AXIS2_PLACEMENT_3D('',#1456,#1171,#1172);
#930=AXIS2_PLACEMENT_3D('',#1458,#1174,#1175);
#931=AXIS2_PLACEMENT_3D('',#1460,#1177,#1178);
#932=AXIS2_PLACEMENT_3D('',#1462,#1180,#1181);
#933=AXIS2_PLACEMENT_3D('',#1464,#1183,#1184);
#934=AXIS2_PLACEMENT_3D('',#1465,#1185,#1186);
#935=DIRECTION('axis',(0.,0.,1.));
#936=DIRECTION('refdir',(1.,0.,0.));
#937=DIRECTION('center_axis',(-1.,0.,0.));
#938=DIRECTION('ref_axis',(0.,0.,1.));
#939=DIRECTION('center_axis',(1.,0.,0.));
#940=DIRECTION('ref_axis',(0.,0.,1.));
#941=DIRECTION('',(0.,-1.,1.86672055207181E-16));
#942=DIRECTION('center_axis',(-1.,0.,0.));
#943=DIRECTION('ref_axis',(0.,0.,-1.));
#944=DIRECTION('',(0.,-0.707106781186544,0.707106781186551));
#945=DIRECTION('center_axis',(-1.,0.,0.));
#946=DIRECTION('ref_axis',(0.,0.,1.));
#947=DIRECTION('',(0.,-1.86672055207184E-16,1.));
#948=DIRECTION('center_axis',(1.,0.,0.));
#949=DIRECTION('ref_axis',(0.,0.,1.));
#950=DIRECTION('',(0.,-1.,0.));
#951=DIRECTION('center_axis',(1.,0.,0.));
#952=DIRECTION('ref_axis',(0.,0.,1.));
#953=DIRECTION('',(0.,1.22464679914735E-16,-1.));
#954=DIRECTION('center_axis',(1.,0.,0.));
#955=DIRECTION('ref_axis',(0.,0.,1.));
#956=DIRECTION('',(0.,1.,-6.80283716069336E-17));
#957=DIRECTION('center_axis',(1.,0.,0.));
#958=DIRECTION('ref_axis',(0.,0.,-1.));
#959=DIRECTION('',(0.,0.,1.));
#960=DIRECTION('center_axis',(1.,0.,0.));
#961=DIRECTION('ref_axis',(0.,-3.46944695195361E-15,1.));
#962=DIRECTION('center_axis',(1.,0.,0.));
#963=DIRECTION('ref_axis',(0.,0.,-1.));
#964=DIRECTION('center_axis',(1.,0.,0.));
#965=DIRECTION('ref_axis',(0.,1.04083408558608E-14,1.));
#966=DIRECTION('',(0.,0.258819045102522,0.965925826289068));
#967=DIRECTION('center_axis',(1.,0.,0.));
#968=DIRECTION('ref_axis',(0.,3.46944695195361E-15,1.));
#969=DIRECTION('center_axis',(1.,0.,0.));
#970=DIRECTION('ref_axis',(0.,0.,1.));
#971=DIRECTION('center_axis',(-1.,0.,0.));
#972=DIRECTION('ref_axis',(0.,0.,1.));
#973=DIRECTION('',(0.,-1.,0.));
#974=DIRECTION('center_axis',(-1.,0.,0.));
#975=DIRECTION('ref_axis',(0.,0.,1.));
#976=DIRECTION('',(0.,-7.09682644865242E-17,1.));
#977=DIRECTION('center_axis',(-1.,0.,0.));
#978=DIRECTION('ref_axis',(0.,0.,1.));
#979=DIRECTION('',(0.,0.707106781186547,-0.707106781186548));
#980=DIRECTION('center_axis',(-1.,0.,0.));
#981=DIRECTION('ref_axis',(0.,0.,1.));
#982=DIRECTION('',(0.,-1.,-2.83873057946097E-16));
#983=DIRECTION('center_axis',(-1.,0.,0.));
#984=DIRECTION('ref_axis',(0.,0.,1.));
#985=DIRECTION('',(0.,0.,1.));
#986=DIRECTION('center_axis',(-1.,0.,0.));
#987=DIRECTION('ref_axis',(0.,0.,1.));
#988=DIRECTION('center_axis',(1.,0.,0.));
#989=DIRECTION('ref_axis',(0.,0.,1.));
#990=DIRECTION('center_axis',(1.,0.,0.));
#991=DIRECTION('ref_axis',(0.,0.,1.));
#992=DIRECTION('',(0.,-0.965925826289069,-0.258819045102517));
#993=DIRECTION('center_axis',(-1.,0.,0.));
#994=DIRECTION('ref_axis',(0.,0.,1.));
#995=DIRECTION('center_axis',(1.,0.,0.));
#996=DIRECTION('ref_axis',(0.,0.,1.));
#997=DIRECTION('',(0.,0.,1.));
#998=DIRECTION('center_axis',(1.,0.,0.));
#999=DIRECTION('ref_axis',(0.,0.,-1.));
#1000=DIRECTION('',(0.,1.,-6.80283716069336E-17));
#1001=DIRECTION('center_axis',(1.,0.,0.));
#1002=DIRECTION('ref_axis',(0.,0.,1.));
#1003=DIRECTION('',(0.,1.22464679914735E-16,-1.));
#1004=DIRECTION('center_axis',(1.,0.,0.));
#1005=DIRECTION('ref_axis',(0.,0.,1.));
#1006=DIRECTION('',(0.,-1.,0.));
#1007=DIRECTION('center_axis',(1.,0.,0.));
#1008=DIRECTION('ref_axis',(0.,0.,1.));
#1009=DIRECTION('',(0.,-1.86672055207184E-16,1.));
#1010=DIRECTION('center_axis',(-1.,0.,0.));
#1011=DIRECTION('ref_axis',(0.,0.,1.));
#1012=DIRECTION('',(0.,-0.707106781186544,0.707106781186551));
#1013=DIRECTION('center_axis',(-1.,0.,0.));
#1014=DIRECTION('ref_axis',(0.,0.,-1.));
#1015=DIRECTION('',(0.,-1.,1.86672055207181E-16));
#1016=DIRECTION('center_axis',(1.,0.,0.));
#1017=DIRECTION('ref_axis',(0.,0.,-1.));
#1018=DIRECTION('center_axis',(-1.,0.,0.));
#1019=DIRECTION('ref_axis',(0.,0.,1.));
#1020=DIRECTION('',(0.,0.965925826289069,0.258819045102517));
#1021=DIRECTION('center_axis',(-1.,0.,0.));
#1022=DIRECTION('ref_axis',(0.,0.,1.));
#1023=DIRECTION('center_axis',(-1.,0.,0.));
#1024=DIRECTION('ref_axis',(0.,0.,1.));
#1025=DIRECTION('center_axis',(1.,0.,0.));
#1026=DIRECTION('ref_axis',(0.,0.,1.));
#1027=DIRECTION('',(0.,0.,-1.));
#1028=DIRECTION('center_axis',(1.,0.,0.));
#1029=DIRECTION('ref_axis',(0.,0.,1.));
#1030=DIRECTION('',(0.,1.,2.83873057946097E-16));
#1031=DIRECTION('center_axis',(1.,0.,0.));
#1032=DIRECTION('ref_axis',(0.,-1.73472347597681E-15,1.));
#1033=DIRECTION('',(0.,-0.707106781186547,0.707106781186548));
#1034=DIRECTION('center_axis',(1.,0.,0.));
#1035=DIRECTION('ref_axis',(0.,0.,1.));
#1036=DIRECTION('',(0.,7.09682644865242E-17,-1.));
#1037=DIRECTION('center_axis',(1.,0.,0.));
#1038=DIRECTION('ref_axis',(0.,0.,1.));
#1039=DIRECTION('',(0.,1.,0.));
#1040=DIRECTION('center_axis',(1.,0.,0.));
#1041=DIRECTION('ref_axis',(0.,1.73472347597681E-15,1.));
#1042=DIRECTION('center_axis',(-1.,0.,0.));
#1043=DIRECTION('ref_axis',(0.,0.,1.));
#1044=DIRECTION('center_axis',(-1.,0.,0.));
#1045=DIRECTION('ref_axis',(0.,0.,1.));
#1046=DIRECTION('',(0.,-0.258819045102522,-0.965925826289068));
#1047=DIRECTION('center_axis',(-1.,0.,0.));
#1048=DIRECTION('ref_axis',(0.,0.,1.));
#1049=DIRECTION('center_axis',(-1.,0.,0.));
#1050=DIRECTION('ref_axis',(0.,0.,1.));
#1051=DIRECTION('',(-1.,0.,0.));
#1052=DIRECTION('',(-1.,0.,0.));
#1053=DIRECTION('center_axis',(-1.,0.,0.));
#1054=DIRECTION('ref_axis',(0.,0.,1.));
#1055=DIRECTION('',(-1.,0.,0.));
#1056=DIRECTION('',(-1.,0.,0.));
#1057=DIRECTION('center_axis',(0.,-1.86672055207181E-16,-1.));
#1058=DIRECTION('ref_axis',(0.,1.,-1.86672055207181E-16));
#1059=DIRECTION('',(-1.,0.,0.));
#1060=DIRECTION('center_axis',(0.,0.,1.));
#1061=DIRECTION('ref_axis',(1.,0.,0.));
#1062=DIRECTION('center_axis',(0.,0.,1.));
#1063=DIRECTION('ref_axis',(1.,0.,0.));
#1064=DIRECTION('center_axis',(-1.,0.,0.));
#1065=DIRECTION('ref_axis',(0.,0.,1.));
#1066=DIRECTION('',(-1.,0.,0.));
#1067=DIRECTION('center_axis',(0.,-0.707106781186551,-0.707106781186544));
#1068=DIRECTION('ref_axis',(0.,0.707106781186544,-0.707106781186551));
#1069=DIRECTION('',(-1.,0.,0.));
#1070=DIRECTION('center_axis',(-1.,0.,0.));
#1071=DIRECTION('ref_axis',(0.,0.,1.));
#1072=DIRECTION('',(-1.,0.,0.));
#1073=DIRECTION('center_axis',(0.,-1.,-1.86672055207184E-16));
#1074=DIRECTION('ref_axis',(0.,1.86672055207184E-16,-1.));
#1075=DIRECTION('',(-1.,0.,0.));
#1076=DIRECTION('center_axis',(0.,1.,1.86672055207184E-16));
#1077=DIRECTION('ref_axis',(0.,-1.86672055207184E-16,1.));
#1078=DIRECTION('center_axis',(0.,1.,1.86672055207184E-16));
#1079=DIRECTION('ref_axis',(0.,-1.86672055207184E-16,1.));
#1080=DIRECTION('center_axis',(-1.,0.,0.));
#1081=DIRECTION('ref_axis',(0.,0.,1.));
#1082=DIRECTION('',(-1.,0.,0.));
#1083=DIRECTION('center_axis',(0.,0.,-1.));
#1084=DIRECTION('ref_axis',(-1.,0.,0.));
#1085=DIRECTION('',(-1.,0.,0.));
#1086=DIRECTION('center_axis',(-1.,0.,0.));
#1087=DIRECTION('ref_axis',(0.,0.,1.));
#1088=DIRECTION('',(-1.,0.,0.));
#1089=DIRECTION('center_axis',(0.,1.,1.22464679914735E-16));
#1090=DIRECTION('ref_axis',(0.,-1.22464679914735E-16,1.));
#1091=DIRECTION('',(-1.,0.,0.));
#1092=DIRECTION('center_axis',(0.,-1.,-1.22464679914735E-16));
#1093=DIRECTION('ref_axis',(0.,-1.22464679914735E-16,1.));
#1094=DIRECTION('center_axis',(0.,-1.,-1.22464679914735E-16));
#1095=DIRECTION('ref_axis',(0.,-1.22464679914735E-16,1.));
#1096=DIRECTION('center_axis',(-1.,0.,0.));
#1097=DIRECTION('ref_axis',(0.,0.,1.));
#1098=DIRECTION('',(-1.,0.,0.));
#1099=DIRECTION('center_axis',(0.,6.80283716069336E-17,1.));
#1100=DIRECTION('ref_axis',(0.,-1.,6.80283716069336E-17));
#1101=DIRECTION('',(-1.,0.,0.));
#1102=DIRECTION('center_axis',(0.,-6.80283716069336E-17,-1.));
#1103=DIRECTION('ref_axis',(0.,-1.,6.80283716069336E-17));
#1104=DIRECTION('center_axis',(0.,-6.80283716069336E-17,-1.));
#1105=DIRECTION('ref_axis',(0.,-1.,6.80283716069336E-17));
#1106=DIRECTION('center_axis',(-1.,0.,0.));
#1107=DIRECTION('ref_axis',(0.,0.,1.));
#1108=DIRECTION('',(-1.,0.,0.));
#1109=DIRECTION('center_axis',(0.,-1.,0.));
#1110=DIRECTION('ref_axis',(0.,0.,-1.));
#1111=DIRECTION('center_axis',(-1.,0.,0.));
#1112=DIRECTION('ref_axis',(0.,0.,1.));
#1113=DIRECTION('',(-1.,0.,0.));
#1114=DIRECTION('',(-1.,0.,0.));
#1115=DIRECTION('center_axis',(0.,-0.707106781186548,-0.707106781186547));
#1116=DIRECTION('ref_axis',(0.,0.707106781186547,-0.707106781186548));
#1117=DIRECTION('',(-1.,0.,0.));
#1118=DIRECTION('center_axis',(-1.,0.,0.));
#1119=DIRECTION('ref_axis',(0.,0.,1.));
#1120=DIRECTION('',(-1.,0.,0.));
#1121=DIRECTION('center_axis',(0.,1.,7.09682644865242E-17));
#1122=DIRECTION('ref_axis',(0.,-7.09682644865242E-17,1.));
#1123=DIRECTION('',(-1.,0.,0.));
#1124=DIRECTION('center_axis',(-1.,0.,0.));
#1125=DIRECTION('ref_axis',(0.,0.,1.));
#1126=DIRECTION('',(-1.,0.,0.));
#1127=DIRECTION('center_axis',(0.,0.,1.));
#1128=DIRECTION('ref_axis',(1.,0.,0.));
#1129=DIRECTION('',(-1.,0.,0.));
#1130=DIRECTION('center_axis',(-1.,0.,0.));
#1131=DIRECTION('ref_axis',(0.,0.,1.));
#1132=DIRECTION('center_axis',(-1.,0.,0.));
#1133=DIRECTION('ref_axis',(0.,0.,1.));
#1134=DIRECTION('',(-1.,0.,0.));
#1135=DIRECTION('',(-1.,0.,0.));
#1136=DIRECTION('center_axis',(-1.,0.,0.));
#1137=DIRECTION('ref_axis',(0.,0.,1.));
#1138=DIRECTION('',(-1.,0.,0.));
#1139=DIRECTION('center_axis',(0.,1.,0.));
#1140=DIRECTION('ref_axis',(0.,0.,1.));
#1141=DIRECTION('',(-1.,0.,0.));
#1142=DIRECTION('center_axis',(-1.,0.,0.));
#1143=DIRECTION('ref_axis',(0.,0.,1.));
#1144=DIRECTION('',(-1.,0.,0.));
#1145=DIRECTION('center_axis',(0.,-2.83873057946097E-16,1.));
#1146=DIRECTION('ref_axis',(0.,-1.,-2.83873057946097E-16));
#1147=DIRECTION('center_axis',(-1.,0.,0.));
#1148=DIRECTION('ref_axis',(0.,0.,1.));
#1149=DIRECTION('',(-1.,0.,0.));
#1150=DIRECTION('center_axis',(0.,0.965925826289068,-0.258819045102522));
#1151=DIRECTION('ref_axis',(0.,0.258819045102522,0.965925826289068));
#1152=DIRECTION('',(-1.,0.,0.));
#1153=DIRECTION('center_axis',(-1.,0.,0.));
#1154=DIRECTION('ref_axis',(0.,0.581355224780448,-0.813649864880757));
#1155=DIRECTION('',(-1.,0.,0.));
#1156=DIRECTION('center_axis',(-1.,0.,0.));
#1157=DIRECTION('ref_axis',(0.,-0.707079952048367,-0.707133609306812));
#1158=DIRECTION('center_axis',(1.,0.,0.));
#1159=DIRECTION('ref_axis',(0.,0.,1.));
#1160=DIRECTION('center_axis',(-1.,0.,0.));
#1161=DIRECTION('ref_axis',(0.,0.,-1.));
#1162=DIRECTION('',(-1.,0.,0.));
#1163=DIRECTION('center_axis',(-1.,0.,0.));
#1164=DIRECTION('ref_axis',(0.,0.,1.));
#1165=DIRECTION('',(-1.,0.,0.));
#1166=DIRECTION('center_axis',(0.,-0.258819045102517,0.965925826289069));
#1167=DIRECTION('ref_axis',(0.,-0.965925826289069,-0.258819045102517));
#1168=DIRECTION('',(-1.,0.,0.));
#1169=DIRECTION('center_axis',(-1.,0.,0.));
#1170=DIRECTION('ref_axis',(0.,0.,1.));
#1171=DIRECTION('center_axis',(0.,1.,1.86672055207184E-16));
#1172=DIRECTION('ref_axis',(0.,-1.86672055207184E-16,1.));
#1173=DIRECTION('',(0.,1.,1.86672055207184E-16));
#1174=DIRECTION('center_axis',(0.,1.,1.86672055207184E-16));
#1175=DIRECTION('ref_axis',(0.,-1.86672055207184E-16,1.));
#1176=DIRECTION('',(0.,1.,1.86672055207184E-16));
#1177=DIRECTION('center_axis',(0.,0.,1.));
#1178=DIRECTION('ref_axis',(1.,0.,0.));
#1179=DIRECTION('',(0.,0.,1.));
#1180=DIRECTION('center_axis',(0.,0.,1.));
#1181=DIRECTION('ref_axis',(1.,0.,0.));
#1182=DIRECTION('',(0.,0.,1.));
#1183=DIRECTION('center_axis',(1.,0.,0.));
#1184=DIRECTION('ref_axis',(0.,-0.707079952048369,-0.70713360930681));
#1185=DIRECTION('center_axis',(-1.,0.,0.));
#1186=DIRECTION('ref_axis',(0.,-0.707079952048369,-0.70713360930681));
#1187=CARTESIAN_POINT('',(0.,0.,0.));
#1188=CARTESIAN_POINT('Origin',(17.,50.,7.99999999999999));
#1189=CARTESIAN_POINT('',(17.,51.,7.99999999999999));
#1190=CARTESIAN_POINT('',(17.,50.,8.99999999999999));
#1191=CARTESIAN_POINT('Origin',(17.,50.,7.99999999999999));
#1192=CARTESIAN_POINT('',(17.,31.4142135623729,9.));
#1193=CARTESIAN_POINT('',(17.,31.4142135623729,9.));
#1194=CARTESIAN_POINT('',(17.,30.7071067811863,9.29289321881346));
#1195=CARTESIAN_POINT('Origin',(17.,31.4142135623729,10.));
#1196=CARTESIAN_POINT('',(17.,9.29289321881344,30.7071067811865));
#1197=CARTESIAN_POINT('',(17.,9.29289321881344,30.7071067811865));
#1198=CARTESIAN_POINT('',(17.,9.,31.4142135623731));
#1199=CARTESIAN_POINT('Origin',(17.,10.,31.4142135623731));
#1200=CARTESIAN_POINT('',(17.,8.99999999999999,50.));
#1201=CARTESIAN_POINT('',(17.,8.99999999999999,50.));
#1202=CARTESIAN_POINT('',(17.,7.99999999999998,51.));
#1203=CARTESIAN_POINT('Origin',(17.,7.99999999999999,50.));
#1204=CARTESIAN_POINT('',(17.,1.,51.));
#1205=CARTESIAN_POINT('',(17.,1.,51.));
#1206=CARTESIAN_POINT('',(17.,-6.50521303491303E-15,50.));
#1207=CARTESIAN_POINT('Origin',(17.,0.999999999999994,50.));
#1208=CARTESIAN_POINT('',(17.,-1.22464679914736E-16,1.00000000000001));
#1209=CARTESIAN_POINT('',(17.,-1.22464679914736E-16,1.00000000000001));
#1210=CARTESIAN_POINT('',(17.,1.00000000000001,-2.16840434497101E-16));
#1211=CARTESIAN_POINT('Origin',(17.,1.,1.));
#1212=CARTESIAN_POINT('',(17.,50.,-3.40141858034668E-15));
#1213=CARTESIAN_POINT('',(17.,50.,-3.40141858034668E-15));
#1214=CARTESIAN_POINT('',(17.,51.,1.));
#1215=CARTESIAN_POINT('Origin',(17.,50.,0.999999999999997));
#1216=CARTESIAN_POINT('',(17.,51.,7.99999999999999));
#1217=CARTESIAN_POINT('',(17.,14.4645309268334,12.6603690715665));
#1218=CARTESIAN_POINT('',(17.,14.4155007241344,12.6444813819702));
#1219=CARTESIAN_POINT('Origin',(17.,14.5939404493847,12.177406158422));
#1220=CARTESIAN_POINT('',(17.,12.6442980851018,14.4155496222463));
#1221=CARTESIAN_POINT('Origin',(17.,12.,12.));
#1222=CARTESIAN_POINT('',(17.,12.6601722355329,14.4645443814452));
#1223=CARTESIAN_POINT('Origin',(17.,12.1772093223884,14.5939539039965));
#1224=CARTESIAN_POINT('',(17.,13.0269629131445,15.8334258260344));
#1225=CARTESIAN_POINT('',(17.,12.6601722355329,14.4645443814452));
#1226=CARTESIAN_POINT('',(17.,12.612,16.4581897671589));
#1227=CARTESIAN_POINT('Origin',(17.,12.544,15.9628353485857));
#1228=CARTESIAN_POINT('',(17.,7.52255653302021,12.45));
#1229=CARTESIAN_POINT('Origin',(17.,12.,12.));
#1230=CARTESIAN_POINT('',(17.,7.0250628144669,12.));
#1231=CARTESIAN_POINT('Origin',(17.,7.0250628144669,12.5));
#1232=CARTESIAN_POINT('',(17.,6.00000000000001,12.));
#1233=CARTESIAN_POINT('',(17.,6.00000000000001,12.));
#1234=CARTESIAN_POINT('',(17.,5.,13.));
#1235=CARTESIAN_POINT('Origin',(17.,6.,13.));
#1236=CARTESIAN_POINT('',(17.,5.,25.221825406948));
#1237=CARTESIAN_POINT('',(17.,5.,25.221825406948));
#1238=CARTESIAN_POINT('',(17.,8.4142135623731,26.6360389693211));
#1239=CARTESIAN_POINT('Origin',(17.,7.,25.221825406948));
#1240=CARTESIAN_POINT('',(17.,26.6360389693211,8.41421356237309));
#1241=CARTESIAN_POINT('',(17.,26.6360389693211,8.41421356237309));
#1242=CARTESIAN_POINT('',(17.,25.221825406948,5.));
#1243=CARTESIAN_POINT('Origin',(17.,25.221825406948,7.));
#1244=CARTESIAN_POINT('',(17.,13.,4.99999999999999));
#1245=CARTESIAN_POINT('',(17.,25.221825406948,5.));
#1246=CARTESIAN_POINT('',(17.,12.,6.));
#1247=CARTESIAN_POINT('Origin',(17.,13.,5.99999999999999));
#1248=CARTESIAN_POINT('',(17.,12.,7.0250628144669));
#1249=CARTESIAN_POINT('',(17.,12.,6.));
#1250=CARTESIAN_POINT('',(17.,12.45,7.52255653302021));
#1251=CARTESIAN_POINT('Origin',(17.,12.5,7.0250628144669));
#1252=CARTESIAN_POINT('',(17.,16.4581599050562,12.6122174948079));
#1253=CARTESIAN_POINT('Origin',(17.,12.,12.));
#1254=CARTESIAN_POINT('',(17.,15.8333992819432,13.0271562418627));
#1255=CARTESIAN_POINT('Origin',(17.,15.9628088044944,12.5441933287182));
#1256=CARTESIAN_POINT('',(17.,14.4645309268334,12.6603690715665));
#1257=CARTESIAN_POINT('Origin',(-17.,50.,7.99999999999999));
#1258=CARTESIAN_POINT('',(-17.,51.,7.99999999999999));
#1259=CARTESIAN_POINT('',(-17.,50.,8.99999999999999));
#1260=CARTESIAN_POINT('Origin',(-17.,50.,7.99999999999999));
#1261=CARTESIAN_POINT('',(-17.,51.,1.));
#1262=CARTESIAN_POINT('',(-17.,51.,7.99999999999999));
#1263=CARTESIAN_POINT('',(-17.,50.,-3.40141858034668E-15));
#1264=CARTESIAN_POINT('Origin',(-17.,50.,0.999999999999997));
#1265=CARTESIAN_POINT('',(-17.,1.00000000000001,-2.16840434497101E-16));
#1266=CARTESIAN_POINT('',(-17.,50.,-3.40141858034668E-15));
#1267=CARTESIAN_POINT('',(-17.,-1.22464679914736E-16,1.00000000000001));
#1268=CARTESIAN_POINT('Origin',(-17.,1.,1.));
#1269=CARTESIAN_POINT('',(-17.,-6.50521303491303E-15,50.));
#1270=CARTESIAN_POINT('',(-17.,-1.22464679914736E-16,1.00000000000001));
#1271=CARTESIAN_POINT('',(-17.,1.,51.));
#1272=CARTESIAN_POINT('Origin',(-17.,0.999999999999994,50.));
#1273=CARTESIAN_POINT('',(-17.,7.99999999999998,51.));
#1274=CARTESIAN_POINT('',(-17.,1.,51.));
#1275=CARTESIAN_POINT('',(-17.,8.99999999999999,50.));
#1276=CARTESIAN_POINT('Origin',(-17.,7.99999999999999,50.));
#1277=CARTESIAN_POINT('',(-17.,9.,31.4142135623731));
#1278=CARTESIAN_POINT('',(-17.,8.99999999999999,50.));
#1279=CARTESIAN_POINT('',(-17.,9.29289321881344,30.7071067811865));
#1280=CARTESIAN_POINT('Origin',(-17.,10.,31.4142135623731));
#1281=CARTESIAN_POINT('',(-17.,30.7071067811863,9.29289321881346));
#1282=CARTESIAN_POINT('',(-17.,9.29289321881344,30.7071067811865));
#1283=CARTESIAN_POINT('',(-17.,31.4142135623729,9.));
#1284=CARTESIAN_POINT('Origin',(-17.,31.4142135623729,10.));
#1285=CARTESIAN_POINT('',(-17.,31.4142135623729,9.));
#1286=CARTESIAN_POINT('',(-17.,12.6442980851018,14.4155496222463));
#1287=CARTESIAN_POINT('',(-17.,14.4155007241344,12.6444813819702));
#1288=CARTESIAN_POINT('Origin',(-17.,12.,12.));
#1289=CARTESIAN_POINT('',(-17.,14.4645309268334,12.6603690715665));
#1290=CARTESIAN_POINT('Origin',(-17.,14.5939404493847,12.177406158422));
#1291=CARTESIAN_POINT('',(-17.,15.8333992819432,13.0271562418627));
#1292=CARTESIAN_POINT('',(-17.,14.4645309268334,12.6603690715665));
#1293=CARTESIAN_POINT('',(-17.,16.4581599050562,12.6122174948079));
#1294=CARTESIAN_POINT('Origin',(-17.,15.9628088044944,12.5441933287182));
#1295=CARTESIAN_POINT('',(-17.,12.45,7.52255653302021));
#1296=CARTESIAN_POINT('Origin',(-17.,12.,12.));
#1297=CARTESIAN_POINT('',(-17.,12.,7.0250628144669));
#1298=CARTESIAN_POINT('Origin',(-17.,12.5,7.0250628144669));
#1299=CARTESIAN_POINT('',(-17.,12.,6.));
#1300=CARTESIAN_POINT('',(-17.,12.,6.));
#1301=CARTESIAN_POINT('',(-17.,13.,4.99999999999999));
#1302=CARTESIAN_POINT('Origin',(-17.,13.,5.99999999999999));
#1303=CARTESIAN_POINT('',(-17.,25.221825406948,5.));
#1304=CARTESIAN_POINT('',(-17.,25.221825406948,5.));
#1305=CARTESIAN_POINT('',(-17.,26.6360389693211,8.41421356237309));
#1306=CARTESIAN_POINT('Origin',(-17.,25.221825406948,7.));
#1307=CARTESIAN_POINT('',(-17.,8.4142135623731,26.6360389693211));
#1308=CARTESIAN_POINT('',(-17.,26.6360389693211,8.41421356237309));
#1309=CARTESIAN_POINT('',(-17.,5.,25.221825406948));
#1310=CARTESIAN_POINT('Origin',(-17.,7.,25.221825406948));
#1311=CARTESIAN_POINT('',(-17.,5.,13.));
#1312=CARTESIAN_POINT('',(-17.,5.,25.221825406948));
#1313=CARTESIAN_POINT('',(-17.,6.00000000000001,12.));
#1314=CARTESIAN_POINT('Origin',(-17.,6.,13.));
#1315=CARTESIAN_POINT('',(-17.,7.0250628144669,12.));
#1316=CARTESIAN_POINT('',(-17.,6.00000000000001,12.));
#1317=CARTESIAN_POINT('',(-17.,7.52255653302021,12.45));
#1318=CARTESIAN_POINT('Origin',(-17.,7.0250628144669,12.5));
#1319=CARTESIAN_POINT('',(-17.,12.612,16.4581897671589));
#1320=CARTESIAN_POINT('Origin',(-17.,12.,12.));
#1321=CARTESIAN_POINT('',(-17.,13.0269629131445,15.8334258260344));
#1322=CARTESIAN_POINT('Origin',(-17.,12.544,15.9628353485857));
#1323=CARTESIAN_POINT('',(-17.,12.6601722355329,14.4645443814452));
#1324=CARTESIAN_POINT('',(-17.,12.6601722355329,14.4645443814452));
#1325=CARTESIAN_POINT('Origin',(-17.,12.1772093223884,14.5939539039965));
#1326=CARTESIAN_POINT('Origin',(17.001,12.,12.));
#1327=CARTESIAN_POINT('',(17.001,12.612,16.4581897671589));
#1328=CARTESIAN_POINT('',(17.001,7.52255653302021,12.45));
#1329=CARTESIAN_POINT('Origin',(17.,50.,7.99999999999999));
#1330=CARTESIAN_POINT('',(17.,50.,8.99999999999999));
#1331=CARTESIAN_POINT('',(17.,51.,7.99999999999999));
#1332=CARTESIAN_POINT('Origin',(17.,31.4142135623729,9.));
#1333=CARTESIAN_POINT('',(17.,31.4142135623729,9.));
#1334=CARTESIAN_POINT('',(7.25,41.,9.));
#1335=CARTESIAN_POINT('Origin',(10.,41.,9.));
#1336=CARTESIAN_POINT('',(-12.75,41.,9.));
#1337=CARTESIAN_POINT('Origin',(-10.,41.,9.));
#1338=CARTESIAN_POINT('Origin',(17.,31.4142135623729,10.));
#1339=CARTESIAN_POINT('',(17.,30.7071067811863,9.29289321881346));
#1340=CARTESIAN_POINT('Origin',(17.,9.29289321881344,30.7071067811865));
#1341=CARTESIAN_POINT('',(17.,9.29289321881344,30.7071067811865));
#1342=CARTESIAN_POINT('Origin',(17.,10.,31.4142135623731));
#1343=CARTESIAN_POINT('',(17.,9.,31.4142135623731));
#1344=CARTESIAN_POINT('Origin',(17.,8.99999999999999,50.));
#1345=CARTESIAN_POINT('',(17.,8.99999999999999,50.));
#1346=CARTESIAN_POINT('',(10.,8.99999999999999,38.25));
#1347=CARTESIAN_POINT('Origin',(10.,8.99999999999999,41.));
#1348=CARTESIAN_POINT('',(-10.,8.99999999999999,38.25));
#1349=CARTESIAN_POINT('Origin',(-10.,8.99999999999999,41.));
#1350=CARTESIAN_POINT('Origin',(17.,7.99999999999999,50.));
#1351=CARTESIAN_POINT('',(17.,7.99999999999998,51.));
#1352=CARTESIAN_POINT('Origin',(17.,1.,51.));
#1353=CARTESIAN_POINT('',(17.,1.,51.));
#1354=CARTESIAN_POINT('Origin',(17.,0.999999999999994,50.));
#1355=CARTESIAN_POINT('',(17.,-6.50521303491303E-15,50.));
#1356=CARTESIAN_POINT('Origin',(17.,-1.22464679914736E-16,1.00000000000001));
#1357=CARTESIAN_POINT('',(17.,-1.22464679914736E-16,1.00000000000001));
#1358=CARTESIAN_POINT('',(10.,-4.68415996095206E-15,38.25));
#1359=CARTESIAN_POINT('Origin',(10.,-5.02099955308668E-15,41.));
#1360=CARTESIAN_POINT('',(-10.,-4.68415996095206E-15,38.25));
#1361=CARTESIAN_POINT('Origin',(-10.,-5.02099955308668E-15,41.));
#1362=CARTESIAN_POINT('Origin',(17.,1.,1.));
#1363=CARTESIAN_POINT('',(17.,1.00000000000001,-2.16840434497101E-16));
#1364=CARTESIAN_POINT('Origin',(17.,50.,-3.40141858034668E-15));
#1365=CARTESIAN_POINT('',(17.,50.,-3.40141858034668E-15));
#1366=CARTESIAN_POINT('',(7.25,41.,-2.97640601401583E-15));
#1367=CARTESIAN_POINT('Origin',(10.,41.,-2.78927949530841E-15));
#1368=CARTESIAN_POINT('',(-12.75,41.,-2.97640601401583E-15));
#1369=CARTESIAN_POINT('Origin',(-10.,41.,-2.78927949530841E-15));
#1370=CARTESIAN_POINT('Origin',(17.,50.,0.999999999999997));
#1371=CARTESIAN_POINT('',(17.,51.,1.));
#1372=CARTESIAN_POINT('Origin',(17.,51.,7.99999999999999));
#1373=CARTESIAN_POINT('Origin',(17.001,25.221825406948,7.));
#1374=CARTESIAN_POINT('',(17.001,26.6360389693211,8.41421356237309));
#1375=CARTESIAN_POINT('',(17.001,25.221825406948,5.));
#1376=CARTESIAN_POINT('Origin',(17.001,26.6360389693211,8.41421356237309));
#1377=CARTESIAN_POINT('',(17.001,8.4142135623731,26.6360389693211));
#1378=CARTESIAN_POINT('Origin',(17.001,7.,25.221825406948));
#1379=CARTESIAN_POINT('',(17.001,5.,25.221825406948));
#1380=CARTESIAN_POINT('Origin',(17.001,5.,25.221825406948));
#1381=CARTESIAN_POINT('',(17.001,5.,13.));
#1382=CARTESIAN_POINT('Origin',(17.001,6.,13.));
#1383=CARTESIAN_POINT('',(17.001,6.00000000000001,12.));
#1384=CARTESIAN_POINT('Origin',(17.001,6.00000000000001,12.));
#1385=CARTESIAN_POINT('',(17.001,7.0250628144669,12.));
#1386=CARTESIAN_POINT('Origin',(17.001,7.0250628144669,12.5));
#1387=CARTESIAN_POINT('Origin',(17.001,12.,12.));
#1388=CARTESIAN_POINT('',(17.001,16.4581599050562,12.6122174948079));
#1389=CARTESIAN_POINT('',(17.001,12.45,7.52255653302021));
#1390=CARTESIAN_POINT('Origin',(17.001,12.5,7.0250628144669));
#1391=CARTESIAN_POINT('',(17.001,12.,7.0250628144669));
#1392=CARTESIAN_POINT('Origin',(17.001,12.,6.));
#1393=CARTESIAN_POINT('',(17.001,12.,6.));
#1394=CARTESIAN_POINT('Origin',(17.001,13.,5.99999999999999));
#1395=CARTESIAN_POINT('',(17.001,13.,4.99999999999999));
#1396=CARTESIAN_POINT('Origin',(17.001,25.221825406948,5.));
#1397=CARTESIAN_POINT('Origin',(17.001,12.544,15.9628353485857));
#1398=CARTESIAN_POINT('',(17.001,13.0269629131445,15.8334258260344));
#1399=CARTESIAN_POINT('Origin',(17.001,12.6601722355329,14.4645443814452));
#1400=CARTESIAN_POINT('',(17.001,12.6601722355329,14.4645443814452));
#1401=CARTESIAN_POINT('Origin',(17.001,12.1772093223884,14.5939539039965));
#1402=CARTESIAN_POINT('',(-16.6,12.1431306065445,14.0951166147664));
#1403=CARTESIAN_POINT('Ctrl Pts',(-17.,12.6442980851018,14.4155496222463));
#1404=CARTESIAN_POINT('Ctrl Pts',(-16.9581188689855,12.6292730626748,14.3762118941025));
#1405=CARTESIAN_POINT('Ctrl Pts',(-16.9148953018446,12.608500170962,14.3370330560194));
#1406=CARTESIAN_POINT('Ctrl Pts',(-16.8139824802003,12.5447768012434,14.2490639075733));
#1407=CARTESIAN_POINT('Ctrl Pts',(-16.7577460276789,12.4960877487167,14.2031081595147));
#1408=CARTESIAN_POINT('Ctrl Pts',(-16.6819065948244,12.401514264839,14.1448903065579));
#1409=CARTESIAN_POINT('Ctrl Pts',(-16.6526057499618,12.3550738348133,14.1236777258302));
#1410=CARTESIAN_POINT('Ctrl Pts',(-16.6114978655295,12.2527814996565,14.0968781067591));
#1411=CARTESIAN_POINT('Ctrl Pts',(-16.6,12.1967633872232,14.091452621853));
#1412=CARTESIAN_POINT('Ctrl Pts',(-16.6,12.1431306065445,14.0951166147664));
#1413=CARTESIAN_POINT('',(16.6,12.1431306065445,14.0951166147664));
#1414=CARTESIAN_POINT('Ctrl Pts',(16.6,12.1431306065445,14.0951166147664));
#1415=CARTESIAN_POINT('Ctrl Pts',(16.6,12.1967633872232,14.091452621853));
#1416=CARTESIAN_POINT('Ctrl Pts',(16.6114978655295,12.2527814996565,14.0968781067591));
#1417=CARTESIAN_POINT('Ctrl Pts',(16.6526057499618,12.3550738348133,14.1236777258302));
#1418=CARTESIAN_POINT('Ctrl Pts',(16.6819065948245,12.401514264839,14.1448903065579));
#1419=CARTESIAN_POINT('Ctrl Pts',(16.7577460276789,12.4960877487167,14.2031081595147));
#1420=CARTESIAN_POINT('Ctrl Pts',(16.8139824802003,12.5447768012434,14.2490639075733));
#1421=CARTESIAN_POINT('Ctrl Pts',(16.9148953018446,12.608500170962,14.3370330560194));
#1422=CARTESIAN_POINT('Ctrl Pts',(16.9581188689855,12.6292730626748,14.3762118941025));
#1423=CARTESIAN_POINT('Ctrl Pts',(17.,12.6442980851018,14.4155496222463));
#1424=CARTESIAN_POINT('',(17.001,12.1431306065445,14.0951166147664));
#1425=CARTESIAN_POINT('Origin',(17.001,12.,12.));
#1426=CARTESIAN_POINT('',(-16.6,14.0951057475799,12.1432895894947));
#1427=CARTESIAN_POINT('Origin',(-16.6,12.,12.));
#1428=CARTESIAN_POINT('',(16.6,14.0951057475799,12.1432895894947));
#1429=CARTESIAN_POINT('Origin',(16.6,12.,12.));
#1430=CARTESIAN_POINT('',(17.001,14.0951057475799,12.1432895894947));
#1431=CARTESIAN_POINT('Origin',(17.001,14.5939404493847,12.177406158422));
#1432=CARTESIAN_POINT('Ctrl Pts',(-16.6,14.0951057475799,12.1432895894947));
#1433=CARTESIAN_POINT('Ctrl Pts',(-16.6,14.0914376848703,12.1969220919849));
#1434=CARTESIAN_POINT('Ctrl Pts',(-16.6114978655295,14.0968589189483,12.252940615958));
#1435=CARTESIAN_POINT('Ctrl Pts',(-16.6526057499618,14.1236507757111,12.3552349844511));
#1436=CARTESIAN_POINT('Ctrl Pts',(-16.6819065948245,14.1448598323469,12.4016770240135));
#1437=CARTESIAN_POINT('Ctrl Pts',(-16.7577460276789,14.2030705086331,12.496254925354));
#1438=CARTESIAN_POINT('Ctrl Pts',(-16.8139824802003,14.2490225618967,12.5449474649924));
#1439=CARTESIAN_POINT('Ctrl Pts',(-16.9148953018446,14.3369868745803,12.6086775098748));
#1440=CARTESIAN_POINT('Ctrl Pts',(-16.9581188689855,14.376164136245,12.6294533745286));
#1441=CARTESIAN_POINT('Ctrl Pts',(-17.,14.4155007241344,12.6444813819702));
#1442=CARTESIAN_POINT('Ctrl Pts',(17.,14.4155007241344,12.6444813819702));
#1443=CARTESIAN_POINT('Ctrl Pts',(16.9581188689855,14.376164136245,12.6294533745286));
#1444=CARTESIAN_POINT('Ctrl Pts',(16.9148953018446,14.3369868745803,12.6086775098748));
#1445=CARTESIAN_POINT('Ctrl Pts',(16.8139824802003,14.2490225618967,12.5449474649924));
#1446=CARTESIAN_POINT('Ctrl Pts',(16.7577460276789,14.2030705086331,12.496254925354));
#1447=CARTESIAN_POINT('Ctrl Pts',(16.6819065948245,14.1448598323469,12.4016770240135));
#1448=CARTESIAN_POINT('Ctrl Pts',(16.6526057499618,14.1236507757111,12.3552349844511));
#1449=CARTESIAN_POINT('Ctrl Pts',(16.6114978655295,14.0968589189483,12.252940615958));
#1450=CARTESIAN_POINT('Ctrl Pts',(16.6,14.0914376848703,12.1969220919849));
#1451=CARTESIAN_POINT('Ctrl Pts',(16.6,14.0951057475799,12.1432895894947));
#1452=CARTESIAN_POINT('',(17.001,14.4645309268334,12.6603690715665));
#1453=CARTESIAN_POINT('Origin',(17.001,14.4645309268334,12.6603690715665));
#1454=CARTESIAN_POINT('',(17.001,15.8333992819432,13.0271562418627));
#1455=CARTESIAN_POINT('Origin',(17.001,15.9628088044944,12.5441933287182));
#1456=CARTESIAN_POINT('Origin',(-10.,-0.00100000000001488,41.));
#1457=CARTESIAN_POINT('',(-10.,-0.00100000000001436,38.25));
#1458=CARTESIAN_POINT('Origin',(10.,-0.00100000000001488,41.));
#1459=CARTESIAN_POINT('',(10.,-0.00100000000001436,38.25));
#1460=CARTESIAN_POINT('Origin',(-10.,41.,-0.00100000000000447));
#1461=CARTESIAN_POINT('',(-12.75,41.,-0.00100000000000447));
#1462=CARTESIAN_POINT('Origin',(10.,41.,-0.00100000000000447));
#1463=CARTESIAN_POINT('',(7.25,41.,-0.00100000000000447));
#1464=CARTESIAN_POINT('Origin',(17.,12.,12.));
#1465=CARTESIAN_POINT('Origin',(-16.567,12.,12.));
#1466=UNCERTAINTY_MEASURE_WITH_UNIT(LENGTH_MEASURE(0.01),#1470,
'DISTANCE_ACCURACY_VALUE',
'Maximum model space distance between geometric entities at asserted c
onnectivities');
#1467=UNCERTAINTY_MEASURE_WITH_UNIT(LENGTH_MEASURE(0.01),#1470,
'DISTANCE_ACCURACY_VALUE',
'Maximum model space distance between geometric entities at asserted c
onnectivities');
#1468=(
GEOMETRIC_REPRESENTATION_CONTEXT(3)
GLOBAL_UNCERTAINTY_ASSIGNED_CONTEXT((#1466))
GLOBAL_UNIT_ASSIGNED_CONTEXT((#1470,#1472,#1473))
REPRESENTATION_CONTEXT('','3D')
);
#1469=(
GEOMETRIC_REPRESENTATION_CONTEXT(3)
GLOBAL_UNCERTAINTY_ASSIGNED_CONTEXT((#1467))
GLOBAL_UNIT_ASSIGNED_CONTEXT((#1470,#1472,#1473))
REPRESENTATION_CONTEXT('','3D')
);
#1470=(
LENGTH_UNIT()
NAMED_UNIT(*)
SI_UNIT(.MILLI.,.METRE.)
);
#1471=(
LENGTH_UNIT()
NAMED_UNIT(*)
SI_UNIT($,.METRE.)
);
#1472=(
NAMED_UNIT(*)
PLANE_ANGLE_UNIT()
SI_UNIT($,.RADIAN.)
);
#1473=(
NAMED_UNIT(*)
SI_UNIT($,.STERADIAN.)
SOLID_ANGLE_UNIT()
);
#1474=SHAPE_DEFINITION_REPRESENTATION(#1475,#1476);
#1475=PRODUCT_DEFINITION_SHAPE('',$,#1478);
#1476=SHAPE_REPRESENTATION('',(#842),#1468);
#1477=PRODUCT_DEFINITION_CONTEXT('part definition',#1482,'design');
#1478=PRODUCT_DEFINITION('(Unsaved)','(Unsaved)',#1479,#1477);
#1479=PRODUCT_DEFINITION_FORMATION('',$,#1484);
#1480=PRODUCT_RELATED_PRODUCT_CATEGORY('(Unsaved)','(Unsaved)',(#1484));
#1481=APPLICATION_PROTOCOL_DEFINITION('international standard',
'automotive_design',2009,#1482);
#1482=APPLICATION_CONTEXT(
'Core Data for Automotive Mechanical Design Process');
#1483=PRODUCT_CONTEXT('part definition',#1482,'mechanical');
#1484=PRODUCT('(Unsaved)','(Unsaved)',$,(#1483));
#1485=PRESENTATION_STYLE_ASSIGNMENT((#1486));
#1486=SURFACE_STYLE_USAGE(.BOTH.,#1487);
#1487=SURFACE_SIDE_STYLE('',(#1488));
#1488=SURFACE_STYLE_FILL_AREA(#1489);
#1489=FILL_AREA_STYLE('Steel - Satin',(#1490));
#1490=FILL_AREA_STYLE_COLOUR('Steel - Satin',#1491);
#1491=COLOUR_RGB('Steel - Satin',0.627450980392157,0.627450980392157,0.627450980392157);
ENDSEC;
END-ISO-10303-21;
